<?xml version="1.0" encoding="utf-8"?>
<!-- Generator: Adobe Illustrator 27.5.0, SVG Export Plug-In . SVG Version: 6.00 Build 0)  -->
<svg version="1.1" xmlns="http://www.w3.org/2000/svg" xmlns:xlink="http://www.w3.org/1999/xlink" x="0px" y="0px"
	 viewBox="0 0 750 500" style="enable-background:new 0 0 750 500;" xml:space="preserve">
<g id="BACKGROUND">
	<rect y="-0.333" style="fill:#FFFFFF;" width="750" height="500"/>
	<path style="fill:#C0E6F9;" d="M322.416,89.874c-1.728-1-13.279-1.897-30.993-2.549c-1.338-7.917-8.223-13.949-16.521-13.949
		c-3.129,0-6.055,0.86-8.561,2.352c-4.542-6.469-12.054-10.701-20.559-10.701c-3.038,0-5.95,0.54-8.645,1.528
		c-6.694-7.896-16.683-12.909-27.845-12.909c-15.468,0-28.687,9.624-33.998,23.211c-2.829-2.18-6.371-3.48-10.219-3.48
		c-8.328,0-15.234,6.075-16.536,14.035c-16.445,0.644-27.102,1.507-28.756,2.464H322.416z"/>
	<path style="fill:#C0E6F9;" d="M737.7,278.601c-1.728-1-13.279-1.897-30.993-2.549c-1.338-7.918-8.223-13.949-16.521-13.949
		c-3.129,0-6.055,0.86-8.561,2.352c-4.542-6.469-12.054-10.701-20.559-10.701c-3.038,0-5.95,0.54-8.645,1.528
		c-6.694-7.896-16.683-12.909-27.845-12.909c-15.468,0-28.687,9.624-33.998,23.211c-2.829-2.18-6.371-3.48-10.219-3.48
		c-8.328,0-15.234,6.075-16.536,14.035c-16.445,0.644-27.102,1.507-28.756,2.464H737.7z"/>
	<path style="fill:#C0E6F9;" d="M134.167,236.063c-1.042-0.603-8.006-1.144-18.686-1.537c-0.807-4.774-4.958-8.41-9.961-8.41
		c-1.886,0-3.651,0.518-5.162,1.418c-2.739-3.9-7.268-6.452-12.395-6.452c-1.832,0-3.587,0.326-5.213,0.921
		c-4.036-4.761-10.059-7.783-16.789-7.783c-9.326,0-17.296,5.803-20.498,13.994c-1.706-1.315-3.841-2.098-6.161-2.098
		c-5.021,0-9.185,3.663-9.97,8.462c-9.915,0.389-16.34,0.909-17.338,1.486H134.167z"/>
	<path style="fill:#C0E6F9;" d="M428.07,336.162c-3.205-1.855-24.635-3.518-57.497-4.729c-2.482-14.688-15.255-25.879-30.649-25.879
		c-5.804,0-11.234,1.595-15.883,4.363c-8.427-12.001-22.362-19.853-38.141-19.853c-5.636,0-11.038,1.001-16.039,2.835
		c-12.418-14.648-30.951-23.949-51.658-23.949c-28.696,0-53.219,17.855-63.072,43.06c-5.248-4.045-11.82-6.456-18.959-6.456
		c-15.45,0-28.261,11.27-30.677,26.037c-30.508,1.196-50.279,2.796-53.348,4.571H428.07z"/>
	<path style="fill:#C0E6F9;" d="M601.651,427.2c-2.237-1.294-17.191-2.455-40.122-3.3c-1.732-10.25-10.645-18.058-21.387-18.058
		c-4.05,0-7.839,1.113-11.083,3.045c-5.88-8.375-15.605-13.854-26.615-13.854c-3.933,0-7.703,0.699-11.192,1.979
		c-8.665-10.222-21.598-16.712-36.048-16.712c-20.024,0-37.137,12.459-44.012,30.048c-3.662-2.822-8.248-4.505-13.23-4.505
		c-10.781,0-19.721,7.865-21.407,18.169c-21.289,0.834-35.085,1.951-37.227,3.19H601.651z"/>
	<path style="fill:#C0E6F9;" d="M656.125,100.546c-2.237-1.294-17.191-2.455-40.122-3.3c-1.732-10.25-10.645-18.058-21.387-18.058
		c-4.05,0-7.839,1.113-11.083,3.045c-5.88-8.375-15.605-13.854-26.615-13.854c-3.933,0-7.703,0.699-11.192,1.978
		c-8.665-10.222-21.598-16.712-36.048-16.712c-20.024,0-37.137,12.459-44.012,30.048c-3.662-2.822-8.248-4.505-13.23-4.505
		c-10.781,0-19.721,7.865-21.407,18.169c-21.288,0.834-35.085,1.951-37.227,3.19H656.125z"/>
</g>
<g id="OBJECTS">
	<g>
		<g style="opacity:0.63;">
			<path style="fill:#C0E6F9;" d="M352.181,268.131c-1.007-1.34-2.81-1.141-4.802-0.358c-1.169,0.46-4.103,1.23-7.087,1.741
				c7.718-2.292,10.898-7.201,9.784-8.293c-1.197-1.173-2.949-0.706-4.801,0.366c-0.702,0.407-2.113,1.052-3.797,1.715
				c5.241-2.626,7.27-6.308,6.308-7.204c-1.226-1.142-2.967-0.631-4.79,0.489c-1.59,0.976-6.89,3.311-10.705,4.177
				c-1.404,0.01-3.001,0.32-4.837,0.554c0.55-0.543,2.09-2.076,3.646-3.745c1.941-2.082,1.859-6.227-0.383-6.715
				c-1.3-0.283-2.739,1.468-3.681,3.149c-0.942,1.681-3.1,3.23-7.526,5.352c-5.374,2.577-8.133,6.282-9.103,7.817
				c-0.164-0.017-0.327-0.036-0.493-0.052c-0.247-0.023-0.513-0.043-0.781-0.063c0.002-0.002,0.003-0.003,0.005-0.005l-52.569-3.347
				v-56.729h-13.906v172.381h13.906v-14.573c0.186,0.425,0.36,0.857,0.515,1.296c1.188,3.358,3.104,6.711,4.976,8.878
				c0.767,0.888,2.671,4.546,3.446,5.772c0.028,0.095,0.041,0.193,0.084,0.273c3.244,6.059,7.134,9.728,8.007,8.689
				c0.872-1.039,0.362-2.414-0.65-3.826c-0.625-0.873-1.906-3.212-2.923-5.577c0.017-0.009,0.034-0.018,0.051-0.027
				c0.172,0.335,0.347,0.644,0.509,0.906c4.291,6.948,10.04,8.462,10.673,7.122c0.633-1.34-0.266-2.668-1.698-3.903
				c-0.841-0.725-2.653-2.702-4.282-4.826c4.973,5.092,10.123,5.557,10.518,4.235c0.425-1.419-0.663-2.598-2.265-3.604
				c-0.607-0.381-1.694-1.219-2.906-2.263c4.214,3.017,7.93,3.087,8.235,1.965c0.388-1.43-0.729-2.58-2.356-3.545
				c-1.419-0.841-5.429-4.025-7.678-6.652c-0.586-1.094-1.487-2.215-2.426-3.555c0.651,0.207,2.485,0.78,4.432,1.309
				c2.428,0.66,5.637-1.112,5.094-3.067c-0.315-1.134-2.277-1.538-3.98-1.582c-1.703-0.044-3.804-1.094-7.288-3.681
				c-4.23-3.142-8.265-3.773-9.865-3.899c-0.055-0.136-0.106-0.27-0.163-0.407c-0.084-0.203-0.177-0.419-0.272-0.637
				c0.002,0,0.004,0.001,0.006,0.002l-7.792-17.386v-50.254l15.492-1.683c13.553-0.861,28.313-2.478,38.487-4.182
				c2.203-0.369,4.452-0.389,6.662-0.067c3.987,0.582,8.352,0.432,11.507-0.299c1.294-0.3,5.958-0.276,7.593-0.405
				c0.109,0.022,0.215,0.061,0.318,0.06c7.773-0.052,13.496-2.011,12.916-3.431c-0.58-1.421-2.225-1.635-4.172-1.367
				c-1.203,0.166-4.219,0.214-7.122-0.015c0-0.022,0-0.043,0-0.065c0.427,0.005,0.828-0.007,1.175-0.031
				C348.642,274.425,353.188,269.47,352.181,268.131z"/>
			<path style="fill:#C0E6F9;" d="M439.702,284.999l47.516,5.965l29.99,3.145l27.848,16.401v-76.88h-57.838v2.035l-27.735,13.99
				c-1.314,0.648-2.659,1.222-4.029,1.721c-1.37,0.499-2.766,0.923-4.18,1.271c-1.414,0.347-2.847,0.618-4.293,0.811
				c-1.446,0.193-2.904,0.307-4.368,0.342l-20.259,1.189c-0.925-1.461-2.171-2.776-3.311-2.528c-1.139,0.248-1.718,1.44-1.76,2.826
				l-23.61,1.386c-0.525-0.008-1.026,0.405-1.008,1.008c0.004,0.128,0.01,0.265,0.017,0.405c-1.907,0.024-3.268,0.024-3.597-0.008
				c-3.075-0.301-4.133-1.151-5.99-2.619c-2.821-2.23-5.21-5.696-13.747-4.654c-1.315,0.16-2.414,0.316-3.366,0.478
				c-0.331-2.466-0.589-4.938-0.775-7.397l5.943-9.137c0.709-0.155,1.394-0.322,2.047-0.505c1.236-0.347,2.374-0.742,3.42-1.178
				c0.706-0.294,1.356-0.613,1.982-0.942c0.585-0.308,1.136-0.629,1.654-0.962c0.57-0.367,1.115-0.742,1.609-1.136
				c0.535-0.425,1.014-0.868,1.466-1.318c2.185-2.172,3.457-4.583,4.168-6.861c0.05-0.162,0.098-0.322,0.143-0.482
				c1.288-4.583,0.401-8.483,0.401-8.483v0l0,0c-18.426,5.88-17.491,13.067-17.814,19.771l-5.222,8.029
				c-0.422-7.825-0.245-15.397,0.03-22.014c1.197-0.298,2.317-1.271,3.249-2.262c8.075-1.698,10.116-11.798,10.429-15.166
				c0.202-2.176-0.137-3.117-1.943-2.592c0.079-2.777-0.908-2.901-3.14-1.786c-0.397,0.198-0.895,0.469-1.451,0.804
				c-1.301-4.422-2.291-4.45-4.197-2.174c-0.306,0.366-0.685,0.854-1.095,1.436c-1.773-3.769-2.747-3.598-4.266-1.167
				c-0.258,0.413-0.574,0.971-0.907,1.621c-2.879-3.636-3.81-3.297-4.725-0.465c-0.018,0.055-0.038,0.126-0.056,0.185
				c-2.959-2.5-3.749-1.909-4.143,0.859c-0.057,0.401-0.111,0.909-0.152,1.486c-1.983-0.491-2.282,0.464-1.922,2.682
				c0.516,3.174,3.007,12.313,10.271,14.187c0.703,1.141,1.422,1.823,2.137,2.161c-0.407,9.717-0.607,21.509,0.975,33.186
				c-3.076,0.751-3.746,1.767-4.764,3.898c-1.437,3.013-3.968,4.309-3.363,5.283c0.222,0.359,0.613,1.703,2.09,1.408
				c0,0,0.001,0,0.001,0c0.04,0.201,0.46,0.284,1.113,0.279c-0.636,1.595-0.968,3.771,1.511,4.606
				c-1.051,1.831-0.023,3.9,1.975,4.38c-0.912,1.825,0.813,4.809,3.886,4.114c0.358-0.079,0.748-0.175,1.161-0.286
				c0.294-0.079,0.6-0.165,0.91-0.258c-0.311,0.092-0.616,0.18-0.91,0.259c1.106,0.326,2.101,0.579,3.034,0.774l5.14,13.51
				c0.145,0.383,0.509,0.618,0.896,0.618c0.113,0,0.228-0.02,0.341-0.063c0.495-0.188,0.743-0.742,0.555-1.237l-4.744-12.469
				c2.742,0.321,5.154,0.083,8.612-0.418c2.549-0.37,5.043-1.052,7.33-1.653c0.732-0.192,3.251-0.423,6.38-0.659
				c0.035-0.003,0.072-0.005,0.107-0.008c0.355-0.027,0.715-0.053,1.083-0.08c0.167-0.012,0.339-0.024,0.508-0.036
				c0.32-0.023,0.641-0.046,0.967-0.069c1.008,1.857,1.82,3.241,2.471,4.277c-0.06,0.099-0.125,0.193-0.171,0.308
				c-0.196,0.479,0.34,1.019,1.415,1.527c0.197,0.241,0.479,0.339,0.751,0.315c2.283,0.859,6.151,1.559,10.75,1.589
				c0.103,0.001,0.208-0.038,0.318-0.06c1.635,0.129,6.299,0.106,7.593,0.405c3.156,0.731,7.52,0.88,11.507,0.299
				c1.595-0.233,3.21-0.28,4.813-0.154C437.648,283.365,438.373,284.334,439.702,284.999z"/>
			<path style="fill:#C0E6F9;" d="M373.353,273.165c-0.01,0.006-0.022,0.012-0.032,0.018c0.215-0.126,0.411-0.256,0.594-0.387
				c0,0.001,0,0.007,0,0.007C373.744,272.925,373.554,273.046,373.353,273.165z"/>
			<path style="fill:#C0E6F9;" d="M372.712,273.515c-0.047,0.024-0.096,0.047-0.144,0.071c0.224-0.111,0.439-0.225,0.641-0.341
				c-0.033,0.019-0.066,0.037-0.099,0.055C372.981,273.372,372.85,273.445,372.712,273.515z"/>
			<path style="fill:#C0E6F9;" d="M369.8,274.707c0.119-0.04,0.237-0.083,0.355-0.125l0.002,0.004c-0.001,0-0.002,0.001-0.003,0.001
				C370.037,274.629,369.919,274.667,369.8,274.707z"/>
			<path style="fill:#C0E6F9;" d="M371.94,273.881l-0.001-0.004c0.138-0.062,0.278-0.122,0.411-0.186
				c-0.114,0.054-0.228,0.109-0.346,0.162C371.982,273.863,371.961,273.872,371.94,273.881z"/>
			<path style="fill:#C0E6F9;" d="M369.528,274.799c-0.254,0.084-0.505,0.162-0.755,0.238
				C369.022,274.962,369.275,274.883,369.528,274.799z"/>
		</g>
		<path style="fill:#2E7F67;" d="M373.3,222.035c0.516-6.973-1.44-14.571,17.871-20.733c0,0,4.21,18.39-18.856,22.247L373.3,222.035
			z"/>
		<path style="fill:#1B684E;" d="M391.171,201.301c0,0-1.583,15.671-18.856,22.247C395.381,219.691,391.171,201.301,391.171,201.301
			z"/>
		<g>
			<path style="fill:#B71332;" d="M365.963,191.413c-0.324-0.408-0.681-0.818-1.078-1.228c-7.094-7.318-8.412-7.703-8.967-3.805
				c-0.242,1.702-0.454,5.201,0.376,8.692C359.406,193.587,362.655,192.398,365.963,191.413z"/>
			<path style="fill:#B71332;" d="M372.892,192.852c-0.131-0.504-0.291-1.023-0.488-1.56c-3.519-9.565-4.568-10.451-6.655-7.113
				c-0.911,1.458-2.523,4.57-3.179,8.099C366.017,192.183,369.469,192.412,372.892,192.852z"/>
			<path style="fill:#B71332;" d="M378.327,196.406c0.152-0.499,0.286-1.025,0.398-1.585c1.989-9.996,1.556-11.299-1.966-9.54
				c-1.538,0.768-4.537,2.583-6.938,5.25C372.811,192.247,375.637,194.244,378.327,196.406z"/>
			<path style="fill:#DD2641;" d="M363.496,203.229h5.752c1.413-2.482,2.839-7.067-0.945-12.615
				c-5.743-8.42-6.976-9.024-8.187-5.278C359.088,188.519,357.012,198.422,363.496,203.229z"/>
			<path style="fill:#DD2641;" d="M373.664,203.229c2.083-1.975,4.316-5.551,3.055-11.354c-2.165-9.96-3.082-10.982-5.609-7.964
				c-2.303,2.75-8.618,12.208-2.511,19.317H373.664z"/>
			<path style="fill:#2E7F67;" d="M363.778,204.172c2.923,5.421,6.201,2.325,8.228,0H363.778z"/>
			<path style="fill:#F03247;" d="M369.752,204.755c0,0,2.738-8.374-6.214-13.246c-8.953-4.872-10.325-4.846-9.693-0.961
				C354.477,194.434,358.063,207.264,369.752,204.755z"/>
			<path style="fill:#F1514A;" d="M366.948,204.925c0,0-3.307-8.166,5.289-13.642c8.597-5.475,9.968-5.544,9.604-1.624
				C381.478,193.579,378.781,206.626,366.948,204.925z"/>
		</g>
		<g>
			<g>
				<g>
					<path style="fill:#4661AF;" d="M126.529,397.387h105.304c15.391,0,27.867-12.477,27.867-27.867V121.622
						c0-15.391-12.477-27.867-27.867-27.867H126.529c-15.391,0-27.867,12.477-27.867,27.867V369.52
						C98.662,384.911,111.138,397.387,126.529,397.387z"/>
				</g>
				<path style="fill:#6088EA;" d="M232.106,397.387H126.256c-15.24,0-27.595-12.355-27.595-27.595V121.349
					c0-2.948,0.467-5.787,1.324-8.451c-3.819,4.734-6.11,10.753-6.11,17.309v248.443c0,15.24,12.355,27.595,27.595,27.595H227.32
					c12.292,0,22.701-8.039,26.271-19.144C248.532,393.372,240.79,397.387,232.106,397.387z"/>
				<g>
					<path style="fill:#FFFFFF;" d="M120.794,113.073h27.588c0,2.09,1.694,3.784,3.784,3.784h49.851c2.09,0,3.783-1.694,3.783-3.784
						h31.768c4.485,0,8.122,3.636,8.122,8.122v249.097c0,4.485-3.636,8.122-8.122,8.122H120.794c-4.485,0-8.122-3.636-8.122-8.122
						V121.195C112.673,116.709,116.309,113.073,120.794,113.073z"/>
				</g>
				<g>
					<path style="fill:#FFFFFF;" d="M120.794,113.073h27.588c0,2.09,1.694,3.784,3.784,3.784h49.851c2.09,0,3.783-1.694,3.783-3.784
						h31.768c4.485,0,8.122,3.636,8.122,8.122v249.097c0,4.485-3.636,8.122-8.122,8.122H120.794c-4.485,0-8.122-3.636-8.122-8.122
						V121.195C112.673,116.709,116.309,113.073,120.794,113.073z"/>
				</g>
				<path style="opacity:0.63;fill:#47A7E2;" d="M245.69,370.292V121.195c0-3.509-2.229-6.489-5.345-7.624L113.2,373.151
					c1.158,3.073,4.116,5.263,7.594,5.263h116.774C242.054,378.414,245.69,374.777,245.69,370.292z"/>
				<path style="opacity:0.63;fill:#47A7E2;" d="M242.286,249.354c-1.194-3.748-2.61-6.954-4.226-9.668
					c-3.561-5.98-9.955-9.589-16.799-9.835c-0.31-0.085-0.623-0.161-0.938-0.232c-3.559-1.631-7.734-1.314-11.602-0.273
					c-0.555,0.013-1.111,0.042-1.669,0.1l-1.163,0.12l1.748-9.163c9.784,0.502,18.341,0.075,17.183-6.825l-1.877-11.184
					c2.176-0.327,6.186-2.073,5.892-6.362c-0.303-4.437-5.272-5.973-7.002-6.374l-1.121-5.605c-0.078-0.395-0.429-0.653-0.813-0.658
					l-0.17-0.972c8.517-7.374,13.939-17.568,4.961-22.648c-11.054-6.254-15.618-18.613-28.737-16.412
					c-3.35,0.562-6.42,1.794-9.101,3.531c-2.295-0.132-4.639-0.021-7.001,0.376c-5.707,0.958-10.786,3.409-14.919,6.879
					c-0.091,0.065-0.177,0.141-0.264,0.217c-0.034,0.029-0.068,0.058-0.102,0.087c-0.014,0.013-0.03,0.023-0.044,0.037
					c-0.007,0.007-0.013,0.014-0.02,0.021c-1.233,1.073-2.372,2.242-3.418,3.488c-19.597,22.26-23.081,85.863-23.162,101.24
					l-0.156,29.439c-0.042,7.994,4.567,19.902,13.441,20.064c0.816,7.051,1.183,13.847,0.636,19.927
					c-1.09,12.12-17.326,33.494-29.082,49.895h102.316c0.386-8.287,0.456-16.239,0.064-19.494
					c-1.601-13.306-6.364-23.994-4.915-33.827l7.737,11.478c6.259,10.246,13.606,21.125,19.132,28.381
					c1.196,1.571,2.139,3.322,2.798,5.183c0.811,2.292,3.745,9.343,5.894,13.672c2.482-4.141,3.912-8.986,3.912-14.165v-10.046
					c-0.886-0.192-1.609-0.28-2.101-0.318c-0.054-0.136-0.106-0.27-0.163-0.407c-0.084-0.203-0.177-0.419-0.272-0.637
					c0.002,0.001,0.004,0.001,0.005,0.002l-23.354-52.111c1.855-1.59,3.322-3.114,4.463-4.576c0.015-0.019,0.03-0.038,0.044-0.057
					c0.516-0.665,0.966-1.318,1.354-1.957c0.006-0.01,0.012-0.019,0.018-0.029c0.195-0.322,0.374-0.642,0.539-0.958
					c0.002-0.003,0.003-0.006,0.005-0.009c0.329-0.634,0.599-1.254,0.817-1.863c0.004-0.012,0.009-0.025,0.013-0.038
					c0.324-0.915,0.531-1.803,0.639-2.664c0.001-0.005,0.001-0.011,0.002-0.016c0.071-0.572,0.1-1.132,0.092-1.68
					c0-0.007,0-0.015,0-0.022c-0.005-0.28-0.018-0.558-0.041-0.832l17.94-1.949v-21.056l-16.412-1.045
					C244.666,262.656,244.598,256.609,242.286,249.354z"/>
				<g>
					<g>
						<path style="fill:#41210E;" d="M216.059,201.894c-0.276,6.966-11.895,14.617-19.194,14.284
							c-7.299-0.333-15.522-1.29-15.09,8.609c0.284,6.515,5.143,8.175,7.561,13.303c2.663,5.648,2.135,10.008,1.536,15.775
							c-0.213,2.051-0.427,4.103-0.64,6.154c-0.271,2.606-0.539,5.305-1.616,7.726c-1.057,2.377-2.917,4.556-4.456,6.641
							c-2.724,3.688-5.644,7.236-8.748,10.611c-1.185,1.288-2.583,2.016-3.856,3.158c-1.614,1.448-3.004,2.901-5.048,3.766
							c-12.124,5.125-18.468-9.648-18.419-19.024c0.052-9.813,0.104-19.626,0.156-29.439c0.085-15.975,3.838-84.003,25.517-103.65
							c4.027-3.649,2.54,54.059,7.839,52.823c5.329-1.242,25.904-7.846,30.297-2.503C215.16,194.098,216.189,198.6,216.059,201.894z
							"/>
					</g>
				</g>
				<g>
					<g>
						<path style="fill:#41210E;" d="M175.516,143.369c-0.447-2.794-1.005-4.241-1.754-3.562c-1.16,1.051-2.266,2.249-3.326,3.562
							H175.516z"/>
						<path style="fill:#2D1003;" d="M161.843,217.419c-10.327,0-12.733,5.344-13.264,15.658c-0.227,4.407-0.322,7.98-0.335,10.379
							c-0.052,9.813-0.104,19.626-0.156,29.439c-0.049,9.375,6.295,24.148,18.419,19.024c2.045-0.864,3.434-2.318,5.048-3.766
							c1.273-1.142,2.671-1.87,3.856-3.158c3.105-3.375,6.024-6.923,8.748-10.611c1.54-2.085,3.399-4.264,4.456-6.641
							c1.077-2.421,1.345-5.12,1.616-7.726c0.213-2.051,0.426-4.103,0.64-6.154c0.599-5.766,1.127-10.127-1.536-15.775
							c-2.419-5.128-7.277-6.788-7.561-13.303c-0.431-9.9,7.792-8.943,15.09-8.609c2.103,0.096,4.564-0.473,7.01-1.496
							L161.843,217.419z"/>
					</g>
				</g>
				<g>
					<path style="fill:#24469B;" d="M158.474,111.654h37.63c2.09,0,3.784-1.694,3.784-3.784l0,0c0-2.09-1.694-3.784-3.784-3.784
						h-37.63c-2.09,0-3.784,1.694-3.784,3.784l0,0C154.691,109.96,156.385,111.654,158.474,111.654z"/>
				</g>
				<g>
					<path style="fill:#F4D3B2;" d="M289.633,364.771c-1.419-0.841-5.429-4.025-7.678-6.652c-0.586-1.094-1.487-2.216-2.426-3.555
						c0.651,0.207,2.485,0.78,4.432,1.309c2.428,0.66,5.637-1.112,5.094-3.067c-0.315-1.134-2.277-1.538-3.98-1.582
						c-1.703-0.044-3.804-1.094-7.288-3.681c-4.23-3.142-8.265-3.773-9.865-3.899c-0.054-0.136-0.106-0.27-0.163-0.407
						c-0.084-0.203-0.177-0.419-0.272-0.637c0.002,0.001,0.004,0.001,0.005,0.002l-26.582-59.314
						c-1.54-3.548-2.563-7.298-3.036-11.137l0.088-48.684c-3.884-13.254-14.744-11.737-22.612-8.686
						c-7.868,3.051-11.12,14.793-9.588,20.234l10.214,48.334c1.229,4.364,3.031,8.547,5.357,12.438l16.954,25.15
						c6.259,10.246,13.606,21.125,19.132,28.381c1.196,1.571,2.139,3.322,2.798,5.184c1.188,3.358,3.104,6.711,4.976,8.878
						c0.767,0.888,2.671,4.546,3.446,5.772c0.028,0.095,0.041,0.193,0.084,0.273c3.244,6.059,7.134,9.728,8.006,8.689
						c0.872-1.039,0.362-2.414-0.65-3.826c-0.625-0.873-1.906-3.212-2.923-5.577c0.017-0.009,0.034-0.018,0.051-0.027
						c0.172,0.335,0.347,0.644,0.509,0.906c4.291,6.948,10.04,8.462,10.673,7.122c0.633-1.34-0.266-2.668-1.698-3.903
						c-0.841-0.725-2.653-2.702-4.282-4.826c4.973,5.092,10.123,5.557,10.518,4.235c0.425-1.419-0.663-2.598-2.265-3.604
						c-0.607-0.381-1.694-1.219-2.906-2.263c4.214,3.017,7.93,3.087,8.235,1.965C292.378,366.887,291.26,365.736,289.633,364.771z"
						/>
				</g>
				<g>
					<path style="fill:#F4A890;" d="M238.523,321.322c2.011-4.217,4.686-8.08,7.693-11.087c1.499-1.499,3.16-2.868,4.93-4.108
						l-10.235-22.839c-1.54-3.548-2.563-7.298-3.036-11.137l0.088-48.684c-3.884-13.254-14.744-11.737-22.612-8.686
						c-7.868,3.051-11.12,14.793-9.588,20.234l10.214,48.334c1.229,4.364,3.031,8.547,5.357,12.438l16.954,25.15
						C238.365,321.066,238.445,321.194,238.523,321.322z"/>
				</g>
				<g>
					<path style="fill:#E0777F;" d="M247.267,261.151L247.267,261.151c-0.253-0.742-0.497-1.489-0.723-2.242
						c-1.115-3.72-12.588-2.608-13.322-6.411c-0.892-4.629-10.682,1.303-12.212-3.128c-0.888-1.706,4.066-11.938,3.044-13.566
						c-0.267-0.139-1.642-2.604-1.916-2.737c-6.4-3.103-3.889-12.657-7.223-19.016l-41.339,4.113
						c-6.588,0.732-16.796,2.953-19.032,15.663c-3.085,17.533,9.852,54.246,7.621,79.058c-1.499,16.673-31.679,50.875-39.404,65.527
						H234.26c1.234-11.332,1.856-29.716,1.205-35.126c-2.566-21.329-13.261-35.931,6.538-51.067
						C261.821,277.07,246.254,267.71,247.267,261.151z"/>
				</g>
				<g>
					<path style="fill:#C65563;" d="M246.811,287.977c10.865-11.357,1.924-19.123,0.574-24.875l-8.009-1.398
						c-4.301-0.802-8.463-2.219-12.361-4.206l-45.574-30.911c-14.882-4.753-20.337,6.387-22.459,15.693
						c-2.122,9.307,6.823,19.79,12.893,21.799l51.77,21.034c4.869,1.611,9.93,2.571,15.05,2.855L246.811,287.977z"/>
				</g>
				<g>
					<path style="fill:#C65563;" d="M128.266,369.625c-2.297,3.355-4.216,6.347-5.503,8.788H234.26
						c0.287-2.632,0.54-5.646,0.752-8.788H128.266z"/>
				</g>
				<g>
					<path style="fill:#F4D3B2;" d="M228.686,214.164l-35.295,3.657c0,0,23.71,11.097,23.904,34.814
						c0.194,23.717,47.172,18.153,35.314-19.065c-1.194-3.748-2.61-6.955-4.226-9.668
						C244.322,217.084,236.579,213.346,228.686,214.164z"/>
				</g>
				<g>
					<path style="fill:#E0777F;" d="M223.942,213.43l-35.295,3.657c0,0,23.71,11.097,23.904,34.814
						c0.194,23.717,47.172,18.153,35.314-19.065c-1.194-3.748-2.61-6.954-4.226-9.668
						C239.578,216.351,231.835,212.613,223.942,213.43z"/>
				</g>
				<g>
					<path style="fill:#F4D3B2;" d="M217.374,213.662l-35.295,3.657c0,0,23.71,11.097,23.904,34.814
						c0.194,23.717,47.172,18.153,35.314-19.065c-1.194-3.748-2.61-6.954-4.226-9.668
						C233.01,216.582,225.268,212.844,217.374,213.662z"/>
				</g>
				<path style="fill:#F4A890;" d="M234.804,222.331c1.616,2.713,5.788,24.98-8.713,26.895c-1.032,0.136,16.011,1.675,16.029,2.64
					c1.566-4.97,1.588-11.229-0.823-18.798c-1.194-3.748-2.61-6.954-4.226-9.668c-2.891-4.854-7.651-8.136-13-9.335
					C228.502,215.556,232.437,218.356,234.804,222.331z"/>
				<g>
					<path style="fill:#F4A890;" d="M243.035,247.467l-4.819-0.307c-4.362-0.329-8.655-1.283-12.746-2.833l-28.16-14.901
						c4.657,5.567,8.594,13.102,8.672,22.708C206.148,272.354,240.313,271.285,243.035,247.467z"/>
				</g>
				<g>
					<g>
						<g>
							<polygon style="fill:#F5CBAF;" points="214.581,222.331 194.613,217.018 204.656,187.277 220.683,190.334 							"/>
						</g>
					</g>
					<g>
						<g>
							<g>
								
									<ellipse transform="matrix(0.8562 -0.5167 0.5167 0.8562 -55.7861 124.294)" style="fill:#41210E;" cx="195.353" cy="162.345" rx="31.289" ry="31.289"/>
							</g>
						</g>
						<g>
							<g>
								<path style="fill:#41210E;" d="M235.013,143.992c14.208,8.039-7.646,28.892-20.764,31.094
									c-13.118,2.202-25.537-6.648-27.739-19.767c-2.202-13.118,6.648-25.537,19.766-27.739
									C219.394,125.379,223.958,137.738,235.013,143.992z"/>
							</g>
						</g>
						<g>
							<g>
								<path style="fill:#2D1003;" d="M235.013,143.992c-1.909-1.08-3.621-2.343-5.22-3.681
									c-0.298,10.471-5.813,21.935-12.987,29.109c-2.252,2.252-4.819,4.251-7.586,5.977c1.651,0.07,3.334-0.027,5.029-0.311
									C227.367,172.885,249.221,152.031,235.013,143.992z"/>
							</g>
						</g>
						<g>
							<g>
								<g>
									<path style="fill:#F5CBAF;" d="M177.224,189.904c-7.701-18.865,4.08-40.004,24.176-43.376l19.336-3.245
										c2.825-0.474,5.499,1.432,5.973,4.256l4.734,27.044l5.076,2.079c0.997,1.405,1.992,6.083,0.492,6.93l-3.884,2.193
										l2.016,12.01c2.343,13.961-35.086,1.423-41.983,8.307C191.113,208.144,177.224,189.904,177.224,189.904z"/>
								</g>
							</g>
						</g>
						<g>
							<g>
								<path style="fill:#FC758F;" d="M212.776,178.393c-0.016,1.005,2.561,1.86,5.755,1.91c3.194,0.05,5.796-0.724,5.812-1.729
									c0.016-1.005-2.561-1.86-5.755-1.91C215.393,176.614,212.791,177.389,212.776,178.393z"/>
							</g>
						</g>
						<g>
							<g>
								<path style="fill:#F4A890;" d="M226.702,147.536l1.712,9.747c-1.555,6.57-11.957,10.617-18.795,10.311
									c-0.892-0.04-2.045,0.077-2.733-0.474c-0.707-0.566-1.373-1.191-2.058-1.785c-0.692-0.601-1.417-1.219-2.302-1.458
									c-0.877-0.237-1.812-0.073-2.685,0.178c-2.033,0.583-3.931,1.631-5.506,3.042c-0.927,0.83-1.768,1.829-2.085,3.032
									c-0.444,1.681,0.2,3.45,0.973,5.007c0.645,1.3,1.388,2.552,2.219,3.742c1.087,1.555,2.631,2.393,3.877,3.811
									c0.432,0.491,0.894,1.057,1.544,1.131c0.808,0.093,1.68-0.749,2.46-0.427c1.139,0.471,0.655,2.034,0.432,2.925
									c-0.419,1.676-1.076,3.321-1.272,5.048c-0.446,3.921,1.376,7.137,1.721,10.948c0.267,2.949,0.523,5.999-0.42,8.807
									c-0.424,1.262-1.078,2.433-1.729,3.595c-0.338,0.605-0.686,1.22-1.198,1.687c-1.052,0.958-2.527,1.069-3.881,0.999
									c-1.903-0.098-1.334-0.615-1.703-2.128c-0.53-2.175-2.072-5.046-3.238-6.99c-1.3-2.35-2.849-4.278-4.669-6.254
									c-2.391-2.597-4.687-5.266-6.905-8.012c-0.96-1.188-2.657-2.679-3.243-4.114c-7.699-18.869,4.087-40.002,24.191-43.375
									l19.322-3.249C223.551,142.803,226.226,144.716,226.702,147.536z"/>
							</g>
						</g>
						<g>
							<g>
								<path style="fill:#41210E;" d="M217.012,174.592c0.047,0,0.092-0.004,0.14-0.012c0.457-0.077,0.765-0.508,0.689-0.964
									c-0.44-2.628,0.546-4.676,1.707-4.871c0.794-0.133,1.475,0.498,1.814,0.886c0.677,0.767,1.182,1.918,1.39,3.159
									c0.077,0.457,0.517,0.765,0.965,0.688c0.457-0.077,0.765-0.508,0.689-0.964c-0.263-1.563-0.897-2.98-1.786-3.991
									c-0.986-1.119-2.177-1.63-3.348-1.43c-2.303,0.387-3.658,3.373-3.084,6.799C216.256,174.301,216.61,174.592,217.012,174.592
									z"/>
							</g>
						</g>
						<g>
							<g>
								<path style="fill:#F4A890;" d="M200.414,176.766c0.193,0.254,0.446,0.428,0.821,0.418c0.903-0.024,0.567-0.831,0.46-1.466
									c-0.209-1.245-0.418-2.491-0.627-3.736c0.002,0.013-2.796,0.015-2.443,1.679c0.133,0.628,0.61,1.113,1.006,1.619
									C199.928,175.659,200.083,176.33,200.414,176.766z"/>
							</g>
						</g>
					</g>
				</g>
				<g>
					<g>
						<path style="fill:#41210E;" d="M159.501,212.693c0.17-0.059,0.386,0.682,0.558,0.626c4.659-2.448,9.628,0.7,15.011,0.903
							h0.274c0.708,0.002,1.407,0.035,2.105,0.073c3.572-1.289,7.339-1.864,11.304-1.715c3.656,0.003,4.742-3.495,6.599-3.184
							c0.159,0.027,3.088-2.374,3.242-2.326c0.187,0.058,0.388,1.461,0.575,1.522c0.307-1.487,2.083,2.652,2.449,1.193
							c0.681-2.715,0.426-4.103,0.64-6.154c0.599-5.766,1.127-10.127-1.536-15.774c-2.419-5.128-7.277-6.788-7.561-13.303
							c-0.431-9.9,7.792-8.943,15.09-8.609c7.299,0.333,18.918-7.318,19.194-14.284c0.131-3.294-0.223-9.952-3.486-13.923
							c-4.393-5.343-25.643,3.418-30.972,4.66c-5.299,1.235-14.266-7.501-18.141-3.691c-17.016,16.732-15.131,38.542-15.215,54.517
							C159.587,201.407,159.544,204.511,159.501,212.693z"/>
					</g>
				</g>
				<g>
					<path style="fill:#753D21;" d="M175.477,140.739c0.007-0.007,0.013-0.014,0.02-0.02c0.013-0.013,0.029-0.023,0.042-0.036
						c0.035-0.031,0.071-0.06,0.107-0.091c0.085-0.075,0.171-0.15,0.26-0.214c4.132-3.47,9.212-5.922,14.919-6.88
						c2.363-0.396,4.706-0.507,7.001-0.376c2.681-1.737,5.75-2.969,9.101-3.531c4.144-0.695,7.83-0.385,11.284,0.56
						c-3.305-2.176-7.019-3.396-11.934-2.571c-3.351,0.562-6.42,1.794-9.101,3.531c-2.295-0.132-4.638-0.021-7.001,0.376
						c-5.707,0.958-10.787,3.409-14.919,6.88c-0.09,0.064-0.175,0.139-0.26,0.214c-0.035,0.03-0.071,0.06-0.107,0.091
						c-0.014,0.013-0.029,0.023-0.042,0.036c-0.007,0.007-0.013,0.014-0.02,0.02c-2.629,2.289-4.844,5.005-6.577,8.011
						C171.105,144.294,174.094,141.943,175.477,140.739z"/>
				</g>
				<g>
					<path style="fill:#41210E;" d="M201.618,209.786c-3.024,12.792-29.383,8.546-29.383,8.546l-10.392-0.913l0.73-27.698
						l35.393-3.098L201.618,209.786z"/>
				</g>
				<g>
					<path style="fill:#41210E;" d="M233.125,186.623c0.041,0,0.083-0.002,0.124-0.009c2.173-0.322,6.202-2.066,5.908-6.365
						c-0.303-4.437-5.272-5.973-7.002-6.374l-1.121-5.605c-0.089-0.454-0.537-0.749-0.985-0.658
						c-0.454,0.091-0.748,0.532-0.657,0.985l1.341,6.719l0.573,0.094c0.059,0.01,5.909,1.016,6.178,4.953
						c0.263,3.823-4.289,4.564-4.483,4.594c-0.457,0.07-0.772,0.496-0.702,0.953C232.362,186.325,232.719,186.623,233.125,186.623z"
						/>
				</g>
				<g>
					<path style="fill:#FB4366;" d="M233.37,189.863c0,0-0.193,0.052-0.531,0.144c-0.37,0.108-0.883,0.273-1.434,0.46
						c-1.12,0.372-2.58,0.852-4.055,0.765c-0.363-0.036-0.73-0.08-1.075-0.193c-0.359-0.075-0.672-0.261-0.996-0.403
						c-0.271-0.193-1.366-0.987-0.935-0.108c0.297,0.607,1.064,0.988,1.637,1.277c0.382,0.193,0.795,0.315,1.217,0.424
						c1.711,0.376,3.429,0.084,4.614-0.108c0.57-0.088,1.045-0.162,1.377-0.214c0.348-0.037,0.547-0.059,0.547-0.059L233.37,189.863
						z"/>
				</g>
				<g>
					<path style="fill:#F4D3B2;" d="M257.592,256.503c18.7-0.256,45.565-1.878,55.454-0.96c0.167,0.016,0.329,0.035,0.493,0.052
						c0.97-1.535,3.729-5.24,9.103-7.817c4.427-2.122,6.585-3.671,7.527-5.352c0.942-1.681,2.381-3.432,3.681-3.149
						c2.242,0.488,2.324,4.633,0.383,6.715c-1.556,1.669-3.096,3.202-3.646,3.745c1.835-0.234,3.432-0.544,4.836-0.554
						c3.815-0.865,9.115-3.2,10.705-4.177c1.824-1.119,3.564-1.631,4.79-0.489c0.962,0.896-1.067,4.578-6.308,7.205
						c1.684-0.663,3.095-1.309,3.797-1.715c1.852-1.073,3.605-1.54,4.801-0.366c1.114,1.092-2.066,6.001-9.784,8.293
						c2.984-0.511,5.918-1.281,7.087-1.741c1.991-0.783,3.795-0.981,4.802,0.358c1.007,1.34-3.54,6.295-12.755,6.925
						c-0.348,0.024-0.749,0.036-1.175,0.031c0,0.022,0,0.043,0,0.065c2.903,0.229,5.918,0.181,7.122,0.015
						c1.947-0.268,3.591-0.053,4.172,1.367c0.58,1.421-5.143,3.379-12.916,3.431c-0.103,0.001-0.208-0.038-0.318-0.06
						c-1.635,0.129-6.299,0.106-7.593,0.405c-3.156,0.731-7.52,0.88-11.507,0.299c-2.21-0.322-4.459-0.302-6.662,0.067
						c-14.924,2.499-39.717,4.813-56.088,4.826V256.503z"/>
				</g>
				<g>
					<path style="fill:#F4D3B2;" d="M309.508,261.725c-0.574-4.186,0.421-3.768,2.762-6.25l-73.372-4.672
						c-4.362-0.329-8.655-1.283-12.746-2.833l-48.673-25.757c-15.311-3.102-19.519,8.566-20.614,18.049
						c-1.095,9.482,8.941,18.928,15.194,20.263l53.755,15.263c5.016,1.071,10.151,1.473,15.272,1.197l72.596-7.888
						C310.843,266.89,310.017,265.607,309.508,261.725z"/>
				</g>
				<g>
					<path style="fill:#C65563;" d="M144.132,347.358c36.23-21.89,23.031-56.494,13.714-77.803
						c2.626,14.782,5.464,30.617,4.321,43.331C161.398,321.435,153.088,334.591,144.132,347.358z"/>
				</g>
				<g>
					<g>
						<path style="fill:#F1514A;" d="M330.129,177.349c-10.584-4.437-14.027,8.954-14.972,14.391
							c-0.115,0.661-0.995,0.808-1.318,0.22c-2.661-4.834-10.27-16.38-18.837-8.743c-11.165,9.953,9.049,20.924,22.953,32.596
							c0.335,0.281,0.837,0.197,1.063-0.177C328.373,200.078,343.922,183.132,330.129,177.349z"/>
					</g>
				</g>
				<g>
					<g>
						<path style="fill:#F1514A;" d="M349.464,131.793c-5.098-4.436-9.496,2.415-11.029,5.28c-0.186,0.348-0.706,0.268-0.778-0.12
							c-0.594-3.194-2.716-11.054-8.916-8.367c-8.08,3.502,1.194,13.369,6.811,22.464c0.135,0.219,0.432,0.265,0.627,0.097
							C344.284,144.176,356.108,137.574,349.464,131.793z"/>
					</g>
				</g>
				<g>
					<g>
						<path style="fill:#F1514A;" d="M312.302,94.181c-4.225-1.971-5.838,3.41-6.308,5.602c-0.057,0.266-0.417,0.312-0.539,0.068
							c-1.002-2.005-3.906-6.814-7.506-3.851c-4.692,3.861,3.338,8.639,8.795,13.6c0.132,0.119,0.337,0.093,0.434-0.055
							C311.225,103.379,317.809,96.749,312.302,94.181z"/>
					</g>
				</g>
				<path style="fill:#2D1003;" d="M193.161,174.555c-0.271-6.219,2.874-8.153,7.059-8.649c0,0-12.957-2.209-11.573,21.371
					c0.796,13.556,2.243,24.083,3.331,30.591c4.653-1.214,8.581-3.6,9.64-8.083c0.681-2.715,0.426-4.103,0.64-6.154
					c0.599-5.766,1.127-10.127-1.536-15.774C198.303,182.73,193.444,181.069,193.161,174.555z"/>
				<path style="fill:#2D1003;" d="M202.744,165.758L202.744,165.758c1.793-0.019,3.679,0.104,5.506,0.187
					c7.02,0.32,18.032-6.746,19.108-13.484C222.209,162.062,202.744,165.758,202.744,165.758z"/>
				<path style="fill:#204191;" d="M198.414,392.653H159.36c-2.744,0-4.968-2.224-4.968-4.968l0,0c0-2.744,2.224-4.968,4.968-4.968
					h39.053c2.744,0,4.968,2.224,4.968,4.968l0,0C203.381,390.429,201.157,392.653,198.414,392.653z"/>
			</g>
			<g>
				<g>
					<g>
						<path style="fill:#1D389E;" d="M442.834,273.419c-2.049-1.025-2.68-2.759-2.443-5.36c0.236-2.601,6.464-2.891,6.464-2.891
							s5.202,2.812,4.808,3.6C451.268,269.557,442.834,273.419,442.834,273.419z"/>
					</g>
					<g>
						<path style="fill:#4661AF;" d="M623.522,397.387H518.217c-15.391,0-27.867-12.477-27.867-27.867V121.622
							c0-15.391,12.477-27.867,27.867-27.867h105.304c15.391,0,27.867,12.477,27.867,27.867V369.52
							C651.389,384.911,638.912,397.387,623.522,397.387z"/>
					</g>
					<g>
						<path style="fill:#FFFFFF;" d="M629.256,113.073h-27.588c0,2.09-1.694,3.784-3.784,3.784h-49.851
							c-2.09,0-3.784-1.694-3.784-3.784h-31.768c-4.486,0-8.122,3.636-8.122,8.122v249.097c0,4.485,3.636,8.122,8.122,8.122h116.774
							c4.485,0,8.122-3.636,8.122-8.122V121.195C637.378,116.709,633.742,113.073,629.256,113.073z"/>
					</g>
					<path style="opacity:0.63;fill:#47A7E2;" d="M637.378,370.292V121.195c0-3.509-2.229-6.489-5.345-7.624l-127.145,259.58
						c1.158,3.073,4.116,5.263,7.594,5.263h116.774C633.742,378.414,637.378,374.777,637.378,370.292z"/>
					<g style="opacity:0.54;">
						<path style="fill:#47A7E2;" d="M621.235,365.714c-0.545-10.933-17.88-46.285-25.745-63.659
							c-1.354-2.991-2.596-7.194-3.726-12.096c-4.101-1.624-7.701-4.105-10.802-7.443c-3.813-3.541-6.507-7.736-8.084-12.583
							c-2.448-4.659-3.57-9.681-3.367-15.063v-0.365c0.022-7.057,1.801-13.635,5.338-19.733c1.54-1.993,3.08-3.986,4.62-5.98
							c-2.035-1.679-4.552-2.8-7.329-3.108l-53.536-5.326c-5.615-0.559-11.273,0.494-16.312,3.036l-11.532,5.817v40.899l7.69-1.44
							c0.156,1.007,0.332,2.078,0.528,3.198c-2.567,0.997-5.272,1.643-8.628,1.635v25.185l7.639,0.959l7.161-1.448
							c4.107,16.991,2.846,37.824,5.103,52.606c1.331,8.721,0.828,16.971,3.645,20.105c0.716,0.797,1.769,1.489,3.109,2.085
							l-0.167,5.417h105.3l-5.456-10.69C619.597,366.937,621.261,366.239,621.235,365.714z"/>
					</g>
					<g>
						<path style="fill:#24469B;" d="M591.576,111.654h-37.63c-2.09,0-3.784-1.694-3.784-3.784l0,0c0-2.09,1.694-3.784,3.784-3.784
							h37.63c2.09,0,3.784,1.694,3.784,3.784l0,0C595.36,109.96,593.666,111.654,591.576,111.654z"/>
					</g>
					<g>
						<g>
							<g>
								<path style="fill:#122B7C;" d="M397.404,245.308c7.334,6.016,10.689,14.747,8.877,22.446
									c-0.169,0.717-1.111,0.894-1.548,0.301c-0.916-1.24-2.486-3.712-5.03-8.622c-3.184-6.145-3.833-10.849-3.906-13.333
									C395.77,245.259,396.753,244.775,397.404,245.308z"/>
							</g>
							<g>
								<g>
									<path style="fill:#2E7F67;" d="M370.226,248.984c0.202,0,0.382,0.032,0.568,0.056c-3.383-14.535-3.13-30.347-2.6-42.661
										c-0.647-0.033-1.286-0.102-1.91-0.225c-0.536,12.38-0.805,28.31,2.586,43.071
										C369.275,249.082,369.718,248.984,370.226,248.984z"/>
									<g>
										<path style="fill:#F4D3B2;" d="M370.838,263.765c2.097-0.563,4.735-1.487,6.209-2.542c0.062-0.044,0.12-0.088,0.175-0.132
											c0.055-0.04,0.109-0.084,0.156-0.123c0.109-0.091,0.203-0.182,0.293-0.272c0.346-0.357,0.537-0.73,0.513-1.101
											c-0.01-0.15-0.031-0.288-0.059-0.422c-0.338-1.587-1.895-2.123-2.558-1.982c0.86-1.1,0.983-1.82,0.394-3.115l-0.004-0.004
											c-0.403-0.37-0.793-0.779-1.164-1.207c-0.949-1.107-1.781-2.354-2.466-3.539c-1.444-2.492-2.252-4.695-2.252-4.695
											c-2.648,3.805-6.357,5.53-8.885,6.039c-1.477,0.296-1.868-1.049-2.09-1.408c-0.605-0.975,1.926-2.271,3.363-5.283
											c1.44-3.013,2.159-3.799,10.015-4.756c8.537-1.042,10.926,2.423,13.747,4.654c1.857,1.468,2.915,2.318,5.99,2.619
											c0.881,0.086,9.162-0.059,15.524-0.276c1.086-0.037,1.998,0.808,2.044,1.894l0.479,11.303
											c0.045,1.072-0.772,1.985-1.842,2.058c-6.342,0.43-14.955,0.967-16.419,1.352c-2.288,0.601-4.781,1.283-7.33,1.653
											C379.257,265.265,376.413,265.409,370.838,263.765z"/>
									</g>
									<g>
										<path style="fill:#2E7F67;" d="M380.803,277.366l-7.096-18.651c-0.356-0.936-0.684-1.886-1-2.842
											c-0.458,0.407-1.035,0.703-1.742,0.825c0.303,0.906,0.612,1.81,0.95,2.699l7.096,18.651
											c0.145,0.383,0.509,0.618,0.896,0.618c0.113,0,0.228-0.02,0.341-0.063C380.743,278.415,380.991,277.861,380.803,277.366z"
											/>
									</g>
									<g>
										<path style="fill:#16563F;" d="M374.917,267.286c0.602-0.219,1.206-0.428,1.813-0.626l-3.022-7.945
											c-0.356-0.936-0.684-1.886-1-2.842c-0.458,0.407-1.035,0.703-1.742,0.825c0.303,0.906,0.612,1.81,0.95,2.699
											L374.917,267.286z"/>
									</g>
									<g>
										<path style="fill:#F3A68D;" d="M409.784,248.114c-0.046-1.085-0.958-1.931-2.044-1.894
											c-3.546,0.121-7.685,0.22-10.81,0.269c1.013,3.448,1.565,7.043,1.724,10.589c0.074,1.664-0.029,3.372-0.288,5.091
											c3.132-0.237,6.878-0.479,10.054-0.694c1.07-0.073,1.887-0.986,1.842-2.058L409.784,248.114z"/>
									</g>
									<g>
										<path style="fill:#F3A68D;" d="M402.302,249.87c3.427-0.123,5.629-0.198,7.566-0.264c1.086-0.037,1.998,0.808,2.044,1.894
											l0.479,11.303c0.046,1.072-0.771,1.985-1.842,2.058c-1.416,0.096-1.882,0.158-4.259,0.307
											C406.144,262.232,403.486,251.887,402.302,249.87z"/>
									</g>
									<g>
										<path style="fill:#F4D3B2;" d="M372.328,249.325c-1.444-2.492-2.252-4.695-2.252-4.695
											c-2.648,3.805-6.357,5.53-8.885,6.039c0.039,0.201,0.46,0.285,1.114,0.28
											C365.128,250.928,372.328,249.325,372.328,249.325z"/>
									</g>
									<g>
										<path style="fill:#F4D3B2;" d="M374.794,252.864c-0.949-1.107-1.781-2.354-2.466-3.539c0,0-7.201,1.602-10.023,1.624
											c-0.636,1.595-0.968,3.771,1.511,4.606C366.296,256.39,374.822,254.585,374.794,252.864z"/>
									</g>
									<g>
										<path style="fill:#F4D3B2;" d="M375.006,257.853c0.212-0.238,0.398-0.457,0.559-0.663l0.004,0
											c0.86-1.101,0.983-1.82,0.394-3.115l-0.004-0.004c-0.403-0.37-0.793-0.779-1.164-1.207
											c0.028,1.721-8.499,3.526-10.978,2.691c-1.051,1.831-0.023,3.9,1.975,4.38
											C367.782,260.415,373.66,259.368,375.006,257.853z"/>
									</g>
									<g>
										<path style="fill:#F4D3B2;" d="M369.677,264.049c0.358-0.079,0.748-0.175,1.161-0.286
											c2.439-0.652,5.605-1.798,6.834-3.068c0.082-0.455,0.221-0.995,0.454-1.523c-0.338-1.587-1.895-2.123-2.558-1.982
											l-0.004,0c-0.161,0.206-0.347,0.425-0.559,0.663c-1.346,1.516-7.224,2.562-9.215,2.083
											C364.88,261.76,366.604,264.744,369.677,264.049z"/>
									</g>
									<g>
										<path style="fill:#F3A68D;" d="M371.737,263.512c1.396-0.206,2.797-0.391,4.096-0.975
											c0.296-0.133,0.583-0.257,0.885-0.377c0.184-0.073,0.407-0.142,0.567-0.026c0.154,0.112,0.164,0.334,0.159,0.524
											c-0.009,0.383-0.019,0.765-0.028,1.148c0.112,0.026,0.228-0.046,0.29-0.142c0.062-0.097,0.082-0.214,0.103-0.327
											c0.083-0.466,0.191-0.927,0.322-1.382c0.145-0.501,0.444-1.022,0.685-1.487c0.176-0.34,0.376-0.624,0.603-0.928
											c1.946-2.609,4.479-3.093,5.566-3.176c-1.401,0.029-2.951,0.012-4.577-0.099c-1.641-0.115-3.136-0.976-4.447-2.188
											c0.589,1.295,0.465,2.015-0.394,3.115c0.663-0.141,2.22,0.395,2.558,1.982c0.028,0.134,0.049,0.272,0.059,0.422
											c0.023,0.371-0.168,0.744-0.514,1.101c-0.09,0.09-0.184,0.181-0.293,0.272c-0.047,0.04-0.102,0.083-0.157,0.123
											c-0.055,0.044-0.113,0.087-0.175,0.132C375.777,262.13,373.646,262.943,371.737,263.512z"/>
									</g>
									<g>
										<path style="fill:#F3A68D;" d="M364.703,249.365c-0.586,0.278-1.196,0.523-1.76,0.858c1.168-0.181,2.305-0.558,3.35-1.111
											c0.731-0.387,1.428-0.863,2.226-1.08c0.599-0.163,1.229-0.172,1.85-0.18c0.132-0.002,0.269-0.003,0.391,0.05
											c0.638,0.274,0.492,1.309,0.882,1.732c0.098,0.106,0.266,0.116,0.404,0.074c1.239-0.374,0.293-2.171-0.066-2.808
											c-0.213-0.378-0.371-0.785-0.588-1.162c-0.177-0.307-0.747-0.752-0.761-1.064c-0.068,0.025-0.076-0.101-0.129-0.149
											c-0.022-0.02-0.053-0.025-0.082-0.028c-0.417-0.047-0.467,0.218-0.63,0.494c-0.165,0.279-0.417,0.578-0.628,0.827
											c-0.443,0.522-0.921,1.013-1.43,1.47c-0.705,0.632-1.47,1.197-2.283,1.685
											C365.207,249.117,364.957,249.245,364.703,249.365z"/>
									</g>
									<g>
										<path style="fill:#F3A68D;" d="M373.017,254.317c1.075-0.448,1.787-0.952,1.777-1.452
											c-0.949-1.107-1.781-2.354-2.466-3.539c0,0-0.06,0.014-0.168,0.037c-0.026,0.005-0.059,0.014-0.093,0.019
											c-0.145,0.032-0.35,0.075-0.604,0.131c-0.071,0.014-0.145,0.033-0.227,0.047c-0.156,0.033-0.328,0.07-0.514,0.108
											c-0.045,0.009-0.093,0.019-0.142,0.029c-0.045,0.009-0.093,0.019-0.146,0.029c-0.097,0.019-0.197,0.042-0.302,0.062
											c-0.026,0.005-0.052,0.01-0.078,0.015c-0.056,0.014-0.112,0.023-0.172,0.034c-0.395,0.081-0.828,0.163-1.275,0.249
											c-0.119,0.024-0.239,0.048-0.358,0.068c-0.205,0.039-0.414,0.074-0.623,0.113c-0.101,0.019-0.209,0.039-0.314,0.055
											c-0.5,0.089-1.008,0.174-1.501,0.252c-0.135,0.025-0.265,0.041-0.396,0.062c-0.198,0.031-0.392,0.058-0.583,0.085
											c-0.127,0.017-0.254,0.033-0.378,0.05c-0.187,0.023-0.37,0.046-0.546,0.064c-0.116,0.016-0.232,0.029-0.344,0.037
											c-0.056,0.006-0.112,0.012-0.169,0.015c-0.064,0.01-0.127,0.013-0.191,0.019c1.805,0.612,7.795-0.71,8.675,0.099
											C372.6,251.665,373.422,253.386,373.017,254.317z"/>
									</g>
									<g>
										<path style="fill:#F3A68D;" d="M373.825,258.648c0.516-0.244,0.93-0.509,1.181-0.794c0.212-0.238,0.398-0.457,0.559-0.663
											l0.004,0c0.86-1.1,0.983-1.82,0.394-3.115l-0.004-0.004c-0.403-0.37-0.793-0.779-1.164-1.207
											c0.01,0.5-0.702,1.004-1.777,1.452c-2.125,0.883-5.669,1.538-7.88,1.443c4.214,0.671,8.322-0.781,8.834-0.581
											C374.48,255.376,375.675,257.397,373.825,258.648z"/>
									</g>
									<g>
										<path style="fill:#F3A68D;" d="M377.047,261.223c0.062-0.044,0.12-0.088,0.175-0.132c0.055-0.04,0.106-0.083,0.157-0.123
											c0.109-0.091,0.203-0.182,0.293-0.272c0.346-0.357,0.537-0.73,0.514-1.101c-0.01-0.15-0.031-0.288-0.059-0.422
											c-0.338-1.587-1.895-2.123-2.558-1.982l-0.004,0c-0.16,0.206-0.347,0.424-0.559,0.663
											c-0.251,0.285-0.665,0.551-1.181,0.794c-0.048,0.025-0.1,0.049-0.155,0.071c-0.159,0.074-0.325,0.142-0.503,0.209
											c-0.115,0.046-0.233,0.089-0.355,0.128c-0.141,0.051-0.285,0.099-0.434,0.142c-0.226,0.07-0.46,0.136-0.698,0.199
											c-0.413,0.111-0.841,0.209-1.274,0.291c-0.246,0.048-0.489,0.092-0.735,0.133c-0.642,0.103-1.271,0.174-1.853,0.206
											c-0.172,0.015-0.345,0.022-0.51,0.022c-0.147,0.006-0.293,0.005-0.432,0.003c-0.015-0.003-0.034-0.002-0.049-0.002
											c2.748,0.515,5.244,0.409,7.696-0.725C376.979,258.184,377.047,261.223,377.047,261.223z"/>
									</g>
								</g>
							</g>
						</g>
					</g>
					<g>
						<polygon style="fill:#092363;" points="630.311,378.414 611.473,341.506 527.633,349.817 521.662,355.006 520.942,378.414 
													"/>
					</g>
					<g>
						<polygon style="fill:#051A44;" points="521.106,373.092 520.942,378.414 630.311,378.414 627.595,373.092 						"/>
					</g>
					<g>
						<path style="fill:#293DCC;" d="M599.822,294.536c-5.653-12.486-9.365-46.048-10.994-63.775
							c-0.607-6.601-5.767-11.864-12.355-12.596l-53.536-5.326c-5.615-0.559-11.273,0.494-16.312,3.036l-44.01,22.2
							c-5.256,2.592-11.013,4.006-16.871,4.145l-49.119,2.883c0,0,4.363,2.632,8.639,16.593c0.558,1.82,0.269,6.709,0.269,6.709
							l44.904,1.284c3.576,0.23,7.167-0.018,10.677-0.737l41.67-7.801c1.013,6.559,2.82,15.526,6.047,26.973
							c4.91,17.415,3.385,39.633,5.756,55.163c1.331,8.721,0.828,16.971,3.645,20.105c11.405,12.688,107.535-1.221,107.337-5.197
							C625.022,347.262,607.688,311.91,599.822,294.536z"/>
					</g>
					<g>
						<g>
							<path style="fill:#1D389E;" d="M589.015,232.768c-1.053-0.389-2.149-0.758-3.285-1.126l-5.286,4.578l-1.194,0.966
								l-62.106,20.975c-5.737,2.201-9.573,4.794-13.791,6.433c1.079,6.143,2.781,13.969,5.477,23.531
								c0.257,0.913,0.493,1.841,0.716,2.778l84.783-17.142C591.85,260.119,590.069,243.911,589.015,232.768z"/>
						</g>
					</g>
					<g>
						<path style="fill:#1D389E;" d="M502.014,250.911c-0.354-1.961-0.584-5.499-0.672-7.465
							c-0.377-8.416,3.338-17.852,9.197-23.712c2.819-2.819,6.271-5.13,10.016-6.813v-0.219c-4.821-0.09-9.604,0.991-13.93,3.173
							l-44.01,22.2c-5.256,2.592-11.013,4.006-16.871,4.145l-49.119,2.883c0,0,4.363,2.632,8.639,16.593
							c0.558,1.82,0.269,6.709,0.269,6.709l44.904,1.284c3.576,0.23,7.167-0.018,10.677-0.737l33.788-6.326
							C496.1,257.908,499.119,254.663,502.014,250.911z"/>
					</g>
					<g>
						<path style="fill:#122B7C;" d="M501.239,247.617c0,0-21.125,14.011-34.841,17.036c-13.715,3.025-51.711,4.161-51.711,4.161
							l0,0l35.749,0.875c3.576,0.23,7.167-0.018,10.677-0.737l41.67-7.801C501.712,243.754,501.239,247.617,501.239,247.617z"/>
					</g>
					<g>
						<path style="fill:#1D389E;" d="M622.499,346.31c-6.213-8.777-19.071-24.32-25.17-31.613c-2.222-2.656-3.901-5.72-4.949-9.02
							l-12.946-47.164l11.355-7.558c1.081,4.578,7.747,40.748,9.034,43.581C605.754,307.631,617.059,330.938,622.499,346.31z"/>
					</g>
					<g>
						<g>
							<path style="fill:#F4D3B2;" d="M541.116,214.596c-2.097,3.698-5.365,6.755-9.176,8.708l2.41,9.668
								c0.162,0.652,0.853,1.016,1.485,0.789c1.817-0.651,5.517-1.769,9.503-1.769c4.759,0,9.227-2.292,12.003-6.158l4.75-8.485
								L541.116,214.596z"/>
						</g>
					</g>
					<g>
						<path style="fill:#1D389E;" d="M538.839,211.357l-11.309,9.092c-0.294,0.237-0.493,0.572-0.558,0.944l-1.433,8.13
							l16.729-9.889L538.839,211.357z"/>
					</g>
					<g>
						<path style="fill:#152E7C;" d="M533.868,225.174l-6.056-3.884c-0.352-0.226-0.82-0.02-0.892,0.391l-1.751,9.938
							c-0.093,0.527,0.512,0.892,0.935,0.564l16.163-12.549l-7.743,5.524C534.329,225.297,534.07,225.303,533.868,225.174z"/>
					</g>
					<g>
						<path style="fill:#1D389E;" d="M527.218,221.072l6.873,12.138c0.222,0.392,0.803,0.34,0.952-0.085l4.032-11.52
							L527.218,221.072z"/>
					</g>
					<g>
						<polygon style="fill:#F4D3B2;" points="536.876,228.373 553.934,219.624 551.739,184.612 534.202,185.711 						"/>
					</g>
					<g>
						<path style="fill:#F3A68D;" d="M543.841,209.532c1.723-1.668,3.434-3.352,5.175-5c1.243-1.177,3.025-2.583,3.612-4.305
							c-5.745-0.066-11.649,0.371-17.495,0.351l1.035,16.515C538.661,214.51,541.259,212.032,543.841,209.532z"/>
					</g>
					<g>
						<g>
							
								<ellipse transform="matrix(0.9703 -0.2418 0.2418 0.9703 -21.8327 139.1891)" style="fill:#08063F;" cx="556.204" cy="158.551" rx="31.676" ry="31.676"/>
						</g>
						<path style="fill:#08063F;" d="M560.82,127.213c-2.908-0.428-5.779-0.438-8.561-0.09c-7.14-3.378-18.774-2.689-24.476,2.86
							c-2.365,1.062-4.39,2.557-5.779,4.509c-6.448,9.062-2.747,20.051,3.525,31.991c3.097,11.954,13.074,21.493,26.059,23.406
							c17.307,2.549,33.404-9.414,35.953-26.722C590.091,145.86,578.127,129.763,560.82,127.213z"/>
						<path style="fill:#26269B;" d="M522.004,136.291c1.389-1.952,3.414-3.446,5.779-4.509c5.702-5.549,17.337-6.238,24.476-2.86
							c2.781-0.348,5.653-0.338,8.561,0.09c15.443,2.275,26.621,15.336,27.042,30.418c0.459-15.831-10.988-29.853-27.042-32.217
							c-2.908-0.428-5.779-0.438-8.561-0.09c-7.14-3.378-18.774-2.689-24.476,2.86c-2.365,1.062-4.39,2.557-5.779,4.509
							c-2.559,3.596-3.515,7.497-3.351,11.639C518.802,142.655,519.819,139.362,522.004,136.291z"/>
						<g>
							<g>
								<path style="fill:#F4D3B2;" d="M567.898,181.015c1.124-1.613,2.153-3.285,3.023-5.05c3.561-7.219,4.232-15.529-0.961-21.877
									c-5.05-6.172-12.311-10.263-20.197-11.424l-19.636-2.892c-2.869-0.423-5.537,1.56-5.959,4.429l-3.831,26.008l-5.417,2.549
									c-3.811,3.454-2.028,8.105-0.492,8.931l4.019,1.352l-1.442,12.077c-1.114,7.563,9.518,8.764,14.267,8.552
									c4.456-0.198,8.768-2.402,13.217-2.71c5.505-0.382,8.381-1.57,12.05-5.952c1.889-2.257,3.778-4.514,5.668-6.77
									C564.172,185.891,566.149,183.525,567.898,181.015z"/>
							</g>
						</g>
						<g>
							<path style="fill:#FC758F;" d="M527.077,175.792c-0.116,0.916,2.149,1.959,5.061,2.329c2.911,0.37,5.366-0.072,5.482-0.988
								c0.116-0.916-2.149-1.959-5.06-2.329C529.648,174.434,527.194,174.877,527.077,175.792z"/>
						</g>
						<g>
							<path style="fill:#F3A68D;" d="M524.173,144.198l-1.08,7.294c1.708,6.618,9.681,10.865,16.596,10.417
								c0.902-0.058,4.253,2.282,4.939,1.71c0.704-0.587,1.366-1.234,2.046-1.848c0.689-0.622,1.41-1.262,2.3-1.523
								c0.883-0.258,1.833-0.11,2.722,0.126c2.069,0.549,4.011,1.572,5.635,2.967c0.955,0.821,1.827,1.815,2.172,3.026
								c0.483,1.693-0.133,3.496-0.883,5.088c-0.626,1.329-1.352,2.611-2.17,3.832c-1.069,1.596-2.614,2.475-3.847,3.936
								c-0.427,0.506-0.883,1.088-1.54,1.176c-0.815,0.11-1.716-0.725-2.499-0.382c-1.143,0.5-0.621,2.072-0.378,2.969
								c0.458,1.688,1.156,3.34,1.39,5.082c0.544,4.06-1.255,7.88-1.631,11.799c-0.026,0.266-0.044,0.551,0.088,0.785
								c0.259,0.461,0.965,0.449,1.4,0.149c0.435-0.301,0.695-0.788,1.029-1.198c0.763-0.935,1.906-1.457,2.974-2.019
								c3.606-1.9,6.738-4.57,9.838-7.217c1.367-1.168,2.742-2.344,3.89-3.729c1.849-2.23,3.043-4.919,4.156-7.593
								c1.854-4.456,3.61-9.192,3.529-14.09c-0.069-4.143-2.168-7.485-4.72-10.656c-5.059-6.287-12.397-10.459-20.377-11.634
								l-19.623-2.896C527.267,139.344,524.597,141.333,524.173,144.198z"/>
						</g>
						<g>
							<path style="fill:#08063F;" d="M523.505,148.389c0.42,7.045,12.297,15.016,19.677,14.531
								c7.38-0.485,15.724-2.084,15.488,7.945c-0.052,2.213-0.317,4.67-1.576,6.529c-1.55,2.288-4.68,3.068-5.034,4.289
								c-1.387,4.78-2.299,9.721-2.93,14.655c-0.252,1.969-0.905,4.12,0.885,5.501c1.815,1.4,4.248,1.311,6.478,1.26
								c0.508-0.012,1.115-0.103,1.328-0.565c0.105-0.227,0.082-0.489,0.078-0.739c-0.032-2.06,1.374-3.903,3.062-5.084
								c1.688-1.181,3.666-1.86,5.514-2.771c5.509-2.716,9.88-8.059,13.151-13.155c3.951-6.157,3.151-16.302,1.37-23
								c-1.588-5.974-4.97-14.477-11.47-16.612c-8.682-2.851-38.825-8.864-42.047-4.778
								C524.256,140.48,523.306,145.057,523.505,148.389z"/>
						</g>
						<g>
							<path style="fill:#F3A68D;" d="M551.373,173.251c-0.19,0.261-0.442,0.443-0.822,0.44c-0.915-0.006-0.591-0.829-0.496-1.475
								c0.186-1.265,0.373-2.53,0.559-3.795c-0.002,0.014,2.83-0.042,2.506,1.65c-0.122,0.638-0.595,1.139-0.985,1.659
								C551.843,172.12,551.699,172.803,551.373,173.251z"/>
						</g>
						<g>
							<path style="fill:#08063F;" d="M548.889,162.155c-0.058,0.394-2.34,1.705-2.748,2.092c-0.689,0.654-1.298,1.385-1.775,2.208
								c-0.825,1.422-0.976,3.075-1.48,4.613c-0.245,0.747-0.43,1.382-1.341,1.34c-0.547-0.025-0.855-0.241-1.104-0.718
								c-0.56-1.075-0.267-2.753-0.427-3.924c-0.17-1.251-0.475-2.721-1.451-3.612c-2.495-2.279-1.763-7.243-1.763-7.243
								l12.469,2.662L548.889,162.155z"/>
						</g>
					</g>
					<g>
						<path style="fill:#41210E;" d="M518.054,183.254c-1.467,0-3.262-0.258-4.598-1.286c-1.176-0.905-1.806-2.234-1.874-3.952
							c-0.225-5.734,6.153-7.906,8.069-8.428l0.607-4.124c0.062-0.419,0.45-0.713,0.871-0.648c0.42,0.062,0.709,0.452,0.648,0.871
							l-0.759,5.16l-0.522,0.112c-0.077,0.016-7.588,1.689-7.38,6.996c0.049,1.257,0.466,2.171,1.272,2.793
							c2.054,1.582,5.913,0.753,5.952,0.744c0.418-0.092,0.825,0.169,0.916,0.583c0.092,0.413-0.168,0.824-0.581,0.916
							C520.585,183.012,519.473,183.254,518.054,183.254z"/>
					</g>
					<g>
						<path style="fill:#FFFFFF;" d="M519.096,189.485l-0.33,3.039c-0.077,0.712,0.447,1.344,1.16,1.403
							c2.225,0.184,6.735,0.192,8.834-2.401c0.629-0.777,0.132-1.95-0.863-2.053c-1.797-0.187-4.661-0.539-7.27-1.09
							C519.889,188.226,519.178,188.735,519.096,189.485z"/>
					</g>
					<g>
						<g>
							<path style="fill:#08063F;" d="M533.172,162.043c-0.252,0-0.499-0.124-0.645-0.351c-2.168-3.352-5.796-1.467-5.948-1.384
								c-0.373,0.2-0.839,0.059-1.039-0.313c-0.201-0.373-0.063-0.836,0.309-1.038c1.726-0.935,5.611-1.742,7.967,1.902
								c0.23,0.356,0.128,0.832-0.228,1.062C533.459,162.003,533.315,162.043,533.172,162.043z"/>
						</g>
					</g>
					<g>
						<path style="fill:#41210E;" d="M529.546,168.285c-0.364,1.658-1.289,2.864-2.066,2.694c-0.777-0.171-1.112-1.653-0.748-3.312
							s1.289-2.864,2.066-2.694C529.575,165.143,529.91,166.626,529.546,168.285z"/>
					</g>
					<g>
						<path style="fill:#1D389E;" d="M542.88,222.392l-7.698,11.074c-0.206,0.296,0.029,0.697,0.388,0.663l14.619-1.41l-2.292-9.426
							L542.88,222.392z"/>
					</g>
					<g>
						<path style="fill:#3E5AE5;" d="M543.044,222.225l12.475-10.301c0.405-0.334,0.983-0.356,1.411-0.053l5.982,4.227
							c0.521,0.368,0.648,1.088,0.284,1.613l-11.806,17.008c-0.48,0.691-1.512,0.66-1.949-0.059l-6.652-10.933
							C542.49,223.232,542.598,222.593,543.044,222.225z"/>
					</g>
					<g>
						<path style="fill:#122B7C;" d="M550.824,356.597c-2.091-6.899-4.639-22.58-7.337-39.183
							c-1.9-11.693-3.864-23.785-5.889-34.294c-5.16-26.784-2.797-48.338-1.349-50.032l-1.008-0.862
							c-2.071,2.423-3.899,25.436,1.054,51.146c2.021,10.489,3.985,22.571,5.883,34.255c2.704,16.648,5.259,32.372,7.376,39.355
							c1.418,4.677,2.323,8.574,2.899,11.555c0.448-0.012,0.9-0.026,1.351-0.04C553.224,365.463,552.299,361.462,550.824,356.597z"
							/>
					</g>
					<g>
						<path style="fill:#F4D3B2;" d="M492.458,256.503c-18.7-0.256-39.592-0.274-49.481,0.644c-0.167,0.016-0.329,0.035-0.493,0.052
							c-0.97-1.535-3.729-5.24-9.103-7.817c-4.427-2.122-6.585-3.671-7.527-5.352c-0.942-1.681-2.381-3.432-3.681-3.149
							c-2.242,0.488-2.324,4.633-0.383,6.715c1.556,1.669,3.096,3.202,3.646,3.745c-1.835-0.234-3.432-0.544-4.836-0.554
							c-3.815-0.865-9.115-3.2-10.705-4.176c-1.823-1.12-3.564-1.631-4.79-0.489c-0.962,0.896,1.067,4.578,6.309,7.205
							c-1.684-0.663-3.095-1.309-3.797-1.715c-1.852-1.073-3.605-1.539-4.801-0.366c-1.114,1.092,2.066,6.001,9.784,8.293
							c-2.984-0.511-5.918-1.281-7.087-1.741c-1.991-0.783-3.795-0.981-4.802,0.358c-1.007,1.34,3.54,6.295,12.755,6.925
							c0.348,0.024,0.749,0.036,1.175,0.031c0,0.022,0,0.043,0,0.065c-2.903,0.229-5.918,0.181-7.122,0.015
							c-1.947-0.268-3.591-0.053-4.172,1.367c-0.58,1.421,5.143,3.379,12.916,3.431c0.103,0.001,0.208-0.038,0.318-0.06
							c1.635,0.129,6.299,0.106,7.593,0.405c3.156,0.731,7.52,0.88,11.507,0.299c2.21-0.322,4.459-0.302,6.662,0.067
							c14.924,2.499,33.744,3.209,50.115,3.222V256.503z"/>
					</g>
					<g>
						<path style="fill:#F3A68D;" d="M442.977,257.147c-0.081,0.008-0.16,0.017-0.24,0.025c0.369,1.286,0.421,2.775,0.152,4.739
							c-0.408,3.111-0.707,6.297-2.27,8.576c0.577,0.049,1.152,0.119,1.724,0.215c14.924,2.499,33.744,3.209,50.115,3.222v-17.421
							C473.759,256.247,452.866,256.229,442.977,257.147z"/>
					</g>
					<g>
						<g>
							<path style="fill:#293DCC;" d="M595.95,254.04c4.849-26.766-2.876-30.603-14.616-34.406l-5.286,4.578l-1.194,0.966
								l-62.106,20.975c-10.096,3.874-14.303,8.964-25.066,7.923l-43.803,0.543c2.341,2.483,3.211,4.524,2.637,8.71
								c-0.509,3.881-0.844,7.883-3.682,10.09l55.155,6.924l92.999-18.803C592.828,261.168,595.187,258.252,595.95,254.04z"/>
						</g>
					</g>
				</g>
				<path style="fill:#6088EA;" d="M517.894,397.387h105.849c15.24,0,27.595-12.355,27.595-27.595V121.349
					c0-2.948-0.467-5.787-1.323-8.451c3.819,4.734,6.11,10.753,6.11,17.309v248.443c0,15.24-12.355,27.595-27.595,27.595H522.68
					c-12.292,0-22.701-8.039-26.271-19.144C501.467,393.372,509.21,397.387,517.894,397.387z"/>
				<path style="fill:#204191;" d="M594.38,392.653h-39.053c-2.744,0-4.968-2.224-4.968-4.968l0,0c0-2.744,2.224-4.968,4.968-4.968
					h39.053c2.744,0,4.968,2.224,4.968,4.968l0,0C599.348,390.429,597.124,392.653,594.38,392.653z"/>
			</g>
		</g>
		<g>
			<path style="fill:#2E7F67;" d="M367.368,232.995c-0.179,0-0.36-0.05-0.522-0.155c-0.444-0.289-0.57-0.882-0.281-1.327
				l7.631-11.732c0.29-0.443,0.882-0.569,1.327-0.281c0.443,0.289,0.57,0.882,0.281,1.327l-7.631,11.732
				C367.989,232.841,367.682,232.995,367.368,232.995z"/>
		</g>
	</g>
</g>
</svg>
