<?xml version="1.0" encoding="utf-8"?>
<!-- Generator: Adobe Illustrator 27.5.0, SVG Export Plug-In . SVG Version: 6.00 Build 0)  -->
<svg version="1.1" xmlns="http://www.w3.org/2000/svg" xmlns:xlink="http://www.w3.org/1999/xlink" x="0px" y="0px"
	 viewBox="0 0 750 500" style="enable-background:new 0 0 750 500;" xml:space="preserve">
<g id="BACKGROUND">
	<rect style="fill:#FFDAD7;" width="750" height="500"/>
</g>
<g id="OBJECTS">
	<g>
		<g>
			<path style="fill:none;stroke:#FF9A92;stroke-width:1.5;stroke-miterlimit:10;" d="M598.256,418.9
				c-15.954-2.209-36.746,10.767-54.908,6.984c-18.911-3.939-19.915-27.541-44.535-41.578
				c-33.813-19.278-50.527,28.829-69.526,28.829c-10.944,0-17.01-9.275-38.479-10.34c-36.176-1.794-43.562,34.459-43.562,34.459
				h288.315C635.561,437.254,623.796,422.436,598.256,418.9z"/>
			<g>
				<g>
					<g>
						<g>
							<g>
								<path style="fill:#FF5061;" d="M144.375,339.587c-3.491-2.828-8.549-3.095-12.348-0.696
									c-4.191,2.647-5.786,7.48-4.655,11.806c-4.076-1.841-9.111-1.077-12.422,2.615c-2.999,3.345-3.583,8.375-1.378,12.289
									c1.888,3.352,5.124,5.221,8.493,5.505l24.269,2.047l2.048-24.27C148.666,345.514,147.365,342.009,144.375,339.587z"/>
							</g>
							<path style="fill:none;stroke:#FFDAD7;stroke-width:0.75;stroke-miterlimit:10;" d="M140.591,366.352
								c0,0-13.572-12.974-27.168-0.602"/>
							<path style="fill:none;stroke:#FFDAD7;stroke-width:0.75;stroke-miterlimit:10;" d="M134.669,362.365
								c-2.708-12.012,8.347-17.12,13.811-15.813"/>
							<path style="fill:none;stroke:#FFDAD7;stroke-width:0.75;stroke-miterlimit:10;" d="M125.268,360.314
								c-0.852-2.559,2.418-10.197,10.323-7.254"/>
							<path style="fill:none;stroke:#FFDAD7;stroke-width:0.75;stroke-miterlimit:10;" d="M116.487,363.321
								c0,0-1.537-10.009,11.631-9.611"/>
							<path style="fill:none;stroke:#FFDAD7;stroke-width:0.75;stroke-miterlimit:10;" d="M142.948,346.88
								c-4.916-8.793-18.741-4.617-14.455,6.6"/>
						</g>
						<g>
							<path d="M146.144,363.998c-0.389-0.129-0.728-0.008-1.004,0.161c-0.786,0.483-1.262,1.383-1.306,2.468
								c-0.211-0.538-0.449-1.108-0.88-1.535c-0.931-0.923-2.21-0.577-2.534,0.344c-0.324,0.92-0.014,2.152,0.223,3.304
								c0.018,0.087,0.035,0.177,0.018,0.251c-0.047,0.202-0.31,0.189-0.527,0.174c-1.457-0.098-2.523,0.986-2.476,2.518
								c0.006,0.208,0.036,0.437,0.169,0.644c0.272,0.423,0.785,0.513,1.187,0.533c2.335,0.116,7.482,0.705,7.482,0.705
								s0.883-4.562,0.98-6.703c0.023-0.502,0.031-1.028-0.167-1.574C147.114,364.741,146.658,364.168,146.144,363.998z"/>
						</g>
						<path style="fill:none;stroke:#000000;stroke-width:1.5;stroke-miterlimit:10;" d="M169.152,431.139
							c0,0-5.274-36.943-25.71-61.194"/>
					</g>
					<g>
						<path d="M161.256,361.024c-3.276,3.043-7.448,8.874-8.881,12.016c-2.025,4.44-0.979,9.967,3.404,10.293
							C162.791,382.934,165.107,369.907,161.256,361.024z"/>
					</g>
					<g>
						<path d="M130.781,386.691c4.08,1.829,11.078,3.393,14.529,3.487c4.878,0.132,9.559-2.989,8.148-7.152
							C150.354,376.726,137.456,379.679,130.781,386.691z"/>
					</g>
				</g>
				<g>
					<g>
						<g>
							<path style="fill:#FF5061;" d="M386.221,306.817c1.846-6.206-0.583-13.09-5.868-16.83
								c-5.831-4.126-13.148-3.591-18.286,0.296c0.209-6.442-3.579-12.728-10.318-15.106c-6.105-2.155-13.127-0.164-17.127,4.927
								c-3.425,4.359-4.135,9.697-2.659,14.342l10.628,33.452l33.453-10.627C380.688,315.794,384.64,312.132,386.221,306.817z"/>
						</g>
						<path style="fill:none;stroke:#FFDAD7;stroke-width:0.75;stroke-miterlimit:10;" d="M347.393,319.057
							c2.319-7.136,9.606-27.827-13.053-39.07"/>
						<path style="fill:none;stroke:#FFDAD7;stroke-width:0.75;stroke-miterlimit:10;" d="M350.262,306.455
							c14.509-10.217,27.675,1.665,28.94,9.662"/>
						<path style="fill:none;stroke:#FFDAD7;stroke-width:0.75;stroke-miterlimit:10;" d="M348.098,292.773
							c2.939-2.543,14.913-2.39,15.343,9.758"/>
						<path style="fill:none;stroke:#FFDAD7;stroke-width:0.75;stroke-miterlimit:10;" d="M339.262,282.732
							c0,0,12.486-7.556,19.201,10.203"/>
						<path style="fill:none;stroke:#FFDAD7;stroke-width:0.75;stroke-miterlimit:10;" d="M375.721,308.929
							c9.006-11.386-4.163-27.503-16.745-15.621"/>
					</g>
					<g>
						<path d="M340.014,316.165c0.489-0.272,0.975-0.198,1.389-0.04c1.178,0.448,2.048,1.534,2.384,2.978
							c0.145-0.775,0.319-1.602,0.789-2.285c1.014-1.477,2.819-1.339,3.489-0.186c0.669,1.152,0.568,2.884,0.546,4.491
							c-0.002,0.121-0.002,0.246,0.04,0.341c0.116,0.26,0.465,0.174,0.751,0.099c1.931-0.504,3.638,0.678,3.966,2.747
							c0.044,0.28,0.063,0.595-0.063,0.907c-0.257,0.638-0.923,0.889-1.458,1.019c-3.104,0.753-9.862,2.859-9.862,2.859
							s-2.351-5.897-3.028-8.745c-0.159-0.668-0.304-1.372-0.179-2.155C338.903,317.411,339.368,316.525,340.014,316.165z"/>
					</g>
					<path style="fill:none;stroke:#000000;stroke-width:1.5;stroke-miterlimit:10;" d="M322.3,423.116c0,0-2.1-59.389,22.861-99.66
						"/>
					<g>
						<path d="M362.126,341.741c-5.164-1.723-13.831-2.774-18.024-2.47c-5.926,0.43-11.22,4.775-9.009,9.648
							C339.615,356.177,354.885,351.043,362.126,341.741z"/>
					</g>
					<g>
						<path d="M316.905,324.173c0.429,5.427,2.844,13.817,4.761,17.559c2.709,5.289,8.776,8.467,12.399,4.529
							C338.984,339.264,328.296,327.209,316.905,324.173z"/>
					</g>
				</g>
				<g>
					<g>
						<g>
							<path style="fill:#FF5061;" d="M395.979,352.892c1.889-4.634,0.54-10.112-3.243-13.388
								c-4.174-3.614-9.842-3.755-14.088-1.153c0.647-4.939-1.792-10.06-6.797-12.399c-4.534-2.118-10.085-1.117-13.546,2.497
								c-2.964,3.094-3.912,7.147-3.128,10.831l5.65,26.534l26.534-5.649C391.045,359.38,394.361,356.861,395.979,352.892z"/>
						</g>
						<path style="fill:none;stroke:#FFDAD7;stroke-width:0.75;stroke-miterlimit:10;" d="M365.189,359.376
							c2.323-5.314,9.489-20.679-7.091-31.038"/>
						<path style="fill:none;stroke:#FFDAD7;stroke-width:0.75;stroke-miterlimit:10;" d="M368.346,349.899
							c11.932-6.763,21.162,3.369,21.531,9.617"/>
						<path style="fill:none;stroke:#FFDAD7;stroke-width:0.75;stroke-miterlimit:10;" d="M367.715,339.212
							c2.453-1.734,11.651-0.713,11.065,8.664"/>
						<path style="fill:none;stroke:#FFDAD7;stroke-width:0.75;stroke-miterlimit:10;" d="M361.677,330.821
							c0,0,10.174-4.869,13.999,9.298"/>
						<path style="fill:none;stroke:#FFDAD7;stroke-width:0.75;stroke-miterlimit:10;" d="M387.743,353.724
							c7.787-8.078-1.126-21.47-11.701-13.28"/>
					</g>
					<g>
						<path d="M359.731,356.595c0.397-0.173,0.765-0.078,1.071,0.074c0.872,0.434,1.459,1.335,1.609,2.471
							c0.17-0.585,0.367-1.208,0.779-1.698c0.892-1.059,2.27-0.817,2.698,0.12c0.428,0.937,0.22,2.262,0.081,3.496
							c-0.01,0.093-0.02,0.189,0.005,0.265c0.069,0.208,0.344,0.169,0.57,0.133c1.523-0.242,2.747,0.796,2.844,2.412
							c0.013,0.219,0.003,0.463-0.117,0.693c-0.246,0.471-0.777,0.615-1.198,0.674c-2.445,0.345-7.802,1.454-7.802,1.454
							s-1.363-4.714-1.669-6.956c-0.072-0.526-0.13-1.078,0.025-1.671C358.783,357.469,359.207,356.823,359.731,356.595z"/>
					</g>
					<path style="fill:none;stroke:#000000;stroke-width:1.5;stroke-miterlimit:10;" d="M338.032,437.523
						c0,0,2.867-45.84,25.108-74.932"/>
					<g>
						<path d="M374.809,377.936c-3.842-1.715-10.429-3.178-13.678-3.26c-4.591-0.117-8.991,2.826-7.658,6.741
							C356.403,387.341,368.537,384.544,374.809,377.936z"/>
					</g>
					<g>
						<path d="M341.352,361.009c-0.08,4.207,1.145,10.842,2.337,13.866c1.684,4.272,6.111,7.175,9.196,4.419
							C357.195,374.284,349.884,364.205,341.352,361.009z"/>
					</g>
				</g>
				<g>
					<g>
						<g>
							<path style="fill:#FF5061;" d="M262.502,352.892c-1.889-4.634-0.54-10.112,3.243-13.388
								c4.174-3.614,9.842-3.755,14.088-1.153c-0.647-4.939,1.792-10.06,6.796-12.399c4.534-2.118,10.085-1.117,13.546,2.497
								c2.964,3.094,3.912,7.147,3.128,10.831l-5.65,26.534l-26.534-5.649C267.436,359.38,264.12,356.861,262.502,352.892z"/>
						</g>
						<path style="fill:none;stroke:#FFDAD7;stroke-width:0.75;stroke-miterlimit:10;" d="M293.292,359.376
							c-2.323-5.314-9.49-20.679,7.091-31.038"/>
						<path style="fill:none;stroke:#FFDAD7;stroke-width:0.75;stroke-miterlimit:10;" d="M290.134,349.899
							c-11.932-6.763-21.162,3.369-21.531,9.617"/>
						<path style="fill:none;stroke:#FFDAD7;stroke-width:0.75;stroke-miterlimit:10;" d="M290.766,339.212
							c-2.453-1.734-11.651-0.713-11.065,8.664"/>
						<path style="fill:none;stroke:#FFDAD7;stroke-width:0.75;stroke-miterlimit:10;" d="M296.804,330.821
							c0,0-10.174-4.869-13.999,9.298"/>
						<path style="fill:none;stroke:#FFDAD7;stroke-width:0.75;stroke-miterlimit:10;" d="M270.738,353.724
							c-7.787-8.078,1.126-21.47,11.701-13.28"/>
					</g>
					<g>
						<path d="M298.75,356.595c-0.396-0.173-0.765-0.078-1.071,0.074c-0.872,0.434-1.459,1.335-1.609,2.471
							c-0.17-0.585-0.367-1.208-0.779-1.698c-0.892-1.059-2.27-0.817-2.698,0.12c-0.428,0.937-0.22,2.262-0.081,3.496
							c0.01,0.093,0.02,0.189-0.005,0.265c-0.069,0.208-0.344,0.169-0.57,0.133c-1.523-0.242-2.747,0.796-2.844,2.412
							c-0.013,0.219-0.003,0.463,0.117,0.693c0.246,0.471,0.777,0.615,1.198,0.674c2.445,0.345,7.802,1.454,7.802,1.454
							s1.363-4.714,1.669-6.956c0.072-0.526,0.13-1.078-0.025-1.671C299.698,357.469,299.274,356.823,298.75,356.595z"/>
					</g>
					<path style="fill:none;stroke:#000000;stroke-width:1.5;stroke-miterlimit:10;" d="M320.449,437.523
						c0,0-2.868-45.84-25.108-74.932"/>
					<g>
						<path d="M283.672,377.936c3.842-1.715,10.429-3.178,13.678-3.26c4.591-0.117,8.991,2.826,7.658,6.741
							C302.078,387.341,289.944,384.544,283.672,377.936z"/>
					</g>
					<g>
						<path d="M317.129,361.009c0.08,4.207-1.145,10.842-2.337,13.866c-1.684,4.272-6.111,7.175-9.196,4.419
							C301.286,374.284,308.597,364.205,317.129,361.009z"/>
					</g>
				</g>
			</g>
			<path style="fill:#FFC9C2;" d="M272.316,437.254H93.921c0,0,11.834-25.491,42.805-29.384c16.141-2.029,24.577,11.99,37.093,6.987
				c12.515-5.004,22.543-54.786,58.613-51.789c36.07,2.997,68.106,58.258,90.763,51.789c22.657-6.469,31.9-12.931,50.259-6.987
				c17.904,5.797,29.623,15.112,41.985,29.384C392.067,437.254,272.316,437.254,272.316,437.254z"/>
			<path style="fill:none;stroke:#FF9A92;stroke-width:1.5;stroke-miterlimit:10;" d="M314.57,422.701
				c-20.039-0.833-30.685,8.438-43.837,8.438c-13.152,0-13.448-16.283-32.427-17.928c-19.058-1.652-42.94,24.043-42.94,24.043
				h144.138C339.503,437.254,329.187,423.309,314.57,422.701z"/>
		</g>
		<g>
			<g>
				<path style="fill:#FFDAD7;stroke:#FFFFFF;stroke-width:1.5;stroke-linejoin:round;stroke-miterlimit:10;" d="M412.478,380.693
					l146.891,33.912c5.221,1.205,10.431-2.05,11.636-7.271l64.305-278.537c1.205-5.221-2.05-10.431-7.271-11.636L481.148,83.248
					c-5.221-1.205-10.431,2.05-11.636,7.271l-64.305,278.537C404.001,374.278,407.257,379.487,412.478,380.693z"/>
				<g>
					<path style="fill:#FFC9C2;" d="M570.433,381.938c-0.057,0-0.113-0.006-0.17-0.02l-153.248-35.38
						c-0.193-0.045-0.361-0.164-0.467-0.333c-0.105-0.169-0.14-0.372-0.095-0.566l55.2-239.097c0.08-0.347,0.389-0.581,0.729-0.581
						c0.057,0,0.113,0.006,0.17,0.019l153.248,35.38c0.193,0.045,0.361,0.165,0.467,0.334c0.105,0.169,0.14,0.372,0.095,0.566
						l-55.2,239.097C571.082,381.703,570.773,381.938,570.433,381.938z"/>
					<path style="fill:#FFFFFF;" d="M472.384,106.711l153.248,35.38l-55.2,239.097l-153.248-35.38L472.384,106.711 M472.382,105.211
						c-0.683,0-1.3,0.469-1.46,1.163l-55.2,239.097c-0.186,0.807,0.317,1.613,1.124,1.799l153.248,35.38
						c0.112,0.026,0.225,0.038,0.337,0.038c0.279,0,0.555-0.078,0.795-0.228c0.337-0.211,0.577-0.547,0.667-0.935l55.2-239.097
						c0.186-0.807-0.317-1.613-1.124-1.799l-153.248-35.38C472.607,105.223,472.494,105.211,472.382,105.211L472.382,105.211z"/>
				</g>
				<g>
					<path style="fill:none;stroke:#FFFFFF;stroke-linecap:round;stroke-linejoin:round;stroke-miterlimit:10;" d="M484.482,377.457
						c-0.739,3.2,1.256,6.393,4.456,7.131c3.2,0.739,6.393-1.256,7.131-4.456c0.739-3.2-1.256-6.392-4.456-7.131
						C488.414,372.262,485.221,374.258,484.482,377.457z"/>
				</g>
				
					<line style="fill:none;stroke:#FFFFFF;stroke-width:3;stroke-linecap:round;stroke-linejoin:round;stroke-miterlimit:10;" x1="565.458" y1="116.627" x2="537.63" y2="110.203"/>
				
					<line style="fill:none;stroke:#FFFFFF;stroke-width:3;stroke-linecap:round;stroke-linejoin:round;stroke-miterlimit:10;" x1="575.766" y1="119.007" x2="570.634" y2="117.822"/>
				<g>
					<path style="opacity:0.45;fill:#FFC9C2;" d="M500.339,176.2l104.185,24.053l-7.06-9.587l3.43-14.856
						c2.857-12.377-4.86-24.727-17.237-27.584l-72.97-16.847c-12.377-2.857-24.727,4.86-27.584,17.237v0
						C480.245,160.992,487.962,173.342,500.339,176.2z"/>
					<g>
						
							<line style="fill:none;stroke:#FFC9C2;stroke-width:1.5;stroke-linecap:round;stroke-linejoin:round;stroke-miterlimit:10;" x1="584.569" y1="160.068" x2="502.292" y2="141.072"/>
						
							<line style="fill:none;stroke:#FFC9C2;stroke-width:1.5;stroke-linecap:round;stroke-linejoin:round;stroke-miterlimit:10;" x1="514.392" y1="151.848" x2="500.542" y2="148.65"/>
						
							<line style="fill:none;stroke:#FFC9C2;stroke-width:1.5;stroke-linecap:round;stroke-linejoin:round;stroke-miterlimit:10;" x1="582.82" y1="167.646" x2="525.629" y2="154.442"/>
						
							<line style="fill:none;stroke:#FFC9C2;stroke-width:1.5;stroke-linecap:round;stroke-linejoin:round;stroke-miterlimit:10;" x1="581.07" y1="175.224" x2="498.792" y2="156.229"/>
						
							<line style="fill:none;stroke:#FFC9C2;stroke-width:1.5;stroke-linecap:round;stroke-linejoin:round;stroke-miterlimit:10;" x1="579.321" y1="182.802" x2="539.375" y2="173.58"/>
					</g>
				</g>
				<g>
					<path style="opacity:0.45;fill:#FFC9C2;" d="M459.928,336.702l104.185,24.053l-7.06-9.587l3.43-14.856
						c2.857-12.377-4.86-24.727-17.237-27.584l-72.971-16.846c-12.377-2.858-24.727,4.86-27.584,17.237l0,0
						C439.834,321.494,447.551,333.844,459.928,336.702z"/>
					<g>
						
							<line style="fill:none;stroke:#FFC9C2;stroke-width:1.5;stroke-linecap:round;stroke-linejoin:round;stroke-miterlimit:10;" x1="544.158" y1="320.569" x2="461.88" y2="301.574"/>
						
							<line style="fill:none;stroke:#FFC9C2;stroke-width:1.5;stroke-linecap:round;stroke-linejoin:round;stroke-miterlimit:10;" x1="473.98" y1="312.35" x2="460.131" y2="309.152"/>
						
							<line style="fill:none;stroke:#FFC9C2;stroke-width:1.5;stroke-linecap:round;stroke-linejoin:round;stroke-miterlimit:10;" x1="542.408" y1="328.148" x2="485.218" y2="314.944"/>
						
							<line style="fill:none;stroke:#FFC9C2;stroke-width:1.5;stroke-linecap:round;stroke-linejoin:round;stroke-miterlimit:10;" x1="540.659" y1="335.726" x2="458.381" y2="316.73"/>
						
							<line style="fill:none;stroke:#FFC9C2;stroke-width:1.5;stroke-linecap:round;stroke-linejoin:round;stroke-miterlimit:10;" x1="538.909" y1="343.304" x2="498.964" y2="334.082"/>
					</g>
				</g>
				<g>
					<path style="opacity:0.45;fill:#FFC9C2;" d="M552.395,280.613L448.21,256.56l10.548-5.521l3.43-14.856
						c2.857-12.377,15.207-20.094,27.584-17.237l72.97,16.847c12.377,2.857,20.094,15.207,17.237,27.584l0,0
						C577.122,275.753,564.772,283.47,552.395,280.613z"/>
					<g>
						
							<line style="fill:none;stroke:#FFC9C2;stroke-width:1.5;stroke-linecap:round;stroke-linejoin:round;stroke-miterlimit:10;" x1="483.761" y1="229.189" x2="566.039" y2="248.185"/>
						
							<line style="fill:none;stroke:#FFC9C2;stroke-width:1.5;stroke-linecap:round;stroke-linejoin:round;stroke-miterlimit:10;" x1="550.44" y1="252.565" x2="564.289" y2="255.763"/>
						
							<line style="fill:none;stroke:#FFC9C2;stroke-width:1.5;stroke-linecap:round;stroke-linejoin:round;stroke-miterlimit:10;" x1="482.012" y1="236.768" x2="539.203" y2="249.971"/>
						
							<line style="fill:none;stroke:#FFC9C2;stroke-width:1.5;stroke-linecap:round;stroke-linejoin:round;stroke-miterlimit:10;" x1="480.262" y1="244.346" x2="562.54" y2="263.341"/>
						
							<line style="fill:none;stroke:#FFC9C2;stroke-width:1.5;stroke-linecap:round;stroke-linejoin:round;stroke-miterlimit:10;" x1="478.513" y1="251.924" x2="518.458" y2="261.146"/>
					</g>
				</g>
			</g>
			<g>
				<g>
					<path style="fill:#F7A89A;" d="M446.259,399.925l0.902,23.291c0,0-19.106,11.235-19.106,11.473s18.187,0.895,18.187,0.895
						l8.05-3.936h7.861c0.921,0,1.604-0.856,1.399-1.754l-1.638-7.18l2.829-24.519"/>
					<path style="fill:#FF5061;" d="M429.365,432.001c2.864-1.665,13.614-6.977,13.614-6.977l11.253,6.624h9.72v5.605h-8.543v-4.234
						h-1.238c-0.435,0-0.857,0.144-1.201,0.409l-4.245,3.276c-0.461,0.355-1.026,0.548-1.607,0.548c0,0-16.559,0-19.063,0
						S424.99,434.544,429.365,432.001z"/>
					<g>
						<polygon style="fill:#FF5061;" points="458.282,432.704 462.903,426.474 462.362,424.101 456.883,431.666 						"/>
					</g>
				</g>
				<path style="fill:#F28B7C;" d="M508.276,179.167c7.695,9.167,15.671,27.935,15.334,36.333
					c-0.529,13.196-12.838,44.56-12.838,44.56l-3.724-4.79l8.457-39.817c0,0-22.435-20.757-27.759-24.931
					c-5.324-4.175-11.171-16.541,0.779-21.909C497.309,164.667,504.676,174.879,508.276,179.167z"/>
				<g>
					<path style="fill:#2433BC;" d="M483.507,246.142c0,0-1.031,66.858,3.473,83.486c2.741,10.121,15.531,35.879,15.531,35.879
						l50.33,11.62c0,0-17.811-26.165-33.096-51.826c0-14.801,1.453-24.801,3-53.277c4.049-20.087-0.038-24.742-2.117-31.732"/>
					<path style="fill:none;stroke:#152377;stroke-width:0.75;stroke-miterlimit:10;" d="M518.462,369.238
						c0,0-19.24-37.123-22.447-47.988c-1.589-5.385-3.155-72.323-3.155-72.323"/>
					<path style="fill:#3E49E1;" d="M521.199,239.906c5.023,7.594,13.128,23.617-4.727,41.473
						c-13.94,14.679-34.642,46.372-34.642,46.372l6.632,83.213l-48.491-5.463c0,0,2.421-65.46,7.5-87.5
						c4.58-19.875,40.808-66.842,40.808-66.842l0.649-6.756"/>
					<path style="fill:none;stroke:#152377;stroke-width:0.75;stroke-miterlimit:10;" d="M502.511,250.198
						c-0.243,2.327-0.918,5.155-2.537,7.896c-3.748,6.342-35.753,56.742-36.293,62.479c-1.952,20.725-2.679,87.296-2.679,87.296"/>
					<path style="fill:none;stroke:#152377;stroke-width:0.75;stroke-miterlimit:10;" d="M483.455,250.818
						c0,0,15.945,3.281,40.156-6.869"/>
					<path style="fill:none;stroke:#152377;stroke-width:0.75;stroke-miterlimit:10;" d="M509.016,248.807
						c0,0-1.064-4.36-1.48-6.075"/>
					<path style="fill:none;stroke:#152377;stroke-width:0.75;stroke-miterlimit:10;" d="M520.468,245.061
						c0,0-2.29-4.788-2.809-5.308"/>
					<path style="fill:none;stroke:#152377;stroke-width:0.75;stroke-miterlimit:10;" d="M497.309,262.107
						c0,0-1.762-4.96-2.295-6.955c-0.533-1.995-0.4-3.98-0.4-3.98"/>
					<path style="fill:none;stroke:#152377;stroke-width:0.75;stroke-miterlimit:10;" d="M451.753,330.837
						c0,0,5.152,27.88,7.498,37.239"/>
					<path style="fill:none;stroke:#152377;stroke-width:0.75;stroke-miterlimit:10;" d="M448.28,332.115
						c0,0,0.643,15.153,1.192,20.286"/>
					<path style="fill:none;stroke:#152377;stroke-width:0.75;stroke-miterlimit:10;" d="M527.448,257.665l-6.98-0.659
						l-3.137,11.907c-0.13,0.494-0.084,1.018,0.131,1.481l3.006,6.489"/>
					<g>
						<g>
							
								<line style="fill:none;stroke:#152377;stroke-width:0.75;stroke-miterlimit:10;" x1="527.448" y1="259.101" x2="526.204" y2="258.971"/>
							
								<line style="fill:none;stroke:#152377;stroke-width:0.75;stroke-miterlimit:10;stroke-dasharray:1.4556,0.8733;" x1="525.336" y1="258.881" x2="523.454" y2="258.685"/>
							<polyline style="fill:none;stroke:#152377;stroke-width:0.75;stroke-miterlimit:10;" points="523.019,258.64 521.776,258.51 
								521.486,259.726 							"/>
							<path style="fill:none;stroke:#152377;stroke-width:0.75;stroke-miterlimit:10;stroke-dasharray:2.8149,1.689;" d="
								M521.093,261.369l-1.862,7.792c-0.109,0.456-0.063,0.936,0.13,1.363l1.346,2.972"/>
							
								<line style="fill:none;stroke:#152377;stroke-width:0.75;stroke-miterlimit:10;" x1="521.056" y1="274.265" x2="521.572" y2="275.404"/>
						</g>
					</g>
				</g>
				<g>
					<path style="fill:#F7A89A;" d="M483.168,236.28c0,0,0.339,3.336,0.339,9.862c9.353,1.525,31.289-3.131,37.692-6.236
						c0,0-2.199-4.188-3.715-8.984c-1.009-6.792-25.513-7.161-25.513-7.161L483.168,236.28z"/>
					<path style="fill:none;stroke:#DB6653;stroke-width:0.75;stroke-miterlimit:10;" d="M488.429,241.733
						c0.334,0.819,0.277,1.794-0.149,2.557"/>
				</g>
				<path style="fill:#FFFFFF;" d="M488.891,171.048c-3.645,2.493-11.163,15.979-11.163,15.979s-7.219,8.884-6.053,15.07
					c1.57,8.33,6.818,12.016,7.342,13.567c1.821,5.385,4.279,22.347,4.279,22.347s19.661,0.989,35.166-5.365
					c-4.786-19.268,4.222-32.141-4.17-48.834c-4.086-8.128-15.075-15.555-15.075-15.555"/>
				<g>
					<path style="fill:#F28B7C;" d="M428.591,205.937c-0.196-0.12-5.868-3.113-6.876-4.064s-5.039-6.138-4.206-6.7
						c0.834-0.562,4.157,3.295,4.157,3.295l5.354,3.538"/>
					<path style="fill:#F28B7C;" d="M423.82,198.939l1.224-1.221c0,0-4.408-5.523-3.811-6.33c0.627-0.848,5,4.725,5,4.725
						s3.558,1.182,5.369,2.289s4.088,4.49,4.088,4.49l-3.081,5.107"/>
					<path style="fill:#F7A89A;" d="M499.717,178.582c-12.676,10.803-30.115,35.273-30.115,35.273l-35.195-12.26l-2.463,7.525
						c0,0,30.483,23.017,42.924,19.906c7.676-1.92,20.552-14.454,28.664-25.461c2.451,0.221,5.955-1.578,7.24-3.916
						C514.463,192.934,512.209,167.936,499.717,178.582z"/>
					<g>
						<path style="fill:#0A172B;" d="M432.084,206.158l-2.207-5.047c-0.062-0.22-0.259-0.501-0.482-0.689l-11.254-10.585
							c0,0-0.632,0.558-0.68,0.654c-0.024,0.048-0.033,0.114-0.007,0.207l1.581,5.564c0.063,0.22,0.259,0.501,0.482,0.689
							l11.52,9.744c0.17,0.144,0.311,0.187,0.379,0.136L432.084,206.158z"/>
						<path style="fill:#00276F;" d="M432.112,205.94l-1.564-5.504c-0.063-0.22-0.259-0.501-0.482-0.689l-11.58-9.795
							c-0.251-0.213-0.431-0.177-0.36,0.071l1.581,5.564c0.062,0.22,0.259,0.501,0.482,0.689l11.52,9.744
							C431.99,206.258,432.191,206.218,432.112,205.94z"/>
						<polygon style="fill:#8DADE0;" points="429.238,199.047 431.065,205.476 420.986,196.951 419.159,190.522 						"/>
						<path style="fill:#8DADE0;" d="M430.666,202.64c0.151,0.145,0.263,0.17,0.251,0.056c-0.012-0.114-0.144-0.323-0.295-0.468
							c-0.151-0.145-0.263-0.17-0.252-0.056C430.383,202.286,430.515,202.495,430.666,202.64z"/>
						
							<line style="fill:none;stroke:#8DADE0;stroke-width:0.25;stroke-linecap:round;stroke-miterlimit:10;" x1="419.249" y1="192.529" x2="419.583" y2="193.669"/>
						<g>
							<path style="opacity:0.55;fill:#8DADE0;" d="M421.91,193.476c0.143,0.137,0.25,0.161,0.238,0.053
								c-0.011-0.108-0.136-0.306-0.279-0.444c-0.143-0.137-0.25-0.161-0.238-0.053C421.643,193.14,421.768,193.339,421.91,193.476z
								"/>
							<path style="opacity:0.51;fill:#FFFFFF;" d="M421.776,196.793l-0.963-3.387c-0.103-0.362,0.158-0.415,0.525-0.106
								l0.844,0.719l0.141-0.062l1.166,4.126c0.103,0.362-0.159,0.415-0.526,0.106l-0.514-0.433
								C422.139,197.494,421.864,197.1,421.776,196.793z"/>
							
								<line style="fill:none;stroke:#8DADE0;stroke-width:0.25;stroke-linecap:round;stroke-miterlimit:10;" x1="421.419" y1="193.831" x2="422.384" y2="197.239"/>
							
								<line style="fill:none;stroke:#8DADE0;stroke-width:0.25;stroke-linecap:round;stroke-miterlimit:10;" x1="422.057" y1="194.375" x2="422.611" y2="196.331"/>
						</g>
						<g>
							<path style="opacity:0.55;fill:#8DADE0;" d="M428.159,198.65c0.143,0.137,0.25,0.161,0.238,0.053
								c-0.011-0.108-0.136-0.306-0.279-0.443c-0.143-0.137-0.25-0.161-0.238-0.053C427.891,198.314,428.016,198.512,428.159,198.65
								z"/>
							<path style="opacity:0.51;fill:#FFFFFF;" d="M428.025,201.967l-0.963-3.387c-0.103-0.362,0.158-0.415,0.525-0.106
								l0.844,0.719l0.141-0.062l1.166,4.126c0.103,0.362-0.159,0.415-0.525,0.105l-0.514-0.433
								C428.388,202.668,428.112,202.274,428.025,201.967z"/>
							
								<line style="fill:none;stroke:#8DADE0;stroke-width:0.25;stroke-linecap:round;stroke-miterlimit:10;" x1="427.668" y1="199.005" x2="428.633" y2="202.413"/>
							
								<line style="fill:none;stroke:#8DADE0;stroke-width:0.25;stroke-linecap:round;stroke-miterlimit:10;" x1="428.306" y1="199.548" x2="428.86" y2="201.505"/>
						</g>
						<g>
							<path style="opacity:0.55;fill:#8DADE0;" d="M426.366,201.308c0.143,0.137,0.25,0.161,0.238,0.053
								c-0.011-0.108-0.136-0.306-0.279-0.443c-0.143-0.137-0.25-0.161-0.238-0.053
								C426.098,200.973,426.223,201.171,426.366,201.308z"/>
							<path style="opacity:0.51;fill:#FFFFFF;" d="M424.747,198.984l-1.042-3.665c-0.086-0.303,0.134-0.345,0.441-0.085l0.8,0.678
								c0.219,0.186,0.413,0.464,0.474,0.68l1.263,4.49l-0.329-0.465l-1.13-0.952C425.004,199.48,424.809,199.201,424.747,198.984z"
								/>
							
								<line style="fill:none;stroke:#8DADE0;stroke-width:0.25;stroke-linecap:round;stroke-miterlimit:10;" x1="424.347" y1="195.87" x2="425.312" y2="199.278"/>
							
								<line style="fill:none;stroke:#8DADE0;stroke-width:0.25;stroke-linecap:round;stroke-miterlimit:10;" x1="424.985" y1="196.414" x2="425.539" y2="198.37"/>
							
								<line style="fill:none;stroke:#8DADE0;stroke-width:0.25;stroke-linecap:round;stroke-miterlimit:10;" x1="425.639" y1="198.679" x2="425.854" y2="199.437"/>
						</g>
						<g>
							<defs>
								<path id="SVGID_1_" d="M432.112,205.94l-1.564-5.504c-0.063-0.22-0.259-0.501-0.482-0.689l-11.58-9.795
									c-0.251-0.213-0.431-0.177-0.36,0.071l1.581,5.564c0.062,0.22,0.259,0.501,0.482,0.689l11.52,9.744
									C431.99,206.258,432.191,206.218,432.112,205.94z"/>
							</defs>
							<clipPath id="SVGID_00000173134258176159385860000016468081557494808722_">
								<use xlink:href="#SVGID_1_"  style="overflow:visible;"/>
							</clipPath>
							
								<linearGradient id="SVGID_00000012447158341334976380000010528437937792146878_" gradientUnits="userSpaceOnUse" x1="618.7115" y1="263.9762" x2="625.1841" y2="252.7655" gradientTransform="matrix(0.5569 -0.7364 -0.9692 -0.514 329.5961 789.3709)">
								<stop  offset="0" style="stop-color:#FFFFFF;stop-opacity:0.6"/>
								<stop  offset="0.8878" style="stop-color:#FFFFFF;stop-opacity:0.1"/>
							</linearGradient>
							
								<polygon style="clip-path:url(#SVGID_00000173134258176159385860000016468081557494808722_);fill:url(#SVGID_00000012447158341334976380000010528437937792146878_);" points="
								418.3,193.874 418.763,195.264 432.792,203.257 432.329,201.868 							"/>
							
								<linearGradient id="SVGID_00000121260519501229479980000009826577360205980825_" gradientUnits="userSpaceOnUse" x1="619.8464" y1="265.5728" x2="626.165" y2="254.6288" gradientTransform="matrix(0.5569 -0.7364 -0.9692 -0.514 329.5961 789.3709)">
								<stop  offset="0" style="stop-color:#FFFFFF;stop-opacity:0.6"/>
								<stop  offset="0.8878" style="stop-color:#FFFFFF;stop-opacity:0.1"/>
							</linearGradient>
							
								<polygon style="clip-path:url(#SVGID_00000173134258176159385860000016468081557494808722_);fill:url(#SVGID_00000121260519501229479980000009826577360205980825_);" points="
								417.386,192.727 417.502,193.074 431.531,201.068 431.415,200.721 							"/>
						</g>
					</g>
					<g>
						<path style="fill:#F7A89A;" d="M434.122,210.493c-2.28-1.383-8.771-5.685-9.074-5.953c-0.684-0.605-3.086-4.871-3.178-6.736
							c-0.013-0.272,0.025-0.613,0.281-0.705c0.236-0.085,0.473,0.116,0.638,0.305c0.727,0.833,2.831,3.96,2.892,4.012
							c1.824,0.14,3.602-2.644,9.289,0.474"/>
					</g>
					
						<line style="fill:none;stroke:#DB6653;stroke-width:0.75;stroke-miterlimit:10;" x1="503.533" y1="203.566" x2="509.016" y2="198.073"/>
				</g>
				<g>
					<g>
						<path style="fill:#F7A89A;" d="M480.546,141.417c-1.78,5.073-2.595,19.258,1.097,21.477c3.693,2.218,9.088-1.102,10.766-2.686
							c2.454-2.317,7.816-12.713,4.599-16.619C493.791,139.682,483.042,134.304,480.546,141.417z"/>
						<path style="fill:#F7A89A;" d="M487.282,160.357l1.608,10.691c0,0-3.316,4.585-1.145,6.006
							c3.263,2.136,12.228-6.288,12.228-6.288l-4.733-15.683"/>
						<path d="M499.652,144.592c-0.537-5.071-6.351-8.949-11.786-8.772c-3.776-1.043-13.263,1.796-10.554,11.3
							c0,0,9.418,1.153,12.492-2.788c0.053,8.998,7.63,10.925,7.63,10.925S500.3,150.713,499.652,144.592z"/>
						<g>
							<path d="M486.589,135.937c2.651-2.772,6.776-2.546,10.069-1.173c3.55,1.481,3.501,3.946,5.749,6.996
								c1.89,2.564,6.501,5.867,9.217,7.574c1.22,0.766,2.533,1.385,3.692,2.241c2.724,2.012,4.424,5.343,4.456,8.729
								c0.016,1.674-0.346,3.394,0.137,4.997c0.81,2.687,3.649,4.134,5.463,6.276c1.62,1.914,2.426,4.526,2.041,7.004
								c-0.454,2.92-2.443,5.389-4.719,7.273c-3.889,3.218-8.923,5.15-13.965,4.898c-5.042-0.252-10.014-2.815-12.785-7.034
								c-1.124-1.711-1.887-3.89-1.137-5.796c0.434-1.103,1.34-2.017,1.543-3.185c0.393-2.261-1.898-3.977-2.981-6.001
								c-0.996-1.861-0.956-4.138-0.356-6.161c0.565-1.906,2.366-3.845,2.421-5.794c0.049-1.719-1.158-3.867-2.328-5.032"/>
						</g>
						<g>
							<path style="fill:#F7A89A;" d="M492.915,153.472c0.041-0.198,0.239-0.315,0.419-0.408c0.818-0.424,1.817-0.849,2.615-0.387
								c0.413,0.239,0.676,0.682,0.801,1.143c0.417,1.543,0.008,3.482-1.259,4.558c-1.131,0.961-3.855,1.38-4.057-0.668"/>
						</g>
						<path style="fill:none;stroke:#DB6653;stroke-width:0.75;stroke-miterlimit:10;" d="M483.21,150.73
							c0,0-3.094,4.152-2.386,5.053c0.708,0.902,2.405,0.605,2.405,0.605"/>
						<g>
							<path d="M486.393,150.954c-0.064,0.334,0.018,0.759,0.035,1.021c0.029,0.465,0.534,0.639,0.915,0.442
								c0.709-0.368,0.335-2.19-0.567-1.934C486.542,150.549,486.435,150.731,486.393,150.954z"/>
						</g>
						<g>
							<path d="M479.799,150.16c-0.064,0.334,0.018,0.759,0.035,1.021c0.03,0.465,0.534,0.639,0.915,0.442
								c0.709-0.368,0.335-2.19-0.567-1.934C479.948,149.755,479.841,149.937,479.799,150.16z"/>
						</g>
						<path style="fill:none;stroke:#000000;stroke-width:0.75;stroke-linecap:round;stroke-miterlimit:10;" d="M484.856,148.928
							c0,0,1.839-1.802,4.332,0.522"/>
						<path style="fill:none;stroke:#000000;stroke-width:0.75;stroke-linecap:round;stroke-miterlimit:10;" d="M479.74,148.444
							c0.671-0.523,1.714-0.867,2.681,0.191"/>
						<path style="fill:#FFFFFF;" d="M481.664,158.438l5.113-0.602c0,0-1.24,2.895-3.701,2.599
							C481.876,160.29,481.664,158.438,481.664,158.438z"/>
						<path style="fill:none;stroke:#DB6653;stroke-width:0.75;stroke-miterlimit:10;" d="M487.746,163.439
							c0,0,3.454-0.686,5.114-3.348"/>
					</g>
					<g>
						<g>
							<path style="fill:#FF5061;" d="M486.933,135.607c0,0,3.195,5.058,15.474,6.153c-0.366-2.259-0.875-5.708-5.886-7.515
								C490.095,131.927,486.933,135.607,486.933,135.607z"/>
						</g>
						<g>
							<path style="fill:#FF5061;" d="M496.138,135.016c-0.057-0.007-0.114-0.024-0.169-0.052c-0.245-0.126-0.342-0.427-0.216-0.673
								l0.677-1.321c0.126-0.246,0.427-0.345,0.673-0.217c0.245,0.126,0.342,0.427,0.216,0.673l-0.677,1.32
								C496.544,134.939,496.339,135.041,496.138,135.016z"/>
						</g>
					</g>
				</g>
			</g>
		</g>
		<g>
			<g>
				<path style="fill:#FFDAD7;stroke:#FFFFFF;stroke-width:1.5;stroke-linejoin:round;stroke-miterlimit:10;" d="M337.522,380.693
					l-146.891,33.912c-5.221,1.205-10.431-2.05-11.636-7.271L114.69,128.797c-1.205-5.221,2.05-10.431,7.271-11.636l146.891-33.912
					c5.221-1.205,10.431,2.05,11.636,7.271l64.305,278.537C345.999,374.278,342.743,379.487,337.522,380.693z"/>
				<g>
					<path style="fill:#FFC9C2;" d="M179.568,381.938c-0.342,0-0.65-0.234-0.73-0.581l-55.2-239.097
						c-0.093-0.404,0.159-0.807,0.562-0.9l153.247-35.38c0.057-0.013,0.114-0.019,0.169-0.019c0.342,0,0.65,0.234,0.73,0.581
						l55.2,239.097c0.044,0.194,0.01,0.397-0.095,0.566c-0.105,0.169-0.274,0.288-0.467,0.333l-153.249,35.38
						C179.68,381.932,179.624,381.938,179.568,381.938z"/>
					<path style="fill:#FFFFFF;" d="M277.616,106.711l55.2,239.097l-153.248,35.38l-55.2-239.097L277.616,106.711 M277.618,105.211
						c-0.112,0-0.225,0.012-0.339,0.039l-153.248,35.38c-0.807,0.186-1.31,0.992-1.124,1.799l55.2,239.097
						c0.089,0.388,0.329,0.724,0.667,0.935c0.24,0.15,0.516,0.228,0.795,0.228c0.113,0,0.226-0.013,0.337-0.038l153.248-35.38
						c0.807-0.186,1.311-0.992,1.124-1.799l-55.2-239.097C278.918,105.68,278.301,105.211,277.618,105.211L277.618,105.211z"/>
				</g>
				<g>
					<path style="fill:none;stroke:#FFFFFF;stroke-linecap:round;stroke-linejoin:round;stroke-miterlimit:10;" d="M265.518,377.457
						c0.739,3.2-1.256,6.393-4.456,7.131c-3.2,0.739-6.392-1.256-7.131-4.456c-0.739-3.2,1.256-6.392,4.456-7.131
						C261.586,372.262,264.779,374.258,265.518,377.457z"/>
				</g>
				
					<line style="fill:none;stroke:#FFFFFF;stroke-width:3;stroke-linecap:round;stroke-linejoin:round;stroke-miterlimit:10;" x1="184.542" y1="116.627" x2="212.37" y2="110.203"/>
				
					<line style="fill:none;stroke:#FFFFFF;stroke-width:3;stroke-linecap:round;stroke-linejoin:round;stroke-miterlimit:10;" x1="174.234" y1="119.007" x2="179.366" y2="117.822"/>
				<g>
					<path style="opacity:0.45;fill:#FFC9C2;" d="M250.49,175.614l-104.185,24.053l7.06-9.587l-3.43-14.856
						c-2.858-12.377,4.86-24.727,17.237-27.584l72.971-16.847c12.377-2.857,24.727,4.86,27.584,17.237l0,0
						C270.584,160.406,262.867,172.757,250.49,175.614z"/>
					<g>
						
							<line style="fill:none;stroke:#FFC9C2;stroke-width:1.5;stroke-linecap:round;stroke-linejoin:round;stroke-miterlimit:10;" x1="166.26" y1="159.482" x2="248.537" y2="140.486"/>
						
							<line style="fill:none;stroke:#FFC9C2;stroke-width:1.5;stroke-linecap:round;stroke-linejoin:round;stroke-miterlimit:10;" x1="236.437" y1="151.262" x2="250.287" y2="148.065"/>
						
							<line style="fill:none;stroke:#FFC9C2;stroke-width:1.5;stroke-linecap:round;stroke-linejoin:round;stroke-miterlimit:10;" x1="168.009" y1="167.06" x2="225.2" y2="153.856"/>
						
							<line style="fill:none;stroke:#FFC9C2;stroke-width:1.5;stroke-linecap:round;stroke-linejoin:round;stroke-miterlimit:10;" x1="169.759" y1="174.638" x2="252.037" y2="155.643"/>
						
							<line style="fill:none;stroke:#FFC9C2;stroke-width:1.5;stroke-linecap:round;stroke-linejoin:round;stroke-miterlimit:10;" x1="171.508" y1="182.216" x2="211.454" y2="172.994"/>
					</g>
				</g>
				<g>
					<path style="opacity:0.45;fill:#FFC9C2;" d="M290.901,336.116l-104.185,24.053l7.06-9.587l-3.43-14.856
						c-2.857-12.377,4.86-24.727,17.237-27.584l72.97-16.847c12.377-2.857,24.727,4.86,27.584,17.237v0
						C310.995,320.908,303.278,333.258,290.901,336.116z"/>
					<g>
						
							<line style="fill:none;stroke:#FFC9C2;stroke-width:1.5;stroke-linecap:round;stroke-linejoin:round;stroke-miterlimit:10;" x1="206.671" y1="319.984" x2="288.949" y2="300.988"/>
						
							<line style="fill:none;stroke:#FFC9C2;stroke-width:1.5;stroke-linecap:round;stroke-linejoin:round;stroke-miterlimit:10;" x1="276.849" y1="311.764" x2="290.698" y2="308.566"/>
						
							<line style="fill:none;stroke:#FFC9C2;stroke-width:1.5;stroke-linecap:round;stroke-linejoin:round;stroke-miterlimit:10;" x1="208.421" y1="327.562" x2="265.611" y2="314.358"/>
						
							<line style="fill:none;stroke:#FFC9C2;stroke-width:1.5;stroke-linecap:round;stroke-linejoin:round;stroke-miterlimit:10;" x1="210.17" y1="335.14" x2="292.448" y2="316.145"/>
						
							<line style="fill:none;stroke:#FFC9C2;stroke-width:1.5;stroke-linecap:round;stroke-linejoin:round;stroke-miterlimit:10;" x1="211.92" y1="342.718" x2="251.865" y2="333.496"/>
					</g>
				</g>
				<g>
					<path style="opacity:0.45;fill:#FFC9C2;" d="M198.434,280.027l104.185-24.053l-10.548-5.522l-3.43-14.856
						c-2.858-12.377-15.207-20.094-27.584-17.237l-72.97,16.846c-12.377,2.857-20.094,15.207-17.237,27.584l0,0
						C173.707,275.167,186.057,282.884,198.434,280.027z"/>
					<g>
						
							<line style="fill:none;stroke:#FFC9C2;stroke-width:1.5;stroke-linecap:round;stroke-linejoin:round;stroke-miterlimit:10;" x1="267.068" y1="228.604" x2="184.79" y2="247.599"/>
						
							<line style="fill:none;stroke:#FFC9C2;stroke-width:1.5;stroke-linecap:round;stroke-linejoin:round;stroke-miterlimit:10;" x1="200.389" y1="251.98" x2="186.54" y2="255.177"/>
						
							<line style="fill:none;stroke:#FFC9C2;stroke-width:1.5;stroke-linecap:round;stroke-linejoin:round;stroke-miterlimit:10;" x1="268.817" y1="236.182" x2="211.626" y2="249.385"/>
						
							<line style="fill:none;stroke:#FFC9C2;stroke-width:1.5;stroke-linecap:round;stroke-linejoin:round;stroke-miterlimit:10;" x1="270.567" y1="243.76" x2="188.289" y2="262.755"/>
						
							<line style="fill:none;stroke:#FFC9C2;stroke-width:1.5;stroke-linecap:round;stroke-linejoin:round;stroke-miterlimit:10;" x1="272.316" y1="251.338" x2="232.371" y2="260.56"/>
					</g>
				</g>
			</g>
			<g>
				<g>
					<path style="fill:#071242;" d="M255.864,244.412c-2.577,33.5-14.393,77.921-24.393,90.588
						c-8.701,11.022-54.672,34.195-54.672,34.195l-7.554-32.72L198.456,316l8.515-47.294c0,0-5-18.706,0.5-31.563"/>
					<polyline style="fill:none;stroke:#000000;stroke-width:0.75;stroke-miterlimit:10;" points="171.087,344.452 207.313,319.629 
						216.514,256.64 					"/>
					<g>
						<path style="fill:#FFFFFF;" d="M287.952,436.43v-2.338h30.47c1.478,0,2.847-0.777,3.605-2.045l0.261-0.047v3.76
							c0,0.14-0.053,0.275-0.149,0.376l-0.09,0.096c-0.611,0.651-1.465,1.021-2.358,1.021h-30.916
							C288.32,437.254,287.952,436.885,287.952,436.43z"/>
						<path style="fill:#DB6653;" d="M276.48,393.633l12.684,29.357l0.895,10.284h29.309c0.974,0,1.764-0.79,1.764-1.764l0,0
							c0-0.73-0.449-1.384-1.13-1.646l-16.905-6.775l-7.939-32.596"/>
						<path style="fill:#FFFFFF;" d="M290.258,427.372c0.289-0.289-1.198-4.28-1.198-4.28l-2.891-6.769l14.648-3.497l2.495,9.842
							L290.258,427.372z"/>
						<path style="fill:#3E49E1;" d="M302.976,421.341l18.063,8.474c0.753,0.329,1.249,1.15,1.249,2.065l0,0
							c0,1.222-1.258,2.212-2.335,2.212h-32.002l0.941-11.392C288.892,422.7,294.764,425.961,302.976,421.341z"/>
						<path style="fill:none;stroke:#FFFFFF;stroke-linecap:round;stroke-miterlimit:10;" d="M306.717,422.668
							c-1.029,1.327-1.902,2.775-2.595,4.305"/>
						<path style="fill:none;stroke:#FFFFFF;stroke-linecap:round;stroke-miterlimit:10;" d="M309.007,424.053
							c-1.067,1.461-1.494,2.305-2.134,3.661"/>
						<path style="fill:none;stroke:#FFFFFF;stroke-linecap:round;stroke-miterlimit:10;" d="M310.943,425.066
							c-0.724,0.963-1.372,2.296-1.936,3.36"/>
					</g>
					<path style="fill:#0F1470;" d="M244.037,258.839c0,0,31.631,52.661,36.131,65.161s20.37,76.5,20.37,76.5l-35.811,5
						c0,0-16.488-66.442-19.47-70.876c-5.181-7.705-30.8-38.137-30.8-38.137S191.337,278.858,193.294,250"/>
					<path style="fill:none;stroke:#000000;stroke-width:0.75;stroke-miterlimit:10;" d="M272.438,403.859l-17.901-70.08
						l-35.246-42.992c0,0-15.875-11.93-19.705-29.703"/>
					<path style="fill:none;stroke:#000000;stroke-width:0.75;stroke-miterlimit:10;" d="M202.115,268.865h8.82
						c3.389,0,6.457-2.006,7.817-5.111l2.955-6.748"/>
				</g>
				<g>
					<path style="fill:#DB6653;" d="M306.903,206.714l-3.19-10.168c0,0,14.232-12.441,14.853-11.932
						c1.271,1.042-4.707,6.367-4.707,6.367s7.293-5.239,7.564-4.509c0.485,1.307-5.873,7.239-5.873,7.239s6.788-5.408,7.03-4.346
						c0.242,1.062-8.255,10.5-8.255,10.5L306.903,206.714z"/>
					<path style="fill:#DB6653;" d="M302.065,196.621l2.474-1.771c0,0,2.493-3.909,5.084-6.367c2.591-2.457,3.524-3.15,4.079-2.866
						c0.555,0.285-1.806,4.311-1.806,4.311s-1.098,4.5-3.823,6.398"/>
					<g>
						<path style="fill:#0A172B;" d="M310.084,200.539l-2.936-5.784c-0.133-0.236-0.056-0.573,0.189-0.824l12.922-13.503
							c0,0,0.234,0.123,0.408,0.214c0.094,0.05,0.208,0.104,0.265,0.204l3.379,5.989c0.133,0.236,0.056,0.573-0.189,0.824
							l-12.677,12.984c-0.188,0.192-0.436,0.275-0.64,0.243L310.084,200.539z"/>
						<path style="fill:#00276F;" d="M309.971,200.407l-3.342-5.925c-0.133-0.236-0.056-0.573,0.188-0.824l12.743-13.052
							c0.276-0.283,0.701-0.299,0.851-0.032l3.378,5.989c0.133,0.236,0.056,0.573-0.189,0.824l-12.676,12.984
							C310.615,200.688,310.14,200.706,309.971,200.407z"/>
						<polygon style="fill:#8DADE0;" points="307.728,192.725 311.632,199.646 322.723,188.286 318.819,181.365 						"/>
						<path style="fill:#8DADE0;" d="M309.047,196.709c-0.145,0.187-0.354,0.244-0.467,0.128c-0.112-0.117-0.086-0.363,0.059-0.55
							c0.145-0.187,0.354-0.244,0.466-0.128C309.218,196.276,309.192,196.522,309.047,196.709z"/>
						
							<line style="fill:none;stroke:#8DADE0;stroke-width:0.25;stroke-linecap:round;stroke-miterlimit:10;" x1="321.06" y1="183.39" x2="321.731" y2="184.619"/>
						<g>
							<path style="opacity:0.55;fill:#8DADE0;" d="M316.551,185.091c-0.138,0.177-0.335,0.231-0.442,0.121
								c-0.107-0.11-0.081-0.344,0.056-0.521c0.138-0.177,0.335-0.231,0.442-0.121C316.714,184.68,316.689,184.913,316.551,185.091z
								"/>
							<path style="opacity:0.51;fill:#FFFFFF;" d="M320.854,188.355l-2.057-3.646c-0.22-0.39-0.839-0.368-1.245,0.045l-0.923,0.956
								l-0.374-0.021l2.521,4.44c0.22,0.39,0.839,0.368,1.245-0.045l0.568-0.578C320.932,189.156,321.041,188.685,320.854,188.355z"
								/>
							
								<line style="fill:none;stroke:#8DADE0;stroke-width:0.25;stroke-linecap:round;stroke-miterlimit:10;" x1="318.025" y1="185.304" x2="320.103" y2="188.972"/>
							
								<line style="fill:none;stroke:#8DADE0;stroke-width:0.25;stroke-linecap:round;stroke-miterlimit:10;" x1="317.328" y1="186.027" x2="318.52" y2="188.133"/>
						</g>
						<g>
							<path style="opacity:0.55;fill:#8DADE0;" d="M309.54,192.022c-0.138,0.177-0.335,0.231-0.442,0.121
								c-0.107-0.11-0.081-0.344,0.056-0.521c0.138-0.177,0.336-0.231,0.442-0.121C309.702,191.612,309.677,191.845,309.54,192.022z
								"/>
							<path style="opacity:0.51;fill:#FFFFFF;" d="M313.843,195.286l-2.057-3.647c-0.22-0.39-0.839-0.368-1.245,0.045l-0.923,0.957
								l-0.374-0.021l2.521,4.439c0.22,0.39,0.839,0.368,1.245-0.045l0.568-0.578C313.921,196.087,314.029,195.617,313.843,195.286z
								"/>
							
								<line style="fill:none;stroke:#8DADE0;stroke-width:0.25;stroke-linecap:round;stroke-miterlimit:10;" x1="311.014" y1="192.236" x2="313.092" y2="195.904"/>
							
								<line style="fill:none;stroke:#8DADE0;stroke-width:0.25;stroke-linecap:round;stroke-miterlimit:10;" x1="310.316" y1="192.959" x2="311.509" y2="195.064"/>
						</g>
						<g>
							<path style="opacity:0.55;fill:#8DADE0;" d="M316.571,194.158c-0.138,0.177-0.336,0.231-0.442,0.121
								c-0.107-0.11-0.081-0.344,0.056-0.521c0.138-0.177,0.335-0.231,0.442-0.121C316.734,193.747,316.709,193.98,316.571,194.158z
								"/>
							<path style="opacity:0.51;fill:#FFFFFF;" d="M317.195,191.383l-2.225-3.945c-0.184-0.326-0.703-0.306-1.04,0.041
								l-0.878,0.903c-0.241,0.248-0.316,0.58-0.183,0.812l2.754,4.829l0.135-0.556l1.249-1.271
								C317.25,191.949,317.327,191.617,317.195,191.383z"/>
							
								<line style="fill:none;stroke:#8DADE0;stroke-width:0.25;stroke-linecap:round;stroke-miterlimit:10;" x1="314.274" y1="188.168" x2="316.352" y2="191.836"/>
							
								<line style="fill:none;stroke:#8DADE0;stroke-width:0.25;stroke-linecap:round;stroke-miterlimit:10;" x1="313.576" y1="188.892" x2="314.769" y2="190.997"/>
							
								<line style="fill:none;stroke:#8DADE0;stroke-width:0.25;stroke-linecap:round;stroke-miterlimit:10;" x1="314.929" y1="191.333" x2="315.392" y2="192.149"/>
						</g>
						<g>
							<defs>
								<path id="SVGID_00000083780601226530223090000014831675629712736436_" d="M309.971,200.407l-3.342-5.925
									c-0.133-0.236-0.056-0.573,0.188-0.824l12.743-13.052c0.276-0.283,0.701-0.299,0.851-0.032l3.378,5.989
									c0.133,0.236,0.056,0.573-0.189,0.824l-12.676,12.984C310.615,200.688,310.14,200.706,309.971,200.407z"/>
							</defs>
							<clipPath id="SVGID_00000181789685865508428190000013000803638594793902_">
								<use xlink:href="#SVGID_00000083780601226530223090000014831675629712736436_"  style="overflow:visible;"/>
							</clipPath>
							
								<linearGradient id="SVGID_00000014610229009178348070000013700928255260243618_" gradientUnits="userSpaceOnUse" x1="791.6402" y1="172.2129" x2="802.0793" y2="154.1318" gradientTransform="matrix(-0.8206 -0.4232 0.6517 -0.8825 862.5551 672.4246)">
								<stop  offset="0" style="stop-color:#FFFFFF;stop-opacity:0.6"/>
								<stop  offset="0.8878" style="stop-color:#FFFFFF;stop-opacity:0.1"/>
							</linearGradient>
							
								<polygon style="clip-path:url(#SVGID_00000181789685865508428190000013000803638594793902_);fill:url(#SVGID_00000014610229009178348070000013700928255260243618_);" points="
								324.706,184.458 325.406,185.973 305.277,197.93 304.577,196.415 							"/>
							
								<linearGradient id="SVGID_00000146482738234275099800000009825229388185145000_" gradientUnits="userSpaceOnUse" x1="792.6715" y1="173.9473" x2="803.1042" y2="155.8773" gradientTransform="matrix(-0.8206 -0.4232 0.6517 -0.8825 862.5551 672.4246)">
								<stop  offset="0" style="stop-color:#FFFFFF;stop-opacity:0.6"/>
								<stop  offset="0.8878" style="stop-color:#FFFFFF;stop-opacity:0.1"/>
							</linearGradient>
							
								<polygon style="clip-path:url(#SVGID_00000181789685865508428190000013000803638594793902_);fill:url(#SVGID_00000146482738234275099800000009825229388185145000_);" points="
								325.259,183.056 325.433,183.434 305.304,195.391 305.13,195.012 							"/>
						</g>
					</g>
					<path style="fill:#DB6653;" d="M273.55,196.238l5.486,13.482l25.504-14.87c0,0,6.78,6.654,5.902,10.535
						c-12.886,11.307-30.282,31.368-41.672,26.279c-9.75-4.356-19.739-34.768-19.739-34.768"/>
					<path style="fill:none;stroke:#B74539;stroke-width:0.75;stroke-miterlimit:10;" d="M279.036,209.72
						c0,0-5.018,2.565-10.266,7.451"/>
					<path style="fill:#DB6653;" d="M307.846,207.622c0,0,9.165-7.843,10.632-9.475c1.467-1.632,5.435-6.173,4.602-6.6
						c-0.833-0.427-5.353,3.552-6.002,4.271c-2.121,0.035-6.637,1.719-8.088,4.621"/>
					<path style="fill:#3E49E1;" d="M254.207,160.479c0,0,14.827,4.982,23.558,42.838c-4.402,3.995-23.803,10.05-28.491,8.849
						c-3.342-8.652-3.639-28.854-3.639-28.854"/>
				</g>
				<g>
					<path style="fill:#3E49E1;" d="M259.02,172.5c0,0,6.392,10.77,2.672,40.385c-3.72,29.615-6.759,45.348-6.759,45.348
						s-28.02,13.844-63.962,0c0.685-19.728,5.384-63.211,20.029-81.728c15.893-20.095,28.806-19.276,28.806-19.276l15.224,4.369
						L259.02,172.5z"/>
					<path style="fill:none;stroke:#152377;stroke-width:0.75;stroke-miterlimit:10;" d="M262.058,209.72
						c0,0,3.397-18.513-0.778-30.481"/>
				</g>
				<g>
					<path style="fill:#DB6653;" d="M198.456,173.071c0,0-17.957,29.429-23.089,41.579c-6.583,15.587-5.474,59.319-5.474,59.319
						l7.883,1.609l15.516-53.774l23.221-30.649"/>
					<path style="fill:#3E49E1;" d="M239.806,157.228c0,0-25.274-2.943-37.684,9.467c-12.157,12.157-19.927,29.403-19.927,29.403
						s16.058,18.882,36.014,16.588l14.222-35.555"/>
					<path style="fill:none;stroke:#152377;stroke-width:0.75;stroke-miterlimit:10;" d="M182.195,196.099
						c0,0,16.058,18.882,36.014,16.588l14.222-35.555"/>
					<g>
						<path style="fill:#DB6653;" d="M179.632,268.008c-0.233,2.925,0.324,8.898,0.091,11.823c-0.137,1.725-0.532,4.73-1.172,4.812
							c-1.646,0.21-0.276-4.642-1.111-4.535c-0.507,0.065-0.704,3.802-0.812,5.718c-0.097,1.71-0.422,3.997-1.308,4.168
							c-1.138,0.219-0.535-9.366-0.535-9.366s-0.985,10.034-1.951,10.158c-1.392,0.178-0.42-9.92-0.42-9.92
							s-0.965,8.534-1.996,8.665c-1.031,0.132-0.193-6.109-0.208-8.724c-0.354,1.848-0.856,6.754-1.607,6.85
							c-0.751,0.096-0.797-3.609-0.722-4.518c0.454-5.491,2.268-16.21,2.268-16.21"/>
					</g>
				</g>
				<g>
					<path style="fill:#DB6653;" d="M256.566,148.986l-8.209-14.238l-6.441,11.365l0.428,2.611l-2.539,8.504
						c2.539,7.533,13.04,8.379,15.224,4.369L256.566,148.986"/>
					<path style="fill:#DB6653;" d="M263.81,129.887c1.343,5.066,1.7,22.274-2.367,24.088c-4.067,1.814-12.283,0.081-14.681-2.995
						c-2.081-2.668-4.048-16.98-0.307-20.469C250.197,127.021,261.927,122.784,263.81,129.887z"/>
					<g>
						<path style="fill:#611223;" d="M252.414,133.799c0.635-1.119,1.227-2.264,1.773-3.429c4.174,1.154,8.348,2.309,12.522,3.463
							c0.182,0.05,0.385,0.099,0.552,0.009c0.129-0.069,0.204-0.206,0.266-0.338c0.682-1.451,0.57-3.151,0.233-4.719
							c-0.464-2.158-1.358-4.269-2.872-5.875c-2.019-2.141-5.043-3.212-7.984-3.1c-2.941,0.112-5.781,1.34-8.074,3.186
							c-0.196,0.158-0.395,0.324-0.637,0.393c-0.215,0.062-0.444,0.042-0.667,0.033c-3.731-0.154-7.712,3.095-8.774,6.58
							c-0.599,1.966-1.334,5.243,0.272,7.612c0.765,1.129,2.999,9.183,2.999,9.183s2.571-1.842,2.85-2.064
							c0.941-0.748,1.728-2.01,2.361-3.022c0.707-1.128,1.416-2.196,2.209-3.292C250.518,136.935,251.51,135.392,252.414,133.799z"
							/>
					</g>
					<g>
						<path style="fill:#DB6653;" d="M248.858,140.629c-0.492-0.9-1.143-1.915-2.088-2.002c-0.489-0.045-0.955,0.188-1.309,0.525
							c-1.819,1.733-1.96,5.073-0.052,6.818c0.798,0.729,1.908,1.064,2.649,0.055l0.95-4.762
							C249.078,141.058,248.966,140.826,248.858,140.629z"/>
					</g>
					<path style="fill:none;stroke:#B74539;stroke-width:0.75;stroke-miterlimit:10;" d="M255.864,154.95
						c0,0-6.574-0.238-9.331-4.313"/>
					<path style="fill:none;stroke:#B74539;stroke-width:0.75;stroke-miterlimit:10;" d="M260.72,138.573
						c0,0,2.275,4.757,1.347,5.933c-0.928,1.176-3.047,0.244-3.047,0.244"/>
					<g>
						<path style="fill:#3F111D;" d="M257.166,138.01c0.111,0.322,0.083,0.756,0.101,1.018c0.032,0.465-0.471,0.717-0.895,0.579
							c-0.789-0.255-0.643-2.12,0.332-2.005C256.956,137.632,257.092,137.796,257.166,138.01z"/>
					</g>
					<g>
						<path style="fill:#3F111D;" d="M263.719,138.01c0.111,0.322,0.083,0.756,0.101,1.018c0.032,0.465-0.471,0.717-0.895,0.579
							c-0.789-0.255-0.643-2.12,0.332-2.005C263.509,137.632,263.645,137.796,263.719,138.01z"/>
					</g>
					<path style="fill:#FFFFFF;" d="M261.692,147.938l-6.755-1.926c0,0-0.268,5.146,3.817,5.911
						C261.236,152.388,261.692,147.938,261.692,147.938z"/>
					<g>
						<path style="fill:#3F111D;" d="M257.696,135.519c-1.295,0.015-2.689,0.313-3.833,0.806c-0.13-0.07-0.466-0.686-0.271-1.049
							c0.153-0.286,2.185-0.991,4.023-0.949C257.615,134.327,257.95,135.354,257.696,135.519z"/>
					</g>
					<g>
						<path style="fill:#3F111D;" d="M261.323,135.448c0.934,0.011,1.883,0.294,2.614,0.763c0.108-0.067,0.336-0.577,0.266-0.924
							c-0.055-0.274-1.386-0.945-2.724-0.9C261.479,134.388,261.171,135.29,261.323,135.448z"/>
					</g>
					<path style="fill:none;stroke:#B74539;stroke-width:0.75;stroke-miterlimit:10;" d="M244.602,144.936
						c0,0,1.333,1.992,3.122,1.435"/>
				</g>
			</g>
		</g>
		<g>
			<g>
				<g>
					<g>
						<path style="fill:#FF5061;" d="M183.975,349.091c3.074-4.276,8.711-6.139,13.748-4.6c5.557,1.698,8.853,6.671,8.91,11.912
							c4.04-3.34,9.969-4.032,14.853-0.88c4.425,2.855,6.638,8.363,5.354,13.47c-1.1,4.373-4.181,7.486-7.903,8.848l-26.81,9.81
							l-9.811-26.81C180.953,357.119,181.342,352.754,183.975,349.091z"/>
					</g>
					<path style="fill:none;stroke:#FFDAD7;stroke-width:0.75;stroke-miterlimit:10;" d="M196.52,378.187
						c0,0,11.339-18.861,30.534-9.071"/>
					<path style="fill:none;stroke:#FFDAD7;stroke-width:0.75;stroke-miterlimit:10;" d="M201.985,371.849
						c-0.648-14.419-14.725-16.78-20.5-13.615"/>
					<path style="fill:none;stroke:#FFDAD7;stroke-width:0.75;stroke-miterlimit:10;" d="M211.981,366.628
						c0.174-3.156-5.883-10.783-13.913-5.015"/>
					<path style="fill:none;stroke:#FFDAD7;stroke-width:0.75;stroke-miterlimit:10;" d="M222.838,367.316
						c0,0-1.353-11.793-16.119-7.275"/>
					<path style="fill:none;stroke:#FFDAD7;stroke-width:0.75;stroke-miterlimit:10;" d="M187.841,356.897
						c2.843-11.46,19.766-11.009,18.383,2.999"/>
				</g>
				<g>
					<path d="M189.207,379.194c0.387-0.275,0.804-0.258,1.167-0.164c1.035,0.267,1.87,1.102,2.288,2.287
						c0.05-0.667,0.119-1.38,0.451-2c0.717-1.339,2.251-1.392,2.923-0.484c0.672,0.908,0.749,2.378,0.88,3.734
						c0.01,0.102,0.021,0.208,0.066,0.284c0.122,0.208,0.408,0.103,0.643,0.013c1.58-0.605,3.13,0.231,3.6,1.944
						c0.064,0.232,0.109,0.496,0.032,0.77c-0.157,0.562-0.695,0.836-1.133,0.995c-2.546,0.925-8.046,3.332-8.046,3.332
						s-2.533-4.751-3.371-7.088c-0.196-0.548-0.384-1.128-0.352-1.799C188.387,380.348,188.696,379.558,189.207,379.194z"/>
				</g>
				<path style="fill:none;stroke:#000000;stroke-width:1.5;stroke-miterlimit:10;" d="M182.649,437.254
					c0,0-0.265-28.728,11.579-52.396"/>
				<g>
					<path d="M204.374,394.736c-2.93-0.804-7.79-1.128-10.118-0.832c-3.289,0.418-6.108,2.999-4.729,5.648
						C192.267,403.46,200.62,400.138,204.374,394.736z"/>
				</g>
				<g>
					<path d="M178.647,386.312c0.403,3.011,2.002,7.613,3.183,9.64c1.669,2.865,5.146,4.453,7.046,2.149
						C191.405,394.055,185.086,387.66,178.647,386.312z"/>
				</g>
			</g>
			<g>
				<g>
					<g>
						<path style="fill:#FF5061;" d="M569.495,348.1c-3.075-4.969-9.172-7.464-14.866-6.146
							c-6.281,1.454-10.311,6.706-10.775,12.503c-4.217-4.007-10.726-5.227-16.375-2.112c-5.117,2.822-7.989,8.749-6.959,14.501
							c0.882,4.925,4.055,8.607,8.07,10.4l28.926,12.914l12.915-28.926C572.225,357.218,572.129,352.356,569.495,348.1z"/>
					</g>
					<path style="fill:none;stroke:#FFDAD7;stroke-width:0.75;stroke-miterlimit:10;" d="M555.611,384.742
						c0,0-9.631-29.174-35.337-17.776"/>
					<path style="fill:none;stroke:#FFDAD7;stroke-width:0.75;stroke-miterlimit:10;" d="M547.815,371.913
						c1.822-15.911,17.586-17.447,23.736-13.5"/>
					<path style="fill:none;stroke:#FFDAD7;stroke-width:0.75;stroke-miterlimit:10;" d="M537.149,365.366
						c0.05-3.507,7.339-11.486,15.785-4.485"/>
					<path style="fill:none;stroke:#FFDAD7;stroke-width:0.75;stroke-miterlimit:10;" d="M525.078,365.296
						c0,0,2.401-12.95,18.401-6.818"/>
					<path style="fill:none;stroke:#FFDAD7;stroke-width:0.75;stroke-miterlimit:10;" d="M564.617,356.445
						c-2.269-12.904-21.036-13.701-20.579,1.911"/>
				</g>
				<g>
					<path d="M561.773,382.26c-0.434-0.298-0.896-0.272-1.297-0.162c-1.144,0.315-2.055,1.255-2.499,2.577
						c-0.067-0.739-0.156-1.529-0.535-2.211c-0.818-1.474-2.522-1.506-3.252-0.486c-0.73,1.02-0.79,2.651-0.912,4.159
						c-0.009,0.114-0.02,0.231-0.068,0.316c-0.131,0.233-0.451,0.121-0.713,0.026c-1.764-0.644-3.469,0.311-3.961,2.219
						c-0.067,0.259-0.112,0.552-0.022,0.855c0.184,0.62,0.785,0.916,1.274,1.085c2.841,0.982,8.984,3.558,8.984,3.558
						s2.728-5.315,3.617-7.923c0.208-0.612,0.407-1.258,0.36-2.002C562.703,383.526,562.346,382.655,561.773,382.26z"/>
				</g>
				<path style="fill:none;stroke:#000000;stroke-width:1.5;stroke-miterlimit:10;" d="M570.482,437.254
					c0,0-2.493-25.743-14.133-48.643"/>
				<g>
					<path d="M574.802,385.313c-3.643,2.023-8.717,6.37-10.713,8.893c-2.822,3.566-3.107,8.8,0.786,10.072
						C571.309,405.48,576.307,394.209,574.802,385.313z"/>
				</g>
				<g>
					<path d="M541.509,401.746c3.284,2.564,9.267,5.539,12.369,6.392c4.385,1.206,9.315-0.574,8.966-4.655
						C561.44,397.091,549.112,396.888,541.509,401.746z"/>
				</g>
			</g>
			<g>
				<g>
					<g>
						<path style="fill:#FF5061;" d="M585.158,365.694c2.182-3.325,6.375-4.912,10.224-3.913c4.247,1.102,6.894,4.748,7.105,8.7
							c2.941-2.65,7.392-3.362,11.178-1.142c3.43,2.012,5.277,6.096,4.473,9.991c-0.689,3.335-2.914,5.782-5.678,6.93l-19.911,8.264
							l-8.265-19.911C583.136,371.848,583.289,368.542,585.158,365.694z"/>
					</g>
					<path style="fill:none;stroke:#FFDAD7;stroke-width:0.75;stroke-miterlimit:10;" d="M595.559,387.242
						c0,0,7.948-14.595,22.745-7.826"/>
					<path style="fill:none;stroke:#FFDAD7;stroke-width:0.75;stroke-miterlimit:10;" d="M599.478,382.285
						c-0.953-10.858-11.65-12.186-15.905-9.612"/>
					<path style="fill:none;stroke:#FFDAD7;stroke-width:0.75;stroke-miterlimit:10;" d="M606.852,378.024
						c0.029-2.387-4.786-7.946-10.658-3.336"/>
					<path style="fill:none;stroke:#FFDAD7;stroke-width:0.75;stroke-miterlimit:10;" d="M615.065,378.193
						c0,0-1.4-8.854-12.396-4.97"/>
					<path style="fill:none;stroke:#FFDAD7;stroke-width:0.75;stroke-miterlimit:10;" d="M588.326,371.459
						c1.776-8.738,14.558-8.941,13.966,1.671"/>
				</g>
				<g>
					<path d="M590.074,388.237c0.283-0.22,0.598-0.22,0.875-0.161c0.789,0.169,1.446,0.771,1.8,1.652
						c0.016-0.505,0.045-1.045,0.276-1.524c0.498-1.034,1.654-1.123,2.19-0.459c0.536,0.664,0.642,1.77,0.784,2.789
						c0.011,0.077,0.023,0.156,0.059,0.212c0.098,0.153,0.311,0.065,0.485-0.011c1.173-0.508,2.369,0.074,2.779,1.351
						c0.055,0.173,0.098,0.371,0.049,0.58c-0.1,0.429-0.497,0.653-0.823,0.787c-1.891,0.78-5.963,2.773-5.963,2.773
						s-2.064-3.503-2.771-5.239c-0.166-0.407-0.326-0.839-0.324-1.346C589.492,389.134,589.7,388.528,590.074,388.237z"/>
				</g>
				<path style="fill:none;stroke:#000000;stroke-width:1.5;stroke-miterlimit:10;" d="M581.127,437.254
					c0,0,0.504-26.29,12.6-42.998"/>
				<g>
					<path d="M576.993,399.198c2.555,1.23,6.174,3.982,7.631,5.618c2.058,2.311,2.46,5.856-0.135,6.874
						C580.165,412.761,576.323,405.302,576.993,399.198z"/>
				</g>
				<g>
					<path d="M600.263,409.044c-2.13,1.872-6.076,4.13-8.15,4.833c-2.931,0.993-6.351-0.021-6.276-2.807
						C586.538,406.671,594.906,406.045,600.263,409.044z"/>
				</g>
			</g>
		</g>
		<g>
			<path style="fill:#FFFFFF;" d="M343.234,148.233h-66.818l5.88-5.045v-9.922c0-8.266,6.701-14.967,14.968-14.967h45.97
				c8.266,0,14.967,6.701,14.967,14.967v0C358.202,141.532,351.5,148.233,343.234,148.233z"/>
			<g>
				<path style="fill:#FFDAD7;stroke:#FFFFFF;stroke-width:1.5;stroke-linejoin:round;stroke-miterlimit:10;" d="M396.388,234.592
					H329.57l5.88-5.045v-9.922c0-8.266,6.701-14.967,14.967-14.967h45.97c8.266,0,14.967,6.701,14.967,14.967l0,0
					C411.355,227.891,404.654,234.592,396.388,234.592z"/>
			</g>
			<g>
				
					<line style="fill:none;stroke:#FFFFFF;stroke-width:1.5;stroke-linecap:round;stroke-linejoin:round;stroke-miterlimit:10;" x1="102.167" y1="299.032" x2="118.747" y2="299.032"/>
				
					<line style="fill:none;stroke:#FFFFFF;stroke-width:1.5;stroke-linecap:round;stroke-linejoin:round;stroke-miterlimit:10;" x1="123.406" y1="299.032" x2="130.698" y2="299.032"/>
			</g>
			<g>
				
					<line style="fill:none;stroke:#FFFFFF;stroke-width:1.5;stroke-linecap:round;stroke-linejoin:round;stroke-miterlimit:10;" x1="411.481" y1="133.479" x2="428.061" y2="133.479"/>
				
					<line style="fill:none;stroke:#FFFFFF;stroke-width:1.5;stroke-linecap:round;stroke-linejoin:round;stroke-miterlimit:10;" x1="432.72" y1="133.479" x2="440.012" y2="133.479"/>
			</g>
			<g>
				
					<line style="fill:none;stroke:#FFFFFF;stroke-width:1.5;stroke-linecap:round;stroke-linejoin:round;stroke-miterlimit:10;" x1="428.512" y1="360.755" x2="428.512" y2="365.379"/>
				
					<line style="fill:none;stroke:#FFFFFF;stroke-width:1.5;stroke-linecap:round;stroke-linejoin:round;stroke-miterlimit:10;" x1="430.825" y1="363.067" x2="426.2" y2="363.067"/>
			</g>
			<g>
				
					<line style="fill:none;stroke:#FFFFFF;stroke-width:1.5;stroke-linecap:round;stroke-linejoin:round;stroke-miterlimit:10;" x1="548.464" y1="290.624" x2="548.464" y2="295.248"/>
				
					<line style="fill:none;stroke:#FFFFFF;stroke-width:1.5;stroke-linecap:round;stroke-linejoin:round;stroke-miterlimit:10;" x1="550.776" y1="292.936" x2="546.152" y2="292.936"/>
			</g>
			<g>
				
					<line style="fill:none;stroke:#FFFFFF;stroke-width:1.5;stroke-linecap:round;stroke-linejoin:round;stroke-miterlimit:10;" x1="424.68" y1="223.038" x2="424.68" y2="227.662"/>
				
					<line style="fill:none;stroke:#FFFFFF;stroke-width:1.5;stroke-linecap:round;stroke-linejoin:round;stroke-miterlimit:10;" x1="426.992" y1="225.35" x2="422.368" y2="225.35"/>
			</g>
			<g>
				
					<line style="fill:none;stroke:#FFFFFF;stroke-width:1.5;stroke-linecap:round;stroke-linejoin:round;stroke-miterlimit:10;" x1="161.84" y1="210.009" x2="161.84" y2="214.633"/>
				
					<line style="fill:none;stroke:#FFFFFF;stroke-width:1.5;stroke-linecap:round;stroke-linejoin:round;stroke-miterlimit:10;" x1="164.152" y1="212.321" x2="159.528" y2="212.321"/>
			</g>
			<g>
				
					<line style="fill:none;stroke:#FFFFFF;stroke-width:1.5;stroke-linecap:round;stroke-linejoin:round;stroke-miterlimit:10;" x1="399.285" y1="111.103" x2="399.285" y2="115.727"/>
				
					<line style="fill:none;stroke:#FFFFFF;stroke-width:1.5;stroke-linecap:round;stroke-linejoin:round;stroke-miterlimit:10;" x1="401.597" y1="113.415" x2="396.972" y2="113.415"/>
			</g>
			<g>
				
					<line style="fill:none;stroke:#FFFFFF;stroke-width:1.5;stroke-linecap:round;stroke-linejoin:round;stroke-miterlimit:10;" x1="510.607" y1="69.875" x2="510.607" y2="74.499"/>
				
					<line style="fill:none;stroke:#FFFFFF;stroke-width:1.5;stroke-linecap:round;stroke-linejoin:round;stroke-miterlimit:10;" x1="512.919" y1="72.187" x2="508.295" y2="72.187"/>
			</g>
			<g>
				
					<line style="fill:none;stroke:#FFFFFF;stroke-width:1.5;stroke-linecap:round;stroke-linejoin:round;stroke-miterlimit:10;" x1="627.943" y1="254.693" x2="627.943" y2="259.318"/>
				
					<line style="fill:none;stroke:#FFFFFF;stroke-width:1.5;stroke-linecap:round;stroke-linejoin:round;stroke-miterlimit:10;" x1="630.256" y1="257.006" x2="625.631" y2="257.006"/>
			</g>
			
				<circle style="fill:none;stroke:#FFFFFF;stroke-width:1.5;stroke-linecap:round;stroke-linejoin:round;stroke-miterlimit:10;" cx="340.282" cy="172.318" r="2.208"/>
			<path style="fill:none;stroke:#FFFFFF;stroke-width:1.5;stroke-linecap:round;stroke-linejoin:round;stroke-miterlimit:10;" d="
				M428.891,97.229c0,1.219-0.988,2.208-2.208,2.208c-1.219,0-2.208-0.989-2.208-2.208c0-1.219,0.989-2.208,2.208-2.208
				C427.902,95.021,428.891,96.009,428.891,97.229z"/>
			<path style="fill:none;stroke:#FFFFFF;stroke-width:1.5;stroke-linecap:round;stroke-linejoin:round;stroke-miterlimit:10;" d="
				M223.046,72.187c0,1.219-0.988,2.208-2.208,2.208c-1.219,0-2.208-0.988-2.208-2.208c0-1.219,0.989-2.208,2.208-2.208
				C222.058,69.979,223.046,70.968,223.046,72.187z"/>
			
				<circle style="fill:none;stroke:#FFFFFF;stroke-width:1.5;stroke-linecap:round;stroke-linejoin:round;stroke-miterlimit:10;" cx="579.321" cy="223.142" r="2.208"/>
			<path style="fill:none;stroke:#FFFFFF;stroke-width:1.5;stroke-linecap:round;stroke-linejoin:round;stroke-miterlimit:10;" d="
				M618.333,320.96c0,1.219-0.989,2.208-2.208,2.208c-1.219,0-2.208-0.988-2.208-2.208c0-1.219,0.989-2.208,2.208-2.208
				C617.344,318.752,618.333,319.741,618.333,320.96z"/>
			<path style="fill:none;stroke:#FFFFFF;stroke-width:1.5;stroke-linecap:round;stroke-linejoin:round;stroke-miterlimit:10;" d="
				M102.959,372.847c0,1.219-0.988,2.208-2.208,2.208c-1.219,0-2.208-0.988-2.208-2.208c0-1.219,0.988-2.208,2.208-2.208
				C101.971,370.639,102.959,371.628,102.959,372.847z"/>
			
				<circle style="fill:none;stroke:#FFFFFF;stroke-width:1.5;stroke-linecap:round;stroke-linejoin:round;stroke-miterlimit:10;" cx="312.924" cy="330.837" r="2.208"/>
			
				<circle style="fill:none;stroke:#FFFFFF;stroke-width:1.5;stroke-linecap:round;stroke-linejoin:round;stroke-miterlimit:10;" cx="143.007" cy="184.902" r="2.208"/>
			
				<line style="fill:none;stroke:#FFFFFF;stroke-width:1.5;stroke-linecap:round;stroke-linejoin:round;stroke-miterlimit:10;" x1="345.593" y1="221.82" x2="381.635" y2="221.82"/>
			
				<line style="fill:none;stroke:#FFFFFF;stroke-width:1.5;stroke-linecap:round;stroke-linejoin:round;stroke-miterlimit:10;" x1="609.219" y1="352.352" x2="627.446" y2="352.352"/>
			<g>
				<g>
					<path style="fill:#FF5061;" d="M589.932,176.474c-0.438-2.799-2.701-5.093-5.494-5.569c-3.188-0.542-6.026,1.158-7.27,3.764
						c-1.244-2.606-4.082-4.306-7.27-3.763c-2.793,0.476-5.056,2.77-5.494,5.569c-0.359,2.294,0.436,4.416,1.895,5.875l9.631,9.631
						c0.684,0.684,1.792,0.684,2.476,0l9.631-9.631C589.495,180.89,590.291,178.768,589.932,176.474z"/>
				</g>
				<g>
					
						<line style="fill:none;stroke:#FFFFFF;stroke-width:1.5;stroke-linecap:round;stroke-linejoin:round;stroke-miterlimit:10;" x1="577.168" y1="157.869" x2="577.168" y2="161.659"/>
					
						<line style="fill:none;stroke:#FFFFFF;stroke-width:1.5;stroke-linecap:round;stroke-linejoin:round;stroke-miterlimit:10;" x1="577.168" y1="198.541" x2="577.168" y2="202.331"/>
					
						<line style="fill:none;stroke:#FFFFFF;stroke-width:1.5;stroke-linecap:round;stroke-linejoin:round;stroke-miterlimit:10;" x1="599.399" y1="180.1" x2="595.609" y2="180.1"/>
					
						<line style="fill:none;stroke:#FFFFFF;stroke-width:1.5;stroke-linecap:round;stroke-linejoin:round;stroke-miterlimit:10;" x1="558.727" y1="180.1" x2="554.936" y2="180.1"/>
					
						<line style="fill:none;stroke:#FFFFFF;stroke-width:1.5;stroke-linecap:round;stroke-linejoin:round;stroke-miterlimit:10;" x1="561.448" y1="164.38" x2="564.128" y2="167.06"/>
					
						<line style="fill:none;stroke:#FFFFFF;stroke-width:1.5;stroke-linecap:round;stroke-linejoin:round;stroke-miterlimit:10;" x1="590.208" y1="193.14" x2="592.888" y2="195.82"/>
					
						<line style="fill:none;stroke:#FFFFFF;stroke-width:1.5;stroke-linecap:round;stroke-linejoin:round;stroke-miterlimit:10;" x1="592.888" y1="164.38" x2="590.208" y2="167.06"/>
					
						<line style="fill:none;stroke:#FFFFFF;stroke-width:1.5;stroke-linecap:round;stroke-linejoin:round;stroke-miterlimit:10;" x1="564.128" y1="193.14" x2="561.448" y2="195.82"/>
					
						<line style="fill:none;stroke:#FFFFFF;stroke-width:1.5;stroke-linecap:round;stroke-linejoin:round;stroke-miterlimit:10;" x1="568.66" y1="159.561" x2="570.111" y2="163.062"/>
					
						<line style="fill:none;stroke:#FFFFFF;stroke-width:1.5;stroke-linecap:round;stroke-linejoin:round;stroke-miterlimit:10;" x1="584.225" y1="197.137" x2="585.675" y2="200.639"/>
					
						<line style="fill:none;stroke:#FFFFFF;stroke-width:1.5;stroke-linecap:round;stroke-linejoin:round;stroke-miterlimit:10;" x1="597.707" y1="171.592" x2="594.205" y2="173.043"/>
					
						<line style="fill:none;stroke:#FFFFFF;stroke-width:1.5;stroke-linecap:round;stroke-linejoin:round;stroke-miterlimit:10;" x1="560.13" y1="187.157" x2="556.629" y2="188.607"/>
					
						<line style="fill:none;stroke:#FFFFFF;stroke-width:1.5;stroke-linecap:round;stroke-linejoin:round;stroke-miterlimit:10;" x1="556.629" y1="171.592" x2="560.13" y2="173.043"/>
					
						<line style="fill:none;stroke:#FFFFFF;stroke-width:1.5;stroke-linecap:round;stroke-linejoin:round;stroke-miterlimit:10;" x1="594.205" y1="187.157" x2="597.707" y2="188.607"/>
					
						<line style="fill:none;stroke:#FFFFFF;stroke-width:1.5;stroke-linecap:round;stroke-linejoin:round;stroke-miterlimit:10;" x1="585.675" y1="159.561" x2="584.225" y2="163.062"/>
					
						<line style="fill:none;stroke:#FFFFFF;stroke-width:1.5;stroke-linecap:round;stroke-linejoin:round;stroke-miterlimit:10;" x1="570.111" y1="197.137" x2="568.66" y2="200.639"/>
				</g>
			</g>
			<g>
				<g>
					<path style="fill:#FF5061;" d="M124.866,232.555c-0.438-2.799-2.701-5.093-5.494-5.569c-3.188-0.542-6.026,1.158-7.27,3.764
						c-1.244-2.606-4.082-4.306-7.27-3.763c-2.793,0.475-5.056,2.77-5.494,5.569c-0.359,2.294,0.436,4.416,1.895,5.875l9.631,9.631
						c0.684,0.684,1.792,0.684,2.476,0l9.631-9.631C124.43,236.972,125.226,234.849,124.866,232.555z"/>
				</g>
				<g>
					
						<line style="fill:none;stroke:#FFFFFF;stroke-width:1.5;stroke-linecap:round;stroke-linejoin:round;stroke-miterlimit:10;" x1="112.103" y1="213.95" x2="112.103" y2="217.74"/>
					
						<line style="fill:none;stroke:#FFFFFF;stroke-width:1.5;stroke-linecap:round;stroke-linejoin:round;stroke-miterlimit:10;" x1="112.103" y1="254.623" x2="112.103" y2="258.413"/>
					
						<line style="fill:none;stroke:#FFFFFF;stroke-width:1.5;stroke-linecap:round;stroke-linejoin:round;stroke-miterlimit:10;" x1="134.334" y1="236.182" x2="130.544" y2="236.182"/>
					
						<line style="fill:none;stroke:#FFFFFF;stroke-width:1.5;stroke-linecap:round;stroke-linejoin:round;stroke-miterlimit:10;" x1="93.661" y1="236.182" x2="89.871" y2="236.182"/>
					
						<line style="fill:none;stroke:#FFFFFF;stroke-width:1.5;stroke-linecap:round;stroke-linejoin:round;stroke-miterlimit:10;" x1="96.383" y1="220.462" x2="99.063" y2="223.142"/>
					
						<line style="fill:none;stroke:#FFFFFF;stroke-width:1.5;stroke-linecap:round;stroke-linejoin:round;stroke-miterlimit:10;" x1="125.143" y1="249.222" x2="127.823" y2="251.902"/>
					
						<line style="fill:none;stroke:#FFFFFF;stroke-width:1.5;stroke-linecap:round;stroke-linejoin:round;stroke-miterlimit:10;" x1="127.823" y1="220.462" x2="125.143" y2="223.142"/>
					
						<line style="fill:none;stroke:#FFFFFF;stroke-width:1.5;stroke-linecap:round;stroke-linejoin:round;stroke-miterlimit:10;" x1="99.063" y1="249.222" x2="96.383" y2="251.902"/>
					
						<line style="fill:none;stroke:#FFFFFF;stroke-width:1.5;stroke-linecap:round;stroke-linejoin:round;stroke-miterlimit:10;" x1="103.595" y1="215.643" x2="105.045" y2="219.144"/>
					
						<line style="fill:none;stroke:#FFFFFF;stroke-width:1.5;stroke-linecap:round;stroke-linejoin:round;stroke-miterlimit:10;" x1="119.16" y1="253.219" x2="120.61" y2="256.721"/>
					
						<line style="fill:none;stroke:#FFFFFF;stroke-width:1.5;stroke-linecap:round;stroke-linejoin:round;stroke-miterlimit:10;" x1="132.642" y1="227.674" x2="129.14" y2="229.124"/>
					
						<line style="fill:none;stroke:#FFFFFF;stroke-width:1.5;stroke-linecap:round;stroke-linejoin:round;stroke-miterlimit:10;" x1="95.065" y1="243.239" x2="91.563" y2="244.689"/>
					
						<line style="fill:none;stroke:#FFFFFF;stroke-width:1.5;stroke-linecap:round;stroke-linejoin:round;stroke-miterlimit:10;" x1="91.563" y1="227.674" x2="95.065" y2="229.124"/>
					
						<line style="fill:none;stroke:#FFFFFF;stroke-width:1.5;stroke-linecap:round;stroke-linejoin:round;stroke-miterlimit:10;" x1="129.14" y1="243.239" x2="132.642" y2="244.689"/>
					
						<line style="fill:none;stroke:#FFFFFF;stroke-width:1.5;stroke-linecap:round;stroke-linejoin:round;stroke-miterlimit:10;" x1="120.61" y1="215.643" x2="119.16" y2="219.144"/>
					
						<line style="fill:none;stroke:#FFFFFF;stroke-width:1.5;stroke-linecap:round;stroke-linejoin:round;stroke-miterlimit:10;" x1="105.045" y1="253.219" x2="103.595" y2="256.721"/>
				</g>
			</g>
			<g>
				<g>
					<path style="fill:#FF5061;" d="M362.219,75.519c-0.571-3.646-3.519-6.635-7.157-7.254c-4.153-0.707-7.849,1.508-9.47,4.902
						c-1.621-3.395-5.317-5.609-9.47-4.902c-3.638,0.619-6.586,3.608-7.156,7.254c-0.468,2.988,0.568,5.752,2.469,7.652
						l12.545,12.545c0.891,0.891,2.335,0.891,3.225,0l12.545-12.545C361.651,81.272,362.687,78.507,362.219,75.519z"/>
				</g>
				<g>
					
						<line style="fill:none;stroke:#FFFFFF;stroke-width:1.5;stroke-linecap:round;stroke-linejoin:round;stroke-miterlimit:10;" x1="345.593" y1="51.284" x2="345.593" y2="56.221"/>
					
						<line style="fill:none;stroke:#FFFFFF;stroke-width:1.5;stroke-linecap:round;stroke-linejoin:round;stroke-miterlimit:10;" x1="345.593" y1="104.265" x2="345.593" y2="109.202"/>
					
						<line style="fill:none;stroke:#FFFFFF;stroke-width:1.5;stroke-linecap:round;stroke-linejoin:round;stroke-miterlimit:10;" x1="374.552" y1="80.243" x2="369.615" y2="80.243"/>
					
						<line style="fill:none;stroke:#FFFFFF;stroke-width:1.5;stroke-linecap:round;stroke-linejoin:round;stroke-miterlimit:10;" x1="321.571" y1="80.243" x2="316.634" y2="80.243"/>
					
						<line style="fill:none;stroke:#FFFFFF;stroke-width:1.5;stroke-linecap:round;stroke-linejoin:round;stroke-miterlimit:10;" x1="325.116" y1="59.766" x2="328.607" y2="63.257"/>
					
						<line style="fill:none;stroke:#FFFFFF;stroke-width:1.5;stroke-linecap:round;stroke-linejoin:round;stroke-miterlimit:10;" x1="362.579" y1="97.229" x2="366.07" y2="100.72"/>
					
						<line style="fill:none;stroke:#FFFFFF;stroke-width:1.5;stroke-linecap:round;stroke-linejoin:round;stroke-miterlimit:10;" x1="366.07" y1="59.766" x2="362.579" y2="63.257"/>
					
						<line style="fill:none;stroke:#FFFFFF;stroke-width:1.5;stroke-linecap:round;stroke-linejoin:round;stroke-miterlimit:10;" x1="328.607" y1="97.229" x2="325.116" y2="100.72"/>
					
						<line style="fill:none;stroke:#FFFFFF;stroke-width:1.5;stroke-linecap:round;stroke-linejoin:round;stroke-miterlimit:10;" x1="334.511" y1="53.488" x2="336.4" y2="58.05"/>
					
						<line style="fill:none;stroke:#FFFFFF;stroke-width:1.5;stroke-linecap:round;stroke-linejoin:round;stroke-miterlimit:10;" x1="354.786" y1="102.436" x2="356.675" y2="106.997"/>
					
						<line style="fill:none;stroke:#FFFFFF;stroke-width:1.5;stroke-linecap:round;stroke-linejoin:round;stroke-miterlimit:10;" x1="372.347" y1="69.161" x2="367.786" y2="71.05"/>
					
						<line style="fill:none;stroke:#FFFFFF;stroke-width:1.5;stroke-linecap:round;stroke-linejoin:round;stroke-miterlimit:10;" x1="323.4" y1="89.436" x2="318.839" y2="91.325"/>
					
						<line style="fill:none;stroke:#FFFFFF;stroke-width:1.5;stroke-linecap:round;stroke-linejoin:round;stroke-miterlimit:10;" x1="318.839" y1="69.161" x2="323.4" y2="71.05"/>
					
						<line style="fill:none;stroke:#FFFFFF;stroke-width:1.5;stroke-linecap:round;stroke-linejoin:round;stroke-miterlimit:10;" x1="367.786" y1="89.436" x2="372.347" y2="91.325"/>
					
						<line style="fill:none;stroke:#FFFFFF;stroke-width:1.5;stroke-linecap:round;stroke-linejoin:round;stroke-miterlimit:10;" x1="356.675" y1="53.488" x2="354.786" y2="58.05"/>
					
						<line style="fill:none;stroke:#FFFFFF;stroke-width:1.5;stroke-linecap:round;stroke-linejoin:round;stroke-miterlimit:10;" x1="336.4" y1="102.436" x2="334.511" y2="106.997"/>
				</g>
			</g>
			<g>
				<g>
					
						<ellipse transform="matrix(0.916 -0.4011 0.4011 0.916 -28.52 130.2845)" style="fill:#FFC9C2;" cx="296.94" cy="133.266" rx="9.831" ry="9.831"/>
					<g>
						<path style="fill:#FF5061;" d="M307.735,137.03c0.212-0.641-0.018-1.373-0.557-1.778c-0.616-0.462-1.402-0.411-1.95,0.006
							c0.02-0.688-0.396-1.357-1.13-1.589c-0.643-0.204-1.373,0.036-1.77,0.581c-0.326,0.447-0.388,0.983-0.238,1.451l0.991,3.089
							c0.07,0.219,0.305,0.34,0.525,0.27l3.089-0.991C307.161,137.918,307.561,137.555,307.735,137.03z"/>
					</g>
				</g>
				<path style="fill:#FFFFFF;" d="M294.441,133.269c0,0.828-0.407,1.499-0.909,1.499c-0.502,0-0.909-0.671-0.909-1.499
					c0-0.828,0.407-1.499,0.909-1.499C294.034,131.77,294.441,132.441,294.441,133.269z"/>
				<g>
					<path style="fill:#FFFFFF;" d="M291.146,130.864c-0.049,0-0.099-0.01-0.146-0.033c-0.172-0.081-0.246-0.286-0.164-0.458
						c0.041-0.087,1.031-2.129,3.605-2.129c0.19,0,0.344,0.154,0.344,0.344s-0.154,0.344-0.344,0.344
						c-2.142,0-2.975,1.717-2.983,1.734C291.399,130.792,291.275,130.864,291.146,130.864z"/>
				</g>
				<g>
					<path style="fill:#FFFFFF;" d="M303.196,131.429c-0.096,0-0.192-0.04-0.26-0.118c-0.052-0.059-1.291-1.445-3.339-0.875
						c-0.185,0.05-0.373-0.057-0.423-0.239c-0.051-0.183,0.056-0.373,0.239-0.423c2.479-0.686,3.981,1.016,4.043,1.088
						c0.124,0.144,0.107,0.359-0.036,0.484C303.356,131.401,303.276,131.429,303.196,131.429z"/>
				</g>
				<g>
					<path style="fill:#FFFFFF;" d="M299.634,133.609c-0.071,0-0.143-0.022-0.204-0.067c-0.153-0.113-0.185-0.328-0.073-0.481
						c1.024-1.386,2.536-0.946,3.192-0.519c0.159,0.103,0.204,0.315,0.101,0.474c-0.102,0.159-0.314,0.205-0.475,0.103
						c-0.139-0.089-1.388-0.837-2.265,0.35C299.843,133.561,299.739,133.609,299.634,133.609z"/>
				</g>
				<g>
					<path style="fill:#FFFFFF;" d="M297.32,139.979c-0.101,0-0.201-0.045-0.269-0.13c-0.118-0.149-0.093-0.365,0.056-0.483
						l0.998-0.793l-0.631-0.27c-0.105-0.045-0.181-0.14-0.202-0.252c-0.021-0.113,0.015-0.229,0.097-0.309l0.636-0.624l-1.189-0.458
						c-0.177-0.068-0.265-0.267-0.197-0.444c0.068-0.177,0.267-0.267,0.444-0.197l1.688,0.651c0.109,0.042,0.189,0.137,0.213,0.251
						c0.024,0.114-0.012,0.233-0.096,0.315l-0.651,0.639l0.689,0.295c0.111,0.048,0.189,0.15,0.205,0.27
						c0.016,0.12-0.032,0.24-0.127,0.315l-1.45,1.151C297.471,139.954,297.396,139.979,297.32,139.979z"/>
				</g>
			</g>
			<g>
				<g>
					
						<ellipse transform="matrix(0.9248 -0.3804 0.3804 0.9248 -26.6325 131.7709)" style="fill:#FFC9C2;" cx="320.064" cy="133.266" rx="9.831" ry="9.831"/>
					<g>
						<path style="fill:#FF5061;" d="M330.859,137.03c0.212-0.641-0.017-1.373-0.557-1.778c-0.616-0.462-1.403-0.411-1.95,0.006
							c0.02-0.688-0.396-1.357-1.13-1.589c-0.643-0.204-1.373,0.036-1.77,0.581c-0.326,0.447-0.388,0.983-0.238,1.451l0.991,3.089
							c0.07,0.219,0.305,0.34,0.525,0.27l3.089-0.991C330.285,137.918,330.685,137.555,330.859,137.03z"/>
					</g>
				</g>
				<path style="fill:#FFFFFF;" d="M317.565,133.269c0,0.828-0.407,1.499-0.909,1.499c-0.502,0-0.909-0.671-0.909-1.499
					c0-0.828,0.407-1.499,0.909-1.499C317.158,131.77,317.565,132.441,317.565,133.269z"/>
				<g>
					<path style="fill:#FFFFFF;" d="M314.271,130.864c-0.049,0-0.099-0.01-0.146-0.033c-0.172-0.081-0.246-0.286-0.164-0.458
						c0.041-0.087,1.031-2.129,3.605-2.129c0.19,0,0.344,0.154,0.344,0.344s-0.154,0.344-0.344,0.344
						c-2.142,0-2.975,1.717-2.984,1.734C314.523,130.792,314.4,130.864,314.271,130.864z"/>
				</g>
				<g>
					<path style="fill:#FFFFFF;" d="M326.32,131.429c-0.096,0-0.192-0.04-0.26-0.118c-0.052-0.059-1.291-1.445-3.339-0.875
						c-0.185,0.05-0.373-0.057-0.423-0.239c-0.051-0.183,0.056-0.373,0.239-0.423c2.479-0.686,3.981,1.016,4.043,1.088
						c0.124,0.144,0.108,0.359-0.035,0.484C326.48,131.401,326.4,131.429,326.32,131.429z"/>
				</g>
				<g>
					<path style="fill:#FFFFFF;" d="M322.758,133.609c-0.071,0-0.143-0.022-0.204-0.067c-0.153-0.113-0.185-0.328-0.072-0.481
						c1.024-1.386,2.536-0.946,3.192-0.519c0.159,0.103,0.203,0.315,0.101,0.474c-0.102,0.159-0.314,0.205-0.475,0.103
						c-0.139-0.089-1.388-0.837-2.265,0.35C322.967,133.561,322.863,133.609,322.758,133.609z"/>
				</g>
				<g>
					<path style="fill:#FFFFFF;" d="M320.444,139.979c-0.101,0-0.201-0.045-0.269-0.13c-0.118-0.149-0.093-0.365,0.056-0.483
						l0.998-0.793l-0.631-0.27c-0.105-0.045-0.181-0.14-0.202-0.252c-0.022-0.113,0.015-0.229,0.097-0.309l0.636-0.624l-1.189-0.458
						c-0.177-0.068-0.265-0.267-0.197-0.444c0.069-0.177,0.267-0.267,0.445-0.197l1.688,0.651c0.109,0.042,0.189,0.137,0.213,0.251
						c0.024,0.114-0.012,0.233-0.096,0.315l-0.651,0.639l0.69,0.295c0.111,0.048,0.189,0.15,0.205,0.27
						c0.016,0.12-0.032,0.24-0.127,0.315l-1.45,1.151C320.595,139.954,320.52,139.979,320.444,139.979z"/>
				</g>
			</g>
			<g>
				<g>
					
						<ellipse transform="matrix(0.2307 -0.973 0.973 0.2307 134.3362 436.4467)" style="fill:#FFC9C2;" cx="343.188" cy="133.266" rx="9.831" ry="9.831"/>
					<g>
						<path style="fill:#FF5061;" d="M353.983,137.03c0.212-0.641-0.018-1.373-0.557-1.778c-0.616-0.462-1.403-0.411-1.95,0.006
							c0.02-0.688-0.396-1.357-1.13-1.589c-0.643-0.204-1.373,0.036-1.77,0.581c-0.326,0.447-0.389,0.983-0.238,1.451l0.991,3.089
							c0.07,0.219,0.305,0.34,0.525,0.27l3.089-0.991C353.41,137.918,353.809,137.555,353.983,137.03z"/>
					</g>
				</g>
				<path style="fill:#FFFFFF;" d="M340.689,133.269c0,0.828-0.407,1.499-0.909,1.499c-0.502,0-0.909-0.671-0.909-1.499
					c0-0.828,0.407-1.499,0.909-1.499C340.282,131.77,340.689,132.441,340.689,133.269z"/>
				<g>
					<path style="fill:#FFFFFF;" d="M337.395,130.864c-0.049,0-0.099-0.01-0.146-0.033c-0.172-0.081-0.246-0.286-0.164-0.458
						c0.041-0.087,1.031-2.129,3.605-2.129c0.19,0,0.344,0.154,0.344,0.344s-0.154,0.344-0.344,0.344
						c-2.142,0-2.975,1.717-2.984,1.734C337.647,130.792,337.524,130.864,337.395,130.864z"/>
				</g>
				<g>
					<path style="fill:#FFFFFF;" d="M349.444,131.429c-0.096,0-0.192-0.04-0.26-0.118c-0.052-0.059-1.291-1.445-3.339-0.875
						c-0.185,0.05-0.373-0.057-0.423-0.239c-0.051-0.183,0.056-0.373,0.239-0.423c2.479-0.686,3.981,1.016,4.043,1.088
						c0.124,0.144,0.107,0.359-0.036,0.484C349.604,131.401,349.524,131.429,349.444,131.429z"/>
				</g>
				<g>
					<path style="fill:#FFFFFF;" d="M345.882,133.609c-0.071,0-0.143-0.022-0.204-0.067c-0.153-0.113-0.185-0.328-0.073-0.481
						c1.024-1.386,2.536-0.946,3.192-0.519c0.159,0.103,0.203,0.315,0.101,0.474c-0.102,0.159-0.314,0.205-0.475,0.103
						c-0.139-0.089-1.388-0.837-2.265,0.35C346.091,133.561,345.987,133.609,345.882,133.609z"/>
				</g>
				<g>
					<path style="fill:#FFFFFF;" d="M343.569,139.979c-0.101,0-0.201-0.045-0.269-0.13c-0.118-0.149-0.093-0.365,0.056-0.483
						l0.998-0.793l-0.631-0.27c-0.105-0.045-0.181-0.14-0.202-0.252c-0.022-0.113,0.015-0.229,0.097-0.309l0.636-0.624l-1.189-0.458
						c-0.177-0.068-0.265-0.267-0.197-0.444c0.068-0.177,0.267-0.267,0.444-0.197l1.688,0.651c0.109,0.042,0.189,0.137,0.213,0.251
						c0.024,0.114-0.012,0.233-0.096,0.315l-0.651,0.639l0.689,0.295c0.111,0.048,0.189,0.15,0.205,0.27
						c0.016,0.12-0.031,0.24-0.127,0.315l-1.45,1.151C343.719,139.954,343.644,139.979,343.569,139.979z"/>
				</g>
			</g>
			<g>
				<path style="fill:#FFFFFF;" d="M376.427,179.849h66.818l-5.88-5.045v-9.922c0-8.266-6.701-14.967-14.967-14.967h-45.97
					c-8.266,0-14.967,6.701-14.967,14.967l0,0C361.46,173.148,368.161,179.849,376.427,179.849z"/>
				<g>
					<g>
						<path style="fill:#FF5061;" d="M412.627,161.442c0.291-1.86,1.795-3.385,3.652-3.701c2.119-0.361,4.005,0.77,4.832,2.501
							c0.827-1.732,2.713-2.862,4.832-2.501c1.856,0.316,3.36,1.841,3.651,3.702c0.239,1.525-0.29,2.935-1.26,3.905l-6.401,6.401
							c-0.455,0.454-1.191,0.454-1.646,0l-6.401-6.401C412.917,164.378,412.388,162.967,412.627,161.442z"/>
					</g>
					<g>
						<path style="fill:#FF5061;" d="M390.801,161.442c0.291-1.86,1.796-3.385,3.652-3.701c2.119-0.361,4.005,0.77,4.832,2.501
							c0.827-1.732,2.713-2.862,4.832-2.501c1.856,0.316,3.36,1.841,3.651,3.702c0.239,1.525-0.29,2.935-1.26,3.905l-6.401,6.401
							c-0.454,0.454-1.191,0.454-1.646,0l-6.401-6.401C391.091,164.378,390.562,162.967,390.801,161.442z"/>
					</g>
					<g>
						<path style="fill:#FF5061;" d="M368.974,161.442c0.291-1.86,1.796-3.385,3.652-3.701c2.119-0.361,4.005,0.77,4.832,2.501
							c0.827-1.732,2.713-2.862,4.832-2.501c1.856,0.316,3.361,1.841,3.652,3.702c0.239,1.525-0.29,2.935-1.26,3.905l-6.401,6.401
							c-0.454,0.454-1.191,0.454-1.646,0l-6.402-6.401C369.264,164.378,368.736,162.967,368.974,161.442z"/>
					</g>
				</g>
			</g>
			
				<line style="fill:none;stroke:#FFFFFF;stroke-width:1.5;stroke-linejoin:round;stroke-miterlimit:10;" x1="68.906" y1="437.254" x2="681.094" y2="437.254"/>
			
				<line style="fill:none;stroke:#FFFFFF;stroke-width:1.5;stroke-linecap:round;stroke-linejoin:round;stroke-miterlimit:10;" x1="386.027" y1="221.82" x2="397.908" y2="221.82"/>
			<g>
				<path style="fill:#FFDAD7;stroke:#FFFFFF;stroke-width:1.5;stroke-linejoin:round;stroke-miterlimit:10;" d="M398.799,272.741
					h66.818l-5.88-5.045v-9.922c0-8.266-6.701-14.967-14.967-14.967h-45.97c-8.266,0-14.967,6.701-14.967,14.967l0,0
					C383.831,266.04,390.533,272.741,398.799,272.741z"/>
				
					<line style="fill:none;stroke:#FFFFFF;stroke-width:1.5;stroke-linecap:round;stroke-linejoin:round;stroke-miterlimit:10;" x1="396.018" y1="261.146" x2="442.097" y2="261.146"/>
			</g>
		</g>
	</g>
</g>
<g id="DESIGNED_BY_FREEPIK">
	<g>
		<g id="XMLID_1_">
			<g id="XMLID_21_">
				<path id="XMLID_29_" style="fill:#1D262D;" d="M385.105,465.676c-0.433,0.442-0.804,0.931-1.108,1.452l-0.466-0.24
					c-0.066-0.298-0.349-0.503-0.658-0.467c-0.331,0.039-0.568,0.339-0.529,0.67c0.039,0.331,0.339,0.568,0.67,0.529
					c0.065-0.008,0.127-0.026,0.184-0.053l0.451,0.234c-0.251,0.554-0.433,1.139-0.539,1.744l0.746,0.131
					c0.231-1.306,0.85-2.506,1.792-3.472L385.105,465.676z"/>
				<path id="XMLID_28_" style="fill:#1D262D;" d="M390.592,463.373c-0.171,0-0.341,0.007-0.51,0.018l-0.073-0.626
					c0.188-0.149,0.296-0.39,0.266-0.645c-0.046-0.394-0.402-0.675-0.795-0.629c-0.394,0.047-0.675,0.402-0.629,0.796
					c0.03,0.254,0.189,0.461,0.405,0.564l0.073,0.624c-0.714,0.116-1.403,0.332-2.06,0.646l0.327,0.684
					c0.934-0.447,1.941-0.673,2.995-0.673c0.496,0,0.993,0.053,1.475,0.157l0.161-0.741
					C391.693,463.432,391.143,463.373,390.592,463.373z"/>
				<path id="XMLID_27_" style="fill:#1D262D;" d="M397.194,465.921c0.331-0.041,0.566-0.342,0.525-0.673
					c-0.04-0.331-0.342-0.565-0.672-0.525c-0.31,0.038-0.535,0.304-0.53,0.608l-0.416,0.363c-0.418-0.43-0.89-0.813-1.408-1.139
					l-0.403,0.641c1.134,0.715,2.02,1.727,2.563,2.926l0.69-0.313c-0.251-0.555-0.567-1.072-0.942-1.545l0.402-0.352
					C397.065,465.926,397.129,465.928,397.194,465.921z"/>
				<path id="XMLID_26_" style="fill:#1D262D;" d="M390.044,473.582c-0.386,0.023-0.774,0.034-1.157,0.034
					c-0.88,0-1.732-0.061-2.478-0.179c-0.391-0.063-0.847-0.155-1.271-0.292c1.046,1.86,3.069,3.125,5.389,3.125
					c2.855,0,5.262-1.916,5.949-4.504c-0.682,0.449-1.506,0.825-2.459,1.123C392.839,473.257,391.464,473.496,390.044,473.582z"/>
				<path id="XMLID_22_" style="fill:#1D262D;" d="M390.592,464.889c-3.353,0-6.079,2.666-6.079,5.943
					c0,0.426,0.046,0.849,0.137,1.262c0.674,0.482,2.706,0.89,5.348,0.73c2.879-0.173,5.297-0.957,6.672-2.158
					c-0.005-0.195-0.021-0.391-0.045-0.582C396.244,467.123,393.651,464.889,390.592,464.889z M388.433,471.404
					c-1.021,0-1.85-0.83-1.85-1.85c0-1.021,0.829-1.85,1.85-1.85c1.02,0,1.85,0.829,1.85,1.85
					C390.282,470.574,389.452,471.404,388.433,471.404z M393.17,470.496c-0.75,0-1.36-0.61-1.36-1.36s0.61-1.36,1.36-1.36
					s1.36,0.61,1.36,1.36S393.92,470.496,393.17,470.496z"/>
			</g>
			<path id="XMLID_19_" style="fill:#1D262D;" d="M406.596,466.757c-0.295-0.116-0.806-0.309-1.383-0.237
				c-0.551,0.068-0.844,0.341-0.844,1.007v0.865h2.228v1.718h-2.228v5.454h-1.932v-5.454h-1.34v-1.718h1.34v-0.888
				c0-1.681,0.896-2.783,2.568-2.783c0.642,0,1.157,0.122,1.59,0.309V466.757z"/>
			<path id="XMLID_17_" style="fill:#1D262D;" d="M411.298,470.089c-0.177-0.03-0.358-0.047-0.526-0.047
				c-0.895,0-1.51,0.548-1.51,1.614v3.907h-1.932v-7.172h1.873v0.785c0.451-0.674,1.14-0.978,2.021-0.978
				c0.414,0,0.848,0.128,1.094,0.337L411.298,470.089z"/>
			<path id="XMLID_14_" style="fill:#1D262D;" d="M418.965,471.966c0,0.222-0.015,0.488-0.037,0.651h-5.084
				c0.207,1.036,0.933,1.487,1.843,1.487c0.621,0,1.295-0.251,1.814-0.688l1.132,1.243c-0.813,0.747-1.85,1.088-3.057,1.088
				c-2.198,0-3.723-1.495-3.723-3.753c0-2.257,1.481-3.797,3.627-3.797C417.544,468.199,418.958,469.731,418.965,471.966z
				 M413.851,471.301h3.175c-0.177-0.918-0.732-1.436-1.562-1.436C414.554,469.864,414.022,470.412,413.851,471.301z"/>
			<path id="XMLID_11_" style="fill:#1D262D;" d="M426.618,471.966c0,0.222-0.015,0.488-0.037,0.651h-5.084
				c0.207,1.036,0.933,1.487,1.843,1.487c0.621,0,1.295-0.251,1.814-0.688l1.132,1.243c-0.815,0.747-1.851,1.088-3.057,1.088
				c-2.198,0-3.723-1.495-3.723-3.753c0-2.257,1.48-3.797,3.626-3.797C425.197,468.199,426.611,469.731,426.618,471.966z
				 M421.504,471.301h3.176c-0.178-0.918-0.733-1.436-1.563-1.436C422.207,469.864,421.674,470.412,421.504,471.301z"/>
			<path id="XMLID_8_" style="fill:#1D262D;" d="M434.964,471.974c0,2.153-1.495,3.775-3.471,3.775
				c-0.963,0-1.644-0.378-2.109-0.933v3.708h-1.925v-10.133h1.888v0.792c0.466-0.585,1.154-0.984,2.139-0.984
				C433.469,468.199,434.964,469.82,434.964,471.974z M429.287,471.974c0,1.132,0.748,1.976,1.843,1.976
				c1.14,0,1.851-0.881,1.851-1.976c0-1.096-0.711-1.977-1.851-1.977C430.035,469.998,429.287,470.841,429.287,471.974z"/>
			<path id="XMLID_4_" style="fill:#1D262D;" d="M438.068,466.046c0,0.695-0.54,1.229-1.235,1.229c-0.696,0-1.23-0.533-1.23-1.229
				c0-0.696,0.533-1.244,1.23-1.244C437.527,464.802,438.068,465.349,438.068,466.046z M437.809,475.563h-1.931v-7.172h1.931
				V475.563z"/>
			<path id="XMLID_2_" style="fill:#1D262D;" d="M441.032,470.945l2.701-2.554h2.369l-3.479,3.375l3.501,3.797h-2.376l-2.716-2.901
				v2.901h-1.932v-10.657h1.932V470.945z"/>
		</g>
		<g>
			<path style="fill:#1D262D;" d="M309.413,475.499v-1.055c-0.527,0.718-1.391,1.23-2.388,1.23c-1.846,0-3.149-1.406-3.149-3.706
				c0-2.256,1.289-3.721,3.149-3.721c0.952,0,1.816,0.469,2.388,1.245v-3.765h1.099v9.771H309.413z M309.413,473.58v-3.208
				c-0.395-0.615-1.245-1.143-2.124-1.143c-1.421,0-2.27,1.172-2.27,2.739c0,1.567,0.85,2.725,2.27,2.725
				C308.168,474.693,309.017,474.195,309.413,473.58z"/>
			<path style="fill:#1D262D;" d="M311.932,471.954c0-2.051,1.465-3.706,3.487-3.706c2.138,0,3.398,1.67,3.398,3.794v0.278h-5.728
				c0.088,1.333,1.025,2.446,2.549,2.446c0.806,0,1.626-0.322,2.183-0.893l0.527,0.718c-0.703,0.703-1.655,1.084-2.813,1.084
				C313.441,475.674,311.932,474.166,311.932,471.954z M315.404,469.156c-1.509,0-2.256,1.274-2.314,2.358h4.644
				C317.718,470.46,317.015,469.156,315.404,469.156z"/>
			<path style="fill:#1D262D;" d="M319.607,474.561l0.571-0.791c0.469,0.542,1.362,1.011,2.329,1.011c1.084,0,1.67-0.513,1.67-1.216
				c0-1.714-4.38-0.659-4.38-3.281c0-1.099,0.952-2.036,2.637-2.036c1.201,0,2.051,0.454,2.622,1.025l-0.513,0.762
				c-0.424-0.513-1.201-0.894-2.109-0.894c-0.967,0-1.567,0.483-1.567,1.113c0,1.553,4.379,0.527,4.379,3.281
				c0,1.187-0.952,2.139-2.783,2.139C321.306,475.674,320.325,475.323,319.607,474.561z"/>
			<path style="fill:#1D262D;" d="M326.477,466.68c0-0.41,0.337-0.747,0.732-0.747c0.41,0,0.747,0.337,0.747,0.747
				c0,0.41-0.337,0.732-0.747,0.732C326.814,467.413,326.477,467.091,326.477,466.68z M326.667,475.499v-7.075h1.099v7.075H326.667z
				"/>
			<path style="fill:#1D262D;" d="M329.582,477.315l0.557-0.82c0.586,0.703,1.289,0.967,2.3,0.967c1.172,0,2.27-0.571,2.27-2.124
				v-1.011c-0.512,0.718-1.376,1.26-2.373,1.26c-1.845,0-3.149-1.377-3.149-3.662c0-2.271,1.289-3.677,3.149-3.677
				c0.952,0,1.802,0.469,2.373,1.245v-1.069h1.099v6.87c0,2.344-1.641,3.076-3.369,3.076
				C331.237,478.37,330.417,478.135,329.582,477.315z M334.709,473.463v-3.091c-0.381-0.615-1.23-1.143-2.109-1.143
				c-1.421,0-2.271,1.128-2.271,2.695c0,1.553,0.849,2.695,2.271,2.695C333.478,474.62,334.328,474.078,334.709,473.463z"/>
			<path style="fill:#1D262D;" d="M342.413,475.499v-4.629c0-1.245-0.629-1.641-1.582-1.641c-0.865,0-1.685,0.527-2.095,1.099v5.171
				h-1.099v-7.075h1.099v1.025c0.498-0.586,1.464-1.201,2.519-1.201c1.479,0,2.256,0.747,2.256,2.285v4.966H342.413z"/>
			<path style="fill:#1D262D;" d="M344.933,471.954c0-2.051,1.465-3.706,3.486-3.706c2.138,0,3.398,1.67,3.398,3.794v0.278h-5.728
				c0.088,1.333,1.025,2.446,2.549,2.446c0.806,0,1.626-0.322,2.183-0.893l0.527,0.718c-0.703,0.703-1.655,1.084-2.813,1.084
				C346.442,475.674,344.933,474.166,344.933,471.954z M348.404,469.156c-1.509,0-2.256,1.274-2.314,2.358h4.643
				C350.719,470.46,350.015,469.156,348.404,469.156z"/>
			<path style="fill:#1D262D;" d="M358.35,475.499v-1.055c-0.527,0.718-1.392,1.23-2.388,1.23c-1.845,0-3.149-1.406-3.149-3.706
				c0-2.256,1.289-3.721,3.149-3.721c0.952,0,1.817,0.469,2.388,1.245v-3.765h1.098v9.771H358.35z M358.35,473.58v-3.208
				c-0.396-0.615-1.245-1.143-2.124-1.143c-1.421,0-2.271,1.172-2.271,2.739c0,1.567,0.85,2.725,2.271,2.725
				C357.105,474.693,357.954,474.195,358.35,473.58z"/>
			<path style="fill:#1D262D;" d="M364.692,475.499v-9.771h1.099v3.765c0.572-0.776,1.421-1.245,2.388-1.245
				c1.846,0,3.149,1.465,3.149,3.721c0,2.3-1.304,3.706-3.149,3.706c-0.996,0-1.86-0.513-2.388-1.23v1.055H364.692z M367.9,474.693
				c1.436,0,2.286-1.157,2.286-2.725c0-1.567-0.85-2.739-2.286-2.739c-0.864,0-1.728,0.527-2.109,1.143v3.208
				C366.172,474.195,367.036,474.693,367.9,474.693z"/>
			<path style="fill:#1D262D;" d="M372.529,477.271c0.161,0.073,0.425,0.117,0.601,0.117c0.483,0,0.805-0.161,1.055-0.747
				l0.468-1.069l-2.959-7.148h1.187l2.358,5.801l2.344-5.801h1.201l-3.545,8.511c-0.425,1.025-1.143,1.421-2.08,1.436
				c-0.234,0-0.601-0.044-0.806-0.103L372.529,477.271z"/>
		</g>
	</g>
</g>
</svg>
